<?xml version="1.0" encoding="utf-8"?>
<!-- Generator: Adobe Illustrator 27.5.0, SVG Export Plug-In . SVG Version: 6.00 Build 0)  -->
<svg version="1.1" xmlns="http://www.w3.org/2000/svg" xmlns:xlink="http://www.w3.org/1999/xlink" x="0px" y="0px"
	 viewBox="0 0 500 500" style="enable-background:new 0 0 500 500;" xml:space="preserve">
<g id="Background_Simple">
	<g>
		<path style="opacity:0.7;fill:#FFFFFF;" d="M67.931,167.086c0,0-27.877,71.988,11.297,144.503
			c39.174,72.516,119.879,110.802,184.469,143.548c64.59,32.746,131.661,16.799,163.534-36.838
			c31.873-53.637-11.845-91.928-11.897-168.418c-0.051-76.49,11.447-96.742-29.963-161.364
			c-41.41-64.623-143.059-78.925-219.9-30.996C88.631,105.45,67.931,167.086,67.931,167.086z"/>
	</g>
	<g>
		<path style="fill:#92E3A9;" d="M108.893,63.125c4.443-3.074,9.121-5.811,14.02-8.154c35.313-16.892,78.659-11.33,112.598,8.177
			c33.939,19.507,59.335,51.395,77.819,85.903c8.445,15.766,15.996,32.707,29.562,44.363c17.492,15.03,41.116,18.423,61.96,26.608
			c75.792,29.764,76.657,138.891,10.225,179.638c-26.188,16.063-58.528,20.908-88.621,23.152
			c-41.684,3.108-84.128,1.516-124.384-9.739c-40.256-11.255-78.343-32.666-105.275-64.633
			C61.525,306.572,47.93,249.65,49.708,194.935c0.9-27.69,5.555-55.612,17.268-80.719C76.393,94.03,90.67,75.735,108.893,63.125z"/>
		<path style="opacity:0.7;fill:#FFFFFF;" d="M108.893,63.125c4.443-3.074,9.121-5.811,14.02-8.154
			c35.313-16.892,78.659-11.33,112.598,8.177c33.939,19.507,59.335,51.395,77.819,85.903c8.445,15.766,15.996,32.707,29.562,44.363
			c17.492,15.03,41.116,18.423,61.96,26.608c75.792,29.764,76.657,138.891,10.225,179.638
			c-26.188,16.063-58.528,20.908-88.621,23.152c-41.684,3.108-84.128,1.516-124.384-9.739
			c-40.256-11.255-78.343-32.666-105.275-64.633C61.525,306.572,47.93,249.65,49.708,194.935c0.9-27.69,5.555-55.612,17.268-80.719
			C76.393,94.03,90.67,75.735,108.893,63.125z"/>
	</g>
</g>
<g id="Table">
	<g>
		<path style="opacity:0.2;fill-opacity:0.7;" d="M438.865,122.492l-380.55,3.06c0,0-3.359,82.898,0.62,116.882
			c3.979,33.984-0.62,148.094-0.62,148.094s61.338,6.056,129.791,3.544l-25.149,16.532c0,0-1.583,8.219,5.538,13.604l13.343-4.109
			l4.388,4.109l11.214-3.83c0,0,4.593-13.888-4.708-26.488c69.017-2.836,134.921-9.358,134.921-9.358s1.061,4.313,14.846,18.049
			c13.785,13.735,32.624,61.026,32.624,61.026l45.265-69.647l25.869-3.432c0,0-5.191-64.978,0-104.178
			C451.448,247.15,438.865,122.492,438.865,122.492z"/>
	</g>
	<g>
		<defs>
			<path id="XMLID_205_" d="M436.02,375.894c0,0-140.905-2.91-200.669,0c-42.792,2.084-171.372,0-171.372,0s2.643-94.028,0-141.653
				c-1.686-30.39,0-121.748,0-121.748s136.87,0.267,180.866-1.439c72.826-2.823,191.174,1.439,191.174,1.439s2.844,65.365,0,104.266
				C433.119,256.436,436.02,375.894,436.02,375.894z"/>
		</defs>
		<use xlink:href="#XMLID_205_"  style="overflow:visible;fill:#FFFFFF;"/>
		<clipPath id="XMLID_00000170989757889787343660000005752613853984868788_">
			<use xlink:href="#XMLID_205_"  style="overflow:visible;"/>
		</clipPath>
		
			<path style="opacity:0.5;clip-path:url(#XMLID_00000170989757889787343660000005752613853984868788_);fill:#92E3A9;fill-opacity:0.7;" d="
			M436.02,112.49v59.67c-25.25-0.63-95.18-1.91-186.85,0.29c-97.29,2.33-165.7,0.75-185.19,0.18v-60.14c0,0,136.87,0.27,180.87-1.44
			C317.67,108.23,436.02,112.49,436.02,112.49z"/>
		
			<path style="opacity:0.2;clip-path:url(#XMLID_00000170989757889787343660000005752613853984868788_);fill:#92E3A9;fill-opacity:0.7;" d="
			M294.94,371.967l-3.413-202.681H250c-1.854,31.891-0.626,160.23-0.159,202.681c0,0,16.6,0,22.133,0
			C277.716,371.967,294.94,371.967,294.94,371.967z"/>
		
			<path style="opacity:0.2;clip-path:url(#XMLID_00000170989757889787343660000005752613853984868788_);fill:#92E3A9;fill-opacity:0.7;" d="
			M68.679,172.76l45.617-0.309c0,0,3.486,156.791-4.455,199.517H71.308c0,0,0.527-57.117,0-104.251
			C70.78,220.582,68.679,172.76,68.679,172.76z"/>
		<path style="clip-path:url(#XMLID_00000170989757889787343660000005752613853984868788_);fill:#92E3A9;" d="M68.679,141.198
			c0,0,112.991-1.592,147.156,0c34.165,1.592,128.109-1.177,141.857-2.039c13.748-0.862,75.989,2.039,75.989,2.039
			c2.339-18.705-2.11-27.268-2.11-27.268s-166.681,2.172-247.385,3.248c-80.703,1.076-115.507,0-115.507,0
			S70.271,131.967,68.679,141.198z"/>
		
			<use xlink:href="#XMLID_205_"  style="overflow:visible;fill:none;stroke:#263238;stroke-linecap:round;stroke-linejoin:round;stroke-miterlimit:10;"/>
	</g>
	<g>
		<g>
			<path d="M239.417,132.671c-0.063,0-0.15-0.02-0.264-0.059c-0.113-0.039-0.223-0.09-0.328-0.152s-0.193-0.135-0.264-0.217
				c-0.07-0.082-0.086-0.17-0.047-0.264c0.039-0.063,0.09-0.18,0.152-0.352c0.063-0.172,0.133-0.377,0.211-0.615
				c0.078-0.238,0.16-0.494,0.246-0.768c0.086-0.273,0.17-0.545,0.252-0.814c0.082-0.27,0.158-0.525,0.229-0.768
				s0.129-0.449,0.176-0.621l-3.914-3.996c-0.094-0.109-0.129-0.195-0.105-0.258c0.023-0.063,0.07-0.111,0.141-0.146
				c0.07-0.035,0.146-0.057,0.229-0.064c0.082-0.008,0.139-0.012,0.17-0.012c0.133,0,0.264,0.012,0.393,0.035
				c0.129,0.023,0.267,0.072,0.416,0.146c0.148,0.074,0.314,0.188,0.498,0.34c0.184,0.152,0.402,0.359,0.656,0.621
				c0.254,0.262,0.551,0.584,0.891,0.967c0.34,0.383,0.736,0.848,1.189,1.395c0.297-0.867,0.555-1.58,0.773-2.139
				c0.219-0.559,0.416-1.004,0.592-1.336s0.338-0.568,0.486-0.709c0.148-0.141,0.301-0.223,0.457-0.246
				c0.094,0,0.185,0.01,0.275,0.029c0.09,0.02,0.154,0.092,0.193,0.217c-0.305,0.648-0.596,1.379-0.873,2.191
				c-0.277,0.813-0.563,1.656-0.855,2.531s-0.6,1.748-0.92,2.619C240.152,131.099,239.8,131.914,239.417,132.671z"/>
			<path d="M243.683,130.48c-0.07-0.633-0.01-1.25,0.182-1.852c0.191-0.602,0.48-1.133,0.867-1.594
				c0.387-0.461,0.854-0.826,1.4-1.096c0.547-0.27,1.145-0.396,1.793-0.381c0.109,0,0.256,0.016,0.439,0.047
				c0.184,0.031,0.379,0.08,0.586,0.146c0.207,0.066,0.41,0.15,0.609,0.252c0.199,0.102,0.375,0.223,0.527,0.363
				c0.152,0.141,0.268,0.299,0.346,0.475c0.078,0.176,0.098,0.373,0.059,0.592c-0.32,0.227-0.689,0.383-1.107,0.469
				c-0.418,0.086-0.844,0.146-1.277,0.182c-0.434,0.035-0.857,0.066-1.271,0.094c-0.414,0.027-0.775,0.1-1.084,0.217
				c-0.309,0.117-0.547,0.303-0.715,0.557c-0.168,0.254-0.221,0.619-0.158,1.096c0.117,0.43,0.311,0.746,0.58,0.949
				c0.27,0.203,0.582,0.326,0.938,0.369c0.355,0.043,0.734,0.023,1.137-0.059c0.402-0.082,0.797-0.189,1.184-0.322
				s0.748-0.273,1.084-0.422c0.336-0.148,0.613-0.27,0.832-0.363c0.102,0,0.188,0.037,0.258,0.111
				c0.07,0.074,0.105,0.162,0.105,0.264c-0.195,0.336-0.492,0.637-0.891,0.902c-0.398,0.266-0.848,0.48-1.348,0.645
				c-0.5,0.164-1.021,0.266-1.564,0.305c-0.543,0.039-1.053,0-1.529-0.117c-0.477-0.117-0.895-0.324-1.254-0.621
				C244.05,131.39,243.808,130.988,243.683,130.48z M247.82,126.437c-0.141,0-0.313,0.016-0.516,0.047
				c-0.203,0.031-0.398,0.086-0.586,0.164c-0.188,0.078-0.35,0.18-0.486,0.305c-0.137,0.125-0.205,0.285-0.205,0.48l2.906-0.48
				c-0.125-0.188-0.287-0.32-0.486-0.398S248.039,126.437,247.82,126.437z"/>
			<path d="M257.629,129.976c-0.227,0.352-0.488,0.67-0.785,0.955c-0.297,0.285-0.623,0.527-0.979,0.727
				c-0.355,0.199-0.742,0.346-1.16,0.439c-0.418,0.094-0.857,0.121-1.318,0.082c-0.164,0-0.34-0.02-0.527-0.059
				c-0.188-0.039-0.361-0.102-0.521-0.188c-0.16-0.086-0.291-0.199-0.393-0.34c-0.102-0.141-0.152-0.316-0.152-0.527
				c-0.086-0.438-0.068-0.881,0.053-1.33c0.121-0.449,0.311-0.883,0.568-1.301c0.258-0.418,0.574-0.805,0.949-1.16
				s0.775-0.656,1.201-0.902c0.426-0.246,0.863-0.424,1.313-0.533c0.449-0.109,0.885-0.125,1.307-0.047
				c0.32,0,0.57,0.105,0.75,0.316c0.18,0.211,0.314,0.492,0.404,0.844c0.09,0.352,0.147,0.756,0.17,1.213
				c0.023,0.457,0.043,0.928,0.059,1.412c0.016,0.484,0.037,0.963,0.064,1.436c0.027,0.473,0.088,0.904,0.182,1.295h-0.867
				c-0.039-0.266-0.068-0.5-0.088-0.703c-0.02-0.203-0.037-0.393-0.053-0.568c-0.016-0.176-0.037-0.346-0.064-0.51
				C257.713,130.363,257.676,130.179,257.629,129.976z M256.738,126.847c-0.305-0.023-0.619,0.018-0.943,0.123
				c-0.324,0.105-0.637,0.254-0.938,0.445c-0.301,0.191-0.582,0.418-0.844,0.68c-0.262,0.262-0.49,0.533-0.686,0.814
				c-0.195,0.281-0.346,0.561-0.451,0.838c-0.105,0.277-0.148,0.533-0.129,0.768c0.02,0.234,0.107,0.434,0.264,0.598
				c0.156,0.164,0.398,0.273,0.727,0.328c0.469-0.008,0.92-0.127,1.354-0.357c0.434-0.23,0.82-0.516,1.16-0.855
				c0.34-0.34,0.623-0.707,0.85-1.102c0.227-0.395,0.373-0.76,0.439-1.096c0.066-0.336,0.037-0.617-0.088-0.844
				C257.328,126.96,257.09,126.847,256.738,126.847z"/>
			<path d="M259.504,125.699c0-0.148,0.053-0.246,0.158-0.293c0.106-0.047,0.221-0.07,0.346-0.07c0.203,0,0.365,0.084,0.486,0.252
				c0.121,0.168,0.215,0.363,0.281,0.586c0.066,0.223,0.113,0.441,0.141,0.656c0.027,0.215,0.049,0.369,0.065,0.463
				c0.289-0.266,0.613-0.512,0.973-0.738c0.359-0.227,0.76-0.42,1.201-0.58c0.441-0.16,0.934-0.277,1.477-0.352
				c0.543-0.074,1.15-0.092,1.822-0.053c0.211-0.047,0.369-0.002,0.475,0.135c0.105,0.137,0.166,0.299,0.182,0.486
				c0.016,0.188-0.014,0.371-0.088,0.551c-0.074,0.18-0.186,0.285-0.334,0.316c-0.273-0.203-0.603-0.334-0.99-0.393
				c-0.387-0.059-0.789-0.057-1.207,0.006c-0.418,0.063-0.83,0.178-1.236,0.346c-0.406,0.168-0.768,0.381-1.084,0.639
				c-0.316,0.258-0.566,0.555-0.75,0.891c-0.184,0.336-0.26,0.699-0.228,1.09c0,0.242,0.016,0.479,0.047,0.709
				c0.031,0.23,0.064,0.461,0.1,0.691c0.035,0.23,0.068,0.461,0.1,0.691c0.031,0.23,0.047,0.463,0.047,0.697
				c-0.211,0.016-0.381,0.043-0.51,0.082c-0.129,0.039-0.236,0.057-0.322,0.053c-0.086-0.004-0.16-0.043-0.223-0.117
				s-0.133-0.225-0.211-0.451c-0.008-0.055-0.027-0.219-0.059-0.492c-0.031-0.273-0.068-0.605-0.111-0.996
				c-0.043-0.391-0.092-0.818-0.147-1.283c-0.055-0.465-0.107-0.922-0.158-1.371c-0.051-0.449-0.098-0.863-0.141-1.242
				C259.56,126.228,259.527,125.925,259.504,125.699z"/>
		</g>
		<g>
			<path d="M84.541,159.67c-0.064-0.091-0.144-0.23-0.239-0.417c-0.096-0.187-0.198-0.395-0.308-0.626
				c-0.109-0.23-0.225-0.468-0.345-0.714c-0.121-0.246-0.242-0.475-0.362-0.687c-0.121-0.212-0.237-0.393-0.349-0.544
				c-0.112-0.15-0.213-0.244-0.304-0.28c-0.068,0.105-0.147,0.254-0.236,0.448c-0.089,0.194-0.182,0.41-0.28,0.649
				c-0.098,0.239-0.196,0.491-0.294,0.755c-0.098,0.264-0.192,0.521-0.284,0.769c-0.091,0.249-0.174,0.48-0.25,0.694
				c-0.075,0.214-0.138,0.387-0.188,0.52l-0.533-0.027l-2.133-4.936c-0.027-0.059-0.026-0.109,0.003-0.15
				c0.03-0.041,0.069-0.072,0.12-0.092c0.05-0.02,0.105-0.035,0.164-0.044c0.059-0.009,0.105-0.014,0.137-0.014
				c0.086,0,0.151,0.018,0.195,0.055c0.043,0.037,0.078,0.083,0.103,0.14c0.025,0.057,0.047,0.12,0.065,0.188
				c0.018,0.068,0.041,0.134,0.068,0.198c0.068,0.15,0.15,0.333,0.246,0.547c0.096,0.214,0.196,0.438,0.301,0.67
				c0.105,0.232,0.212,0.465,0.321,0.697c0.109,0.232,0.211,0.444,0.304,0.636c0.093,0.191,0.175,0.351,0.246,0.478
				c0.071,0.127,0.12,0.205,0.147,0.232c0.237-0.592,0.441-1.094,0.612-1.504c0.171-0.41,0.317-0.748,0.438-1.015
				s0.218-0.473,0.29-0.619c0.073-0.146,0.131-0.253,0.174-0.321c0.044-0.068,0.075-0.109,0.096-0.123s0.035-0.02,0.044-0.02
				c0.073,0,0.158,0.045,0.256,0.137c0.098,0.091,0.201,0.213,0.308,0.366c0.107,0.153,0.219,0.327,0.335,0.523
				c0.116,0.196,0.232,0.4,0.349,0.612c0.116,0.212,0.228,0.423,0.335,0.632c0.107,0.209,0.207,0.404,0.301,0.584
				c0.093,0.18,0.177,0.336,0.25,0.468c0.073,0.132,0.132,0.225,0.178,0.28c0.073-0.232,0.144-0.488,0.212-0.766
				c0.068-0.278,0.133-0.567,0.195-0.868c0.062-0.301,0.12-0.607,0.174-0.919c0.055-0.312,0.107-0.616,0.157-0.913
				c0.05-0.296,0.096-0.58,0.137-0.851c0.041-0.271,0.08-0.519,0.116-0.742c0.141,0,0.251,0.014,0.328,0.041
				c0.078,0.027,0.133,0.066,0.167,0.116c0.034,0.05,0.055,0.109,0.062,0.178c0.007,0.068,0.01,0.141,0.01,0.219
				c0.004-0.018-0.003,0.057-0.024,0.226c-0.021,0.169-0.052,0.403-0.096,0.704c-0.044,0.301-0.097,0.65-0.161,1.049
				c-0.064,0.399-0.137,0.817-0.219,1.254c-0.082,0.438-0.173,0.878-0.273,1.323s-0.207,0.862-0.321,1.254
				c-0.114,0.078-0.209,0.119-0.284,0.123c-0.075,0.004-0.139-0.017-0.191-0.065c-0.052-0.048-0.099-0.117-0.14-0.208
				C84.63,159.879,84.586,159.779,84.541,159.67z"/>
			<path d="M86.715,159.116c-0.041-0.369-0.006-0.729,0.106-1.08c0.112-0.351,0.28-0.661,0.506-0.93
				c0.226-0.269,0.498-0.482,0.817-0.639c0.319-0.157,0.667-0.232,1.046-0.222c0.064,0,0.149,0.009,0.256,0.027
				c0.107,0.018,0.221,0.047,0.342,0.085c0.121,0.039,0.239,0.088,0.355,0.147c0.116,0.059,0.219,0.13,0.308,0.212
				s0.156,0.174,0.202,0.277c0.046,0.103,0.057,0.218,0.034,0.345c-0.187,0.132-0.402,0.223-0.646,0.273
				c-0.244,0.05-0.492,0.085-0.745,0.106c-0.253,0.02-0.5,0.038-0.742,0.055c-0.242,0.016-0.452,0.058-0.632,0.126
				c-0.18,0.068-0.319,0.177-0.417,0.325c-0.098,0.148-0.129,0.361-0.092,0.639c0.068,0.251,0.181,0.435,0.338,0.554
				c0.157,0.119,0.339,0.19,0.547,0.215c0.207,0.025,0.428,0.014,0.663-0.034c0.235-0.048,0.465-0.11,0.69-0.188
				c0.226-0.078,0.437-0.16,0.632-0.246c0.196-0.086,0.358-0.157,0.485-0.212c0.059,0,0.109,0.021,0.15,0.065
				c0.041,0.043,0.062,0.095,0.062,0.154c-0.114,0.196-0.287,0.372-0.52,0.526c-0.232,0.155-0.495,0.28-0.786,0.376
				c-0.291,0.096-0.596,0.155-0.913,0.178c-0.317,0.023-0.614,0-0.892-0.068c-0.278-0.068-0.522-0.189-0.731-0.362
				C86.929,159.647,86.788,159.413,86.715,159.116z M89.128,156.758c-0.082,0-0.182,0.009-0.301,0.027
				c-0.119,0.018-0.232,0.05-0.342,0.096c-0.109,0.045-0.204,0.105-0.284,0.178c-0.08,0.073-0.12,0.167-0.12,0.28l1.695-0.28
				c-0.073-0.109-0.167-0.187-0.284-0.232C89.377,156.781,89.255,156.758,89.128,156.758z"/>
			<path d="M91.445,159.116c-0.041-0.369-0.006-0.729,0.106-1.08c0.112-0.351,0.28-0.661,0.506-0.93
				c0.226-0.269,0.498-0.482,0.817-0.639c0.319-0.157,0.667-0.232,1.046-0.222c0.064,0,0.149,0.009,0.256,0.027
				c0.107,0.018,0.221,0.047,0.342,0.085c0.121,0.039,0.239,0.088,0.355,0.147c0.116,0.059,0.219,0.13,0.308,0.212
				c0.089,0.082,0.156,0.174,0.202,0.277c0.045,0.103,0.057,0.218,0.034,0.345c-0.187,0.132-0.402,0.223-0.646,0.273
				c-0.244,0.05-0.492,0.085-0.745,0.106c-0.253,0.02-0.5,0.038-0.742,0.055c-0.242,0.016-0.452,0.058-0.632,0.126
				c-0.18,0.068-0.319,0.177-0.417,0.325c-0.098,0.148-0.129,0.361-0.092,0.639c0.068,0.251,0.181,0.435,0.338,0.554
				c0.157,0.119,0.339,0.19,0.547,0.215c0.208,0.025,0.428,0.014,0.663-0.034c0.235-0.048,0.465-0.11,0.69-0.188
				c0.226-0.078,0.437-0.16,0.632-0.246c0.196-0.086,0.358-0.157,0.485-0.212c0.059,0,0.109,0.021,0.15,0.065
				c0.041,0.043,0.062,0.095,0.062,0.154c-0.114,0.196-0.287,0.372-0.52,0.526s-0.495,0.28-0.786,0.376
				c-0.291,0.096-0.596,0.155-0.913,0.178c-0.317,0.023-0.614,0-0.892-0.068c-0.278-0.068-0.522-0.189-0.731-0.362
				C91.66,159.647,91.518,159.413,91.445,159.116z M93.858,156.758c-0.082,0-0.182,0.009-0.301,0.027
				c-0.119,0.018-0.232,0.05-0.342,0.096c-0.109,0.045-0.204,0.105-0.284,0.178c-0.08,0.073-0.12,0.167-0.12,0.28l1.695-0.28
				c-0.073-0.109-0.167-0.187-0.284-0.232C94.108,156.781,93.986,156.758,93.858,156.758z"/>
			<path d="M96.408,157.045c0-0.232-0.008-0.465-0.024-0.697c-0.016-0.232-0.034-0.465-0.055-0.697
				c-0.021-0.232-0.039-0.464-0.055-0.694c-0.016-0.23-0.024-0.461-0.024-0.694c0-0.1,0.025-0.171,0.075-0.212
				s0.121-0.061,0.212-0.061c0.009,0,0.033,0,0.072,0c0.038,0,0.063,0.002,0.072,0.007c0.059,0.242,0.102,0.495,0.126,0.759
				c0.025,0.264,0.047,0.543,0.065,0.837c0.018,0.294,0.037,0.602,0.055,0.923c0.018,0.321,0.05,0.657,0.096,1.008
				c0.082-0.041,0.201-0.115,0.355-0.222c0.155-0.107,0.327-0.229,0.516-0.366c0.189-0.137,0.386-0.279,0.591-0.427
				c0.205-0.148,0.4-0.283,0.585-0.403c0.185-0.121,0.349-0.221,0.492-0.301c0.143-0.08,0.247-0.12,0.311-0.12
				c0.05,0,0.09,0.011,0.12,0.034c0.03,0.023,0.061,0.064,0.092,0.123c-0.187,0.237-0.4,0.452-0.639,0.646
				c-0.239,0.194-0.486,0.379-0.742,0.557c-0.255,0.178-0.509,0.352-0.762,0.523c-0.253,0.171-0.484,0.352-0.694,0.543
				c0.378,0.105,0.739,0.212,1.083,0.321c0.344,0.109,0.677,0.211,0.998,0.304c0.321,0.093,0.638,0.173,0.95,0.239
				s0.625,0.108,0.94,0.126c0,0.068-0.002,0.128-0.007,0.178c-0.004,0.05-0.018,0.093-0.041,0.13
				c-0.023,0.037-0.058,0.065-0.106,0.085c-0.048,0.02-0.115,0.033-0.202,0.038h-0.068c-0.205-0.059-0.459-0.122-0.762-0.188
				c-0.303-0.066-0.626-0.134-0.971-0.205c-0.344-0.071-0.691-0.145-1.039-0.222c-0.349-0.078-0.669-0.155-0.96-0.232
				c0,0.059,0.006,0.146,0.017,0.26c0.011,0.114,0.02,0.237,0.024,0.369c0.004,0.132,0.001,0.263-0.01,0.393
				s-0.042,0.243-0.092,0.338s-0.123,0.164-0.219,0.205c-0.096,0.041-0.223,0.037-0.383-0.014L96.408,157.045z"/>
			<path d="M105.24,155.691c-0.009-0.127,0.015-0.209,0.072-0.243c0.057-0.034,0.124-0.051,0.202-0.051
				c0.064,0,0.123,0.007,0.178,0.02c0.055,0.014,0.093,0.059,0.116,0.137l-0.143,4.389c-0.004,0.055-0.031,0.102-0.079,0.143
				c-0.048,0.041-0.102,0.069-0.161,0.085c-0.059,0.016-0.12,0.018-0.181,0.007c-0.062-0.011-0.108-0.038-0.14-0.079
				c0.004-0.109,0.01-0.28,0.017-0.513c0.007-0.232,0.015-0.493,0.024-0.783c0.009-0.29,0.018-0.594,0.027-0.913
				c0.009-0.319,0.018-0.623,0.027-0.913c0.009-0.29,0.017-0.549,0.024-0.779C105.23,155.971,105.236,155.801,105.24,155.691z"/>
		</g>
		<g>
			<path d="M126.854,161.67c-0.064-0.091-0.144-0.23-0.239-0.417s-0.198-0.395-0.308-0.626c-0.109-0.23-0.225-0.468-0.345-0.714
				c-0.121-0.246-0.242-0.475-0.362-0.687s-0.237-0.393-0.349-0.544c-0.112-0.15-0.213-0.244-0.304-0.28
				c-0.068,0.105-0.147,0.254-0.236,0.448c-0.089,0.194-0.182,0.41-0.28,0.649c-0.098,0.239-0.196,0.491-0.294,0.755
				c-0.098,0.264-0.192,0.521-0.284,0.769c-0.091,0.249-0.174,0.48-0.25,0.694c-0.075,0.214-0.138,0.387-0.188,0.52l-0.533-0.027
				l-2.133-4.936c-0.027-0.059-0.026-0.109,0.003-0.15s0.069-0.072,0.12-0.092c0.05-0.02,0.105-0.035,0.164-0.044
				c0.059-0.009,0.105-0.014,0.137-0.014c0.087,0,0.151,0.018,0.195,0.055c0.043,0.037,0.078,0.083,0.103,0.14
				c0.025,0.057,0.047,0.12,0.065,0.188c0.018,0.068,0.041,0.134,0.068,0.198c0.068,0.15,0.15,0.333,0.246,0.547
				c0.096,0.214,0.196,0.438,0.301,0.67c0.105,0.232,0.212,0.465,0.321,0.697c0.109,0.232,0.211,0.444,0.304,0.636
				c0.093,0.191,0.175,0.351,0.246,0.478c0.071,0.127,0.12,0.205,0.147,0.232c0.237-0.592,0.441-1.094,0.612-1.504
				c0.171-0.41,0.317-0.748,0.438-1.015c0.121-0.267,0.218-0.473,0.291-0.619c0.073-0.146,0.131-0.253,0.174-0.321
				c0.043-0.068,0.075-0.109,0.096-0.123s0.035-0.02,0.044-0.02c0.073,0,0.158,0.045,0.256,0.137
				c0.098,0.091,0.201,0.213,0.308,0.366c0.107,0.153,0.219,0.327,0.335,0.523c0.116,0.196,0.232,0.4,0.349,0.612
				s0.228,0.423,0.335,0.632c0.107,0.209,0.208,0.404,0.301,0.584c0.093,0.18,0.177,0.336,0.25,0.468
				c0.073,0.132,0.132,0.225,0.178,0.28c0.073-0.232,0.144-0.488,0.212-0.766c0.068-0.278,0.133-0.567,0.195-0.868
				c0.062-0.301,0.12-0.607,0.174-0.919c0.055-0.312,0.107-0.616,0.157-0.913c0.05-0.296,0.096-0.58,0.137-0.851
				c0.041-0.271,0.08-0.519,0.116-0.742c0.141,0,0.25,0.014,0.328,0.041c0.078,0.027,0.133,0.066,0.167,0.116
				c0.034,0.05,0.055,0.109,0.061,0.178c0.007,0.068,0.01,0.141,0.01,0.219c0.004-0.018-0.003,0.057-0.024,0.226
				c-0.021,0.169-0.052,0.403-0.096,0.704c-0.043,0.301-0.097,0.65-0.161,1.049c-0.064,0.399-0.137,0.817-0.219,1.254
				c-0.082,0.438-0.173,0.878-0.273,1.323c-0.1,0.444-0.208,0.862-0.321,1.254c-0.114,0.078-0.208,0.119-0.284,0.123
				c-0.075,0.004-0.139-0.017-0.191-0.065c-0.052-0.048-0.099-0.117-0.14-0.208C126.943,161.879,126.9,161.779,126.854,161.67z"/>
			<path d="M129.028,161.116c-0.041-0.369-0.006-0.729,0.106-1.08c0.112-0.351,0.28-0.661,0.506-0.93
				c0.226-0.269,0.498-0.482,0.817-0.639c0.319-0.157,0.667-0.232,1.046-0.222c0.064,0,0.149,0.009,0.256,0.027
				c0.107,0.018,0.221,0.047,0.342,0.085c0.121,0.039,0.239,0.088,0.355,0.147c0.116,0.059,0.219,0.13,0.308,0.212
				c0.089,0.082,0.156,0.174,0.202,0.277c0.045,0.103,0.057,0.218,0.034,0.345c-0.187,0.132-0.402,0.223-0.646,0.273
				c-0.244,0.05-0.492,0.085-0.745,0.106c-0.253,0.02-0.5,0.038-0.742,0.055c-0.242,0.016-0.452,0.058-0.632,0.126
				c-0.18,0.068-0.319,0.177-0.417,0.325c-0.098,0.148-0.129,0.361-0.092,0.639c0.068,0.251,0.181,0.435,0.338,0.554
				c0.157,0.119,0.339,0.19,0.547,0.215c0.208,0.025,0.428,0.014,0.663-0.034c0.235-0.048,0.465-0.11,0.691-0.188
				c0.225-0.078,0.436-0.16,0.632-0.246c0.196-0.086,0.358-0.157,0.485-0.212c0.059,0,0.109,0.021,0.15,0.065
				c0.041,0.043,0.062,0.095,0.062,0.154c-0.114,0.196-0.287,0.372-0.52,0.526s-0.495,0.28-0.786,0.376s-0.596,0.155-0.913,0.178
				c-0.317,0.023-0.614,0-0.892-0.068c-0.278-0.068-0.522-0.189-0.731-0.362C129.243,161.647,129.101,161.413,129.028,161.116z
				 M131.441,158.758c-0.082,0-0.182,0.009-0.301,0.027c-0.119,0.018-0.232,0.05-0.342,0.096c-0.109,0.045-0.204,0.105-0.284,0.178
				c-0.08,0.073-0.12,0.167-0.12,0.28l1.695-0.28c-0.073-0.109-0.167-0.187-0.284-0.232S131.569,158.758,131.441,158.758z"/>
			<path d="M133.759,161.116c-0.041-0.369-0.006-0.729,0.106-1.08c0.112-0.351,0.28-0.661,0.506-0.93
				c0.226-0.269,0.498-0.482,0.817-0.639s0.667-0.232,1.046-0.222c0.064,0,0.149,0.009,0.256,0.027
				c0.107,0.018,0.221,0.047,0.342,0.085c0.121,0.039,0.239,0.088,0.355,0.147s0.219,0.13,0.308,0.212
				c0.089,0.082,0.156,0.174,0.202,0.277c0.045,0.103,0.057,0.218,0.034,0.345c-0.187,0.132-0.402,0.223-0.646,0.273
				c-0.244,0.05-0.492,0.085-0.745,0.106c-0.253,0.02-0.5,0.038-0.742,0.055c-0.242,0.016-0.452,0.058-0.632,0.126
				c-0.18,0.068-0.319,0.177-0.417,0.325c-0.098,0.148-0.129,0.361-0.092,0.639c0.068,0.251,0.181,0.435,0.338,0.554
				c0.157,0.119,0.339,0.19,0.547,0.215c0.208,0.025,0.428,0.014,0.663-0.034c0.235-0.048,0.465-0.11,0.69-0.188
				c0.226-0.078,0.437-0.16,0.632-0.246c0.196-0.086,0.358-0.157,0.485-0.212c0.059,0,0.109,0.021,0.15,0.065
				c0.041,0.043,0.062,0.095,0.062,0.154c-0.114,0.196-0.287,0.372-0.52,0.526c-0.232,0.155-0.495,0.28-0.786,0.376
				c-0.292,0.096-0.596,0.155-0.913,0.178c-0.317,0.023-0.614,0-0.892-0.068c-0.278-0.068-0.522-0.189-0.731-0.362
				C133.973,161.647,133.831,161.413,133.759,161.116z M136.172,158.758c-0.082,0-0.182,0.009-0.301,0.027
				c-0.119,0.018-0.232,0.05-0.342,0.096c-0.109,0.045-0.204,0.105-0.284,0.178c-0.08,0.073-0.12,0.167-0.12,0.28l1.695-0.28
				c-0.073-0.109-0.167-0.187-0.284-0.232S136.299,158.758,136.172,158.758z"/>
			<path d="M138.722,159.045c0-0.232-0.008-0.465-0.024-0.697c-0.016-0.232-0.034-0.465-0.055-0.697
				c-0.021-0.232-0.039-0.464-0.055-0.694c-0.016-0.23-0.024-0.461-0.024-0.694c0-0.1,0.025-0.171,0.075-0.212
				c0.05-0.041,0.121-0.061,0.212-0.061c0.009,0,0.033,0,0.072,0c0.039,0,0.063,0.002,0.072,0.007
				c0.059,0.242,0.102,0.495,0.126,0.759c0.025,0.264,0.047,0.543,0.065,0.837c0.018,0.294,0.037,0.602,0.055,0.923
				c0.018,0.321,0.05,0.657,0.096,1.008c0.082-0.041,0.201-0.115,0.355-0.222c0.155-0.107,0.327-0.229,0.516-0.366
				c0.189-0.137,0.386-0.279,0.591-0.427c0.205-0.148,0.4-0.283,0.585-0.403c0.185-0.121,0.349-0.221,0.492-0.301
				c0.144-0.08,0.247-0.12,0.311-0.12c0.05,0,0.09,0.011,0.12,0.034c0.03,0.023,0.061,0.064,0.092,0.123
				c-0.187,0.237-0.4,0.452-0.639,0.646c-0.239,0.194-0.486,0.379-0.742,0.557c-0.255,0.178-0.509,0.352-0.762,0.523
				c-0.253,0.171-0.484,0.352-0.694,0.543c0.378,0.105,0.739,0.212,1.083,0.321c0.344,0.109,0.677,0.211,0.998,0.304
				c0.321,0.093,0.638,0.173,0.95,0.239c0.312,0.066,0.626,0.108,0.94,0.126c0,0.068-0.003,0.128-0.007,0.178
				c-0.004,0.05-0.018,0.093-0.041,0.13c-0.023,0.037-0.058,0.065-0.106,0.085c-0.048,0.02-0.115,0.033-0.202,0.038h-0.068
				c-0.205-0.059-0.459-0.122-0.762-0.188c-0.303-0.066-0.626-0.134-0.971-0.205c-0.344-0.071-0.69-0.145-1.039-0.222
				c-0.349-0.078-0.669-0.155-0.96-0.232c0,0.059,0.006,0.146,0.017,0.26c0.011,0.114,0.02,0.237,0.024,0.369
				c0.004,0.132,0.001,0.263-0.01,0.393s-0.042,0.243-0.092,0.338c-0.05,0.096-0.123,0.164-0.219,0.205
				c-0.096,0.041-0.223,0.037-0.383-0.014L138.722,159.045z"/>
			<path d="M147.506,161.814c0.191-0.169,0.406-0.382,0.643-0.639c0.237-0.257,0.467-0.531,0.691-0.82
				c0.223-0.29,0.424-0.581,0.602-0.875c0.178-0.294,0.302-0.566,0.373-0.817c0.071-0.25,0.074-0.464,0.01-0.639
				c-0.064-0.175-0.225-0.29-0.485-0.345c-0.164,0-0.309,0.024-0.434,0.072c-0.126,0.048-0.239,0.108-0.342,0.181
				c-0.102,0.073-0.198,0.153-0.287,0.239c-0.089,0.086-0.181,0.166-0.277,0.239c-0.096,0.073-0.198,0.133-0.308,0.181
				c-0.109,0.048-0.235,0.072-0.376,0.072c0.004-0.187,0.081-0.369,0.229-0.547c0.148-0.178,0.33-0.335,0.547-0.472
				c0.216-0.137,0.452-0.243,0.708-0.318c0.255-0.075,0.496-0.102,0.721-0.079c0.226,0.023,0.418,0.102,0.578,0.239
				c0.16,0.137,0.253,0.349,0.28,0.636c0,0.314-0.054,0.626-0.161,0.936c-0.107,0.31-0.244,0.611-0.41,0.902
				c-0.167,0.291-0.353,0.57-0.561,0.834c-0.207,0.264-0.409,0.51-0.605,0.738c0.264,0.023,0.53-0.002,0.796-0.075
				c0.267-0.073,0.53-0.157,0.79-0.253c0.26-0.096,0.519-0.186,0.776-0.27c0.257-0.085,0.514-0.127,0.769-0.127
				c0.068,0,0.133,0.016,0.195,0.048c0.062,0.032,0.092,0.091,0.092,0.178c0,0.086-0.03,0.16-0.089,0.219s-0.134,0.107-0.226,0.144
				c-0.091,0.037-0.19,0.063-0.297,0.079c-0.107,0.016-0.208,0.028-0.304,0.038c-0.096,0.009-0.179,0.014-0.249,0.014
				s-0.113,0.002-0.126,0.007c-0.05,0.009-0.14,0.033-0.27,0.072c-0.13,0.039-0.283,0.083-0.458,0.133
				c-0.175,0.05-0.365,0.102-0.567,0.154c-0.203,0.052-0.406,0.099-0.608,0.14c-0.203,0.041-0.395,0.073-0.578,0.096
				c-0.182,0.023-0.337,0.03-0.465,0.021c-0.127-0.009-0.222-0.04-0.284-0.092C147.475,162.004,147.465,161.923,147.506,161.814z"/>
		</g>
		<g>
			<path d="M171.393,159.67c-0.064-0.091-0.144-0.23-0.239-0.417s-0.198-0.395-0.308-0.626c-0.109-0.23-0.225-0.468-0.345-0.714
				c-0.121-0.246-0.242-0.475-0.362-0.687c-0.121-0.212-0.237-0.393-0.349-0.544c-0.112-0.15-0.213-0.244-0.304-0.28
				c-0.068,0.105-0.147,0.254-0.236,0.448s-0.182,0.41-0.28,0.649c-0.098,0.239-0.196,0.491-0.294,0.755
				c-0.098,0.264-0.192,0.521-0.284,0.769c-0.091,0.249-0.174,0.48-0.249,0.694c-0.075,0.214-0.138,0.387-0.188,0.52l-0.533-0.027
				l-2.133-4.936c-0.027-0.059-0.026-0.109,0.003-0.15c0.03-0.041,0.069-0.072,0.12-0.092c0.05-0.02,0.105-0.035,0.164-0.044
				c0.059-0.009,0.105-0.014,0.137-0.014c0.086,0,0.151,0.018,0.195,0.055c0.044,0.037,0.078,0.083,0.103,0.14
				c0.025,0.057,0.047,0.12,0.065,0.188c0.018,0.068,0.041,0.134,0.068,0.198c0.068,0.15,0.15,0.333,0.246,0.547
				c0.096,0.214,0.196,0.438,0.301,0.67c0.105,0.232,0.212,0.465,0.321,0.697c0.109,0.232,0.211,0.444,0.304,0.636
				c0.093,0.191,0.175,0.351,0.246,0.478c0.071,0.127,0.12,0.205,0.147,0.232c0.237-0.592,0.441-1.094,0.612-1.504
				c0.171-0.41,0.317-0.748,0.438-1.015s0.218-0.473,0.29-0.619c0.073-0.146,0.131-0.253,0.174-0.321
				c0.043-0.068,0.075-0.109,0.096-0.123c0.021-0.014,0.035-0.02,0.044-0.02c0.073,0,0.158,0.045,0.256,0.137
				c0.098,0.091,0.201,0.213,0.308,0.366c0.107,0.153,0.219,0.327,0.335,0.523c0.116,0.196,0.232,0.4,0.349,0.612
				c0.116,0.212,0.228,0.423,0.335,0.632c0.107,0.209,0.208,0.404,0.301,0.584c0.093,0.18,0.177,0.336,0.249,0.468
				c0.073,0.132,0.132,0.225,0.178,0.28c0.073-0.232,0.144-0.488,0.212-0.766c0.068-0.278,0.133-0.567,0.195-0.868
				c0.062-0.301,0.12-0.607,0.174-0.919c0.055-0.312,0.107-0.616,0.157-0.913c0.05-0.296,0.096-0.58,0.137-0.851
				c0.041-0.271,0.08-0.519,0.116-0.742c0.141,0,0.25,0.014,0.328,0.041c0.078,0.027,0.133,0.066,0.168,0.116
				c0.034,0.05,0.055,0.109,0.061,0.178c0.007,0.068,0.01,0.141,0.01,0.219c0.004-0.018-0.003,0.057-0.024,0.226
				c-0.02,0.169-0.052,0.403-0.096,0.704c-0.043,0.301-0.097,0.65-0.161,1.049c-0.064,0.399-0.137,0.817-0.219,1.254
				s-0.173,0.878-0.273,1.323c-0.1,0.444-0.208,0.862-0.321,1.254c-0.114,0.078-0.208,0.119-0.284,0.123
				c-0.075,0.004-0.139-0.017-0.191-0.065c-0.052-0.048-0.099-0.117-0.14-0.208C171.482,159.879,171.438,159.779,171.393,159.67z"/>
			<path d="M173.567,159.116c-0.041-0.369-0.006-0.729,0.106-1.08c0.112-0.351,0.28-0.661,0.506-0.93
				c0.226-0.269,0.498-0.482,0.817-0.639c0.319-0.157,0.668-0.232,1.046-0.222c0.064,0,0.149,0.009,0.256,0.027
				c0.107,0.018,0.221,0.047,0.342,0.085c0.121,0.039,0.239,0.088,0.355,0.147c0.116,0.059,0.219,0.13,0.308,0.212
				c0.089,0.082,0.156,0.174,0.202,0.277c0.045,0.103,0.057,0.218,0.034,0.345c-0.187,0.132-0.402,0.223-0.646,0.273
				c-0.244,0.05-0.492,0.085-0.745,0.106c-0.253,0.02-0.5,0.038-0.742,0.055c-0.242,0.016-0.452,0.058-0.632,0.126
				c-0.18,0.068-0.319,0.177-0.417,0.325c-0.098,0.148-0.129,0.361-0.092,0.639c0.068,0.251,0.181,0.435,0.338,0.554
				c0.157,0.119,0.339,0.19,0.547,0.215c0.208,0.025,0.428,0.014,0.663-0.034c0.235-0.048,0.465-0.11,0.69-0.188
				c0.226-0.078,0.437-0.16,0.632-0.246c0.196-0.086,0.358-0.157,0.485-0.212c0.059,0,0.109,0.021,0.15,0.065
				c0.041,0.043,0.061,0.095,0.061,0.154c-0.114,0.196-0.287,0.372-0.519,0.526c-0.232,0.155-0.495,0.28-0.786,0.376
				c-0.292,0.096-0.596,0.155-0.913,0.178c-0.317,0.023-0.614,0-0.892-0.068c-0.278-0.068-0.522-0.189-0.732-0.362
				C173.781,159.647,173.64,159.413,173.567,159.116z M175.98,156.758c-0.082,0-0.182,0.009-0.301,0.027
				c-0.119,0.018-0.232,0.05-0.342,0.096c-0.109,0.045-0.204,0.105-0.284,0.178c-0.08,0.073-0.12,0.167-0.12,0.28l1.695-0.28
				c-0.073-0.109-0.167-0.187-0.284-0.232C176.229,156.781,176.107,156.758,175.98,156.758z"/>
			<path d="M178.297,159.116c-0.041-0.369-0.006-0.729,0.106-1.08c0.112-0.351,0.28-0.661,0.506-0.93
				c0.226-0.269,0.498-0.482,0.817-0.639c0.319-0.157,0.668-0.232,1.046-0.222c0.064,0,0.149,0.009,0.256,0.027
				c0.107,0.018,0.221,0.047,0.342,0.085c0.121,0.039,0.239,0.088,0.355,0.147c0.116,0.059,0.219,0.13,0.308,0.212
				c0.089,0.082,0.156,0.174,0.202,0.277c0.045,0.103,0.057,0.218,0.034,0.345c-0.187,0.132-0.402,0.223-0.646,0.273
				c-0.244,0.05-0.492,0.085-0.745,0.106c-0.253,0.02-0.5,0.038-0.742,0.055c-0.242,0.016-0.452,0.058-0.632,0.126
				c-0.18,0.068-0.319,0.177-0.417,0.325c-0.098,0.148-0.129,0.361-0.092,0.639c0.068,0.251,0.181,0.435,0.338,0.554
				c0.157,0.119,0.339,0.19,0.547,0.215c0.208,0.025,0.428,0.014,0.663-0.034c0.235-0.048,0.465-0.11,0.69-0.188
				c0.226-0.078,0.436-0.16,0.632-0.246c0.196-0.086,0.358-0.157,0.485-0.212c0.059,0,0.109,0.021,0.15,0.065
				c0.041,0.043,0.062,0.095,0.062,0.154c-0.114,0.196-0.287,0.372-0.52,0.526c-0.232,0.155-0.495,0.28-0.786,0.376
				s-0.596,0.155-0.913,0.178c-0.317,0.023-0.614,0-0.892-0.068c-0.278-0.068-0.522-0.189-0.731-0.362
				C178.512,159.647,178.37,159.413,178.297,159.116z M180.71,156.758c-0.082,0-0.182,0.009-0.301,0.027
				c-0.119,0.018-0.232,0.05-0.342,0.096c-0.109,0.045-0.204,0.105-0.284,0.178c-0.08,0.073-0.12,0.167-0.12,0.28l1.695-0.28
				c-0.073-0.109-0.167-0.187-0.284-0.232S180.838,156.758,180.71,156.758z"/>
			<path d="M183.26,157.045c0-0.232-0.008-0.465-0.024-0.697c-0.016-0.232-0.034-0.465-0.055-0.697
				c-0.02-0.232-0.038-0.464-0.055-0.694c-0.016-0.23-0.024-0.461-0.024-0.694c0-0.1,0.025-0.171,0.075-0.212
				c0.05-0.041,0.121-0.061,0.212-0.061c0.009,0,0.033,0,0.072,0c0.039,0,0.063,0.002,0.072,0.007
				c0.059,0.242,0.102,0.495,0.127,0.759c0.025,0.264,0.047,0.543,0.065,0.837c0.018,0.294,0.037,0.602,0.055,0.923
				c0.018,0.321,0.05,0.657,0.096,1.008c0.082-0.041,0.201-0.115,0.356-0.222c0.155-0.107,0.327-0.229,0.516-0.366
				c0.189-0.137,0.386-0.279,0.591-0.427c0.205-0.148,0.4-0.283,0.585-0.403c0.184-0.121,0.349-0.221,0.492-0.301
				c0.144-0.08,0.247-0.12,0.311-0.12c0.05,0,0.09,0.011,0.12,0.034c0.03,0.023,0.061,0.064,0.092,0.123
				c-0.187,0.237-0.4,0.452-0.639,0.646c-0.239,0.194-0.486,0.379-0.742,0.557c-0.255,0.178-0.509,0.352-0.762,0.523
				c-0.253,0.171-0.484,0.352-0.694,0.543c0.378,0.105,0.739,0.212,1.084,0.321c0.344,0.109,0.677,0.211,0.998,0.304
				c0.321,0.093,0.638,0.173,0.95,0.239s0.626,0.108,0.94,0.126c0,0.068-0.003,0.128-0.007,0.178
				c-0.004,0.05-0.018,0.093-0.041,0.13c-0.023,0.037-0.058,0.065-0.106,0.085c-0.048,0.02-0.115,0.033-0.202,0.038h-0.068
				c-0.205-0.059-0.459-0.122-0.762-0.188c-0.303-0.066-0.626-0.134-0.971-0.205c-0.344-0.071-0.69-0.145-1.039-0.222
				c-0.349-0.078-0.669-0.155-0.961-0.232c0,0.059,0.006,0.146,0.017,0.26s0.02,0.237,0.024,0.369
				c0.004,0.132,0.001,0.263-0.01,0.393c-0.011,0.13-0.042,0.243-0.092,0.338s-0.123,0.164-0.219,0.205
				c-0.096,0.041-0.223,0.037-0.383-0.014L183.26,157.045z"/>
			<path d="M192.981,160.025c0.324-0.082,0.618-0.19,0.882-0.325c0.264-0.134,0.492-0.281,0.684-0.441
				c0.191-0.16,0.344-0.321,0.458-0.485c0.114-0.164,0.181-0.314,0.202-0.451c0.02-0.137-0.007-0.252-0.082-0.345
				c-0.075-0.093-0.208-0.147-0.396-0.161c-0.189-0.014-0.438,0.02-0.745,0.099c-0.308,0.08-0.68,0.225-1.118,0.434l-0.301-0.383
				c0.109-0.055,0.246-0.121,0.41-0.198c0.164-0.078,0.337-0.164,0.52-0.26c0.182-0.096,0.366-0.196,0.55-0.301
				c0.185-0.105,0.354-0.21,0.509-0.314c0.155-0.105,0.286-0.208,0.393-0.308c0.107-0.1,0.173-0.191,0.198-0.273
				c0.025-0.082,0.001-0.154-0.072-0.215c-0.073-0.061-0.21-0.108-0.41-0.14c-0.251,0-0.495,0.026-0.731,0.079
				c-0.237,0.052-0.473,0.109-0.708,0.171c-0.235,0.061-0.469,0.117-0.704,0.167c-0.235,0.05-0.473,0.075-0.714,0.075
				c0-0.032,0.001-0.071,0.003-0.116c0.002-0.045,0.009-0.092,0.021-0.14c0.011-0.048,0.03-0.091,0.055-0.13
				c0.025-0.039,0.063-0.067,0.113-0.085c0.242-0.059,0.496-0.122,0.762-0.188c0.267-0.066,0.533-0.126,0.8-0.181
				c0.267-0.055,0.525-0.097,0.776-0.127c0.251-0.03,0.479-0.038,0.684-0.024c0.205,0.014,0.379,0.056,0.523,0.126
				c0.144,0.071,0.243,0.177,0.297,0.318c0,0.15-0.044,0.296-0.13,0.438s-0.191,0.276-0.314,0.403
				c-0.123,0.128-0.252,0.247-0.386,0.359c-0.134,0.112-0.249,0.211-0.345,0.297c0.374,0.004,0.661,0.052,0.861,0.143
				c0.201,0.091,0.331,0.208,0.39,0.349c0.059,0.141,0.061,0.302,0.003,0.482c-0.057,0.18-0.154,0.361-0.291,0.544
				c-0.137,0.182-0.303,0.359-0.499,0.53s-0.402,0.32-0.619,0.448c-0.216,0.127-0.434,0.225-0.653,0.291
				c-0.219,0.066-0.417,0.085-0.595,0.058c-0.064,0-0.126-0.016-0.188-0.048C193.012,160.165,192.981,160.107,192.981,160.025z"/>
		</g>
		<g>
			<path d="M214.899,162.67c-0.064-0.091-0.143-0.23-0.239-0.417s-0.198-0.395-0.308-0.626c-0.109-0.23-0.225-0.468-0.345-0.714
				c-0.121-0.246-0.242-0.475-0.362-0.687c-0.121-0.212-0.237-0.393-0.349-0.544c-0.112-0.15-0.213-0.244-0.304-0.28
				c-0.068,0.105-0.147,0.254-0.236,0.448c-0.089,0.194-0.182,0.41-0.28,0.649c-0.098,0.239-0.196,0.491-0.294,0.755
				c-0.098,0.264-0.192,0.521-0.284,0.769c-0.091,0.249-0.174,0.48-0.249,0.694c-0.075,0.214-0.138,0.387-0.188,0.52l-0.533-0.027
				l-2.133-4.936c-0.027-0.059-0.026-0.109,0.004-0.15c0.03-0.041,0.069-0.072,0.12-0.092c0.05-0.02,0.105-0.035,0.164-0.044
				c0.059-0.009,0.105-0.014,0.137-0.014c0.086,0,0.151,0.018,0.195,0.055c0.043,0.037,0.078,0.083,0.102,0.14
				c0.025,0.057,0.047,0.12,0.065,0.188c0.018,0.068,0.041,0.134,0.068,0.198c0.068,0.15,0.15,0.333,0.246,0.547
				c0.096,0.214,0.196,0.438,0.301,0.67c0.105,0.232,0.212,0.465,0.321,0.697c0.109,0.232,0.211,0.444,0.304,0.636
				c0.093,0.191,0.175,0.351,0.246,0.478c0.071,0.127,0.12,0.205,0.147,0.232c0.237-0.592,0.441-1.094,0.612-1.504
				c0.171-0.41,0.317-0.748,0.438-1.015c0.121-0.267,0.218-0.473,0.291-0.619c0.073-0.146,0.131-0.253,0.174-0.321
				c0.044-0.068,0.075-0.109,0.096-0.123c0.021-0.014,0.035-0.02,0.045-0.02c0.073,0,0.158,0.045,0.256,0.137
				c0.098,0.091,0.201,0.213,0.308,0.366c0.107,0.153,0.219,0.327,0.335,0.523s0.232,0.4,0.349,0.612s0.228,0.423,0.335,0.632
				c0.107,0.209,0.208,0.404,0.301,0.584c0.093,0.18,0.177,0.336,0.249,0.468c0.073,0.132,0.132,0.225,0.178,0.28
				c0.073-0.232,0.144-0.488,0.212-0.766c0.068-0.278,0.133-0.567,0.195-0.868c0.062-0.301,0.12-0.607,0.174-0.919
				c0.055-0.312,0.107-0.616,0.157-0.913c0.05-0.296,0.096-0.58,0.137-0.851c0.041-0.271,0.08-0.519,0.116-0.742
				c0.141,0,0.251,0.014,0.328,0.041c0.078,0.027,0.133,0.066,0.168,0.116c0.034,0.05,0.055,0.109,0.061,0.178
				c0.007,0.068,0.01,0.141,0.01,0.219c0.004-0.018-0.003,0.057-0.024,0.226c-0.021,0.169-0.052,0.403-0.096,0.704
				c-0.044,0.301-0.097,0.65-0.161,1.049c-0.064,0.399-0.137,0.817-0.219,1.254c-0.082,0.438-0.173,0.878-0.273,1.323
				c-0.1,0.444-0.208,0.862-0.321,1.254c-0.114,0.078-0.208,0.119-0.284,0.123c-0.075,0.004-0.139-0.017-0.191-0.065
				c-0.052-0.048-0.099-0.117-0.14-0.208C214.988,162.879,214.944,162.779,214.899,162.67z"/>
			<path d="M217.073,162.116c-0.041-0.369-0.006-0.729,0.106-1.08c0.112-0.351,0.28-0.661,0.506-0.93
				c0.226-0.269,0.498-0.482,0.817-0.639c0.319-0.157,0.667-0.232,1.046-0.222c0.064,0,0.149,0.009,0.256,0.027
				c0.107,0.018,0.221,0.047,0.342,0.085c0.121,0.039,0.239,0.088,0.356,0.147c0.116,0.059,0.219,0.13,0.308,0.212
				s0.156,0.174,0.202,0.277c0.045,0.103,0.057,0.218,0.034,0.345c-0.187,0.132-0.402,0.223-0.646,0.273
				c-0.244,0.05-0.492,0.085-0.745,0.106c-0.253,0.02-0.5,0.038-0.742,0.055c-0.242,0.016-0.452,0.058-0.632,0.126
				c-0.18,0.068-0.319,0.177-0.417,0.325c-0.098,0.148-0.129,0.361-0.092,0.639c0.068,0.251,0.181,0.435,0.338,0.554
				c0.157,0.119,0.339,0.19,0.547,0.215c0.208,0.025,0.428,0.014,0.663-0.034c0.235-0.048,0.465-0.11,0.69-0.188
				c0.226-0.078,0.437-0.16,0.632-0.246c0.196-0.086,0.358-0.157,0.485-0.212c0.059,0,0.109,0.021,0.15,0.065
				c0.041,0.043,0.061,0.095,0.061,0.154c-0.114,0.196-0.287,0.372-0.52,0.526c-0.232,0.155-0.495,0.28-0.786,0.376
				c-0.292,0.096-0.596,0.155-0.913,0.178c-0.317,0.023-0.614,0-0.892-0.068c-0.278-0.068-0.522-0.189-0.731-0.362
				C217.287,162.647,217.145,162.413,217.073,162.116z M219.486,159.758c-0.082,0-0.182,0.009-0.301,0.027
				c-0.119,0.018-0.232,0.05-0.342,0.096c-0.109,0.045-0.204,0.105-0.284,0.178c-0.08,0.073-0.12,0.167-0.12,0.28l1.695-0.28
				c-0.073-0.109-0.168-0.187-0.284-0.232S219.613,159.758,219.486,159.758z"/>
			<path d="M221.803,162.116c-0.041-0.369-0.006-0.729,0.106-1.08c0.112-0.351,0.28-0.661,0.506-0.93
				c0.226-0.269,0.498-0.482,0.817-0.639c0.319-0.157,0.668-0.232,1.046-0.222c0.064,0,0.149,0.009,0.256,0.027
				c0.107,0.018,0.221,0.047,0.342,0.085c0.121,0.039,0.239,0.088,0.355,0.147c0.116,0.059,0.219,0.13,0.308,0.212
				c0.089,0.082,0.156,0.174,0.202,0.277c0.045,0.103,0.057,0.218,0.034,0.345c-0.187,0.132-0.402,0.223-0.646,0.273
				c-0.244,0.05-0.492,0.085-0.745,0.106c-0.253,0.02-0.5,0.038-0.742,0.055c-0.242,0.016-0.452,0.058-0.632,0.126
				c-0.18,0.068-0.319,0.177-0.417,0.325c-0.098,0.148-0.129,0.361-0.092,0.639c0.068,0.251,0.181,0.435,0.338,0.554
				c0.157,0.119,0.339,0.19,0.547,0.215c0.208,0.025,0.428,0.014,0.663-0.034c0.235-0.048,0.465-0.11,0.69-0.188
				c0.226-0.078,0.437-0.16,0.632-0.246c0.196-0.086,0.358-0.157,0.485-0.212c0.059,0,0.109,0.021,0.15,0.065
				c0.041,0.043,0.062,0.095,0.062,0.154c-0.114,0.196-0.287,0.372-0.52,0.526c-0.232,0.155-0.495,0.28-0.786,0.376
				c-0.292,0.096-0.596,0.155-0.913,0.178c-0.317,0.023-0.614,0-0.892-0.068c-0.278-0.068-0.522-0.189-0.731-0.362
				C222.018,162.647,221.876,162.413,221.803,162.116z M224.216,159.758c-0.082,0-0.182,0.009-0.301,0.027
				c-0.119,0.018-0.232,0.05-0.342,0.096c-0.109,0.045-0.204,0.105-0.284,0.178c-0.08,0.073-0.12,0.167-0.12,0.28l1.695-0.28
				c-0.073-0.109-0.167-0.187-0.284-0.232C224.466,159.781,224.344,159.758,224.216,159.758z"/>
			<path d="M226.766,160.045c0-0.232-0.008-0.465-0.024-0.697c-0.016-0.232-0.034-0.465-0.055-0.697
				c-0.02-0.232-0.039-0.464-0.055-0.694c-0.016-0.23-0.024-0.461-0.024-0.694c0-0.1,0.025-0.171,0.075-0.212
				c0.05-0.041,0.121-0.061,0.212-0.061c0.009,0,0.033,0,0.072,0c0.039,0,0.063,0.002,0.072,0.007
				c0.059,0.242,0.102,0.495,0.126,0.759c0.025,0.264,0.047,0.543,0.065,0.837c0.018,0.294,0.037,0.602,0.055,0.923
				c0.018,0.321,0.05,0.657,0.096,1.008c0.082-0.041,0.201-0.115,0.355-0.222c0.155-0.107,0.327-0.229,0.516-0.366
				c0.189-0.137,0.386-0.279,0.591-0.427c0.205-0.148,0.4-0.283,0.585-0.403c0.185-0.121,0.349-0.221,0.492-0.301
				s0.247-0.12,0.311-0.12c0.05,0,0.09,0.011,0.12,0.034c0.03,0.023,0.061,0.064,0.092,0.123c-0.187,0.237-0.4,0.452-0.639,0.646
				c-0.239,0.194-0.486,0.379-0.742,0.557c-0.255,0.178-0.509,0.352-0.762,0.523s-0.484,0.352-0.694,0.543
				c0.379,0.105,0.739,0.212,1.084,0.321c0.344,0.109,0.677,0.211,0.998,0.304c0.321,0.093,0.638,0.173,0.95,0.239
				c0.312,0.066,0.626,0.108,0.94,0.126c0,0.068-0.002,0.128-0.007,0.178c-0.004,0.05-0.018,0.093-0.041,0.13
				c-0.023,0.037-0.058,0.065-0.106,0.085c-0.048,0.02-0.115,0.033-0.202,0.038h-0.068c-0.205-0.059-0.459-0.122-0.762-0.188
				c-0.303-0.066-0.626-0.134-0.971-0.205c-0.344-0.071-0.69-0.145-1.039-0.222c-0.349-0.078-0.669-0.155-0.96-0.232
				c0,0.059,0.006,0.146,0.017,0.26c0.011,0.114,0.02,0.237,0.024,0.369c0.004,0.132,0.001,0.263-0.01,0.393
				c-0.011,0.13-0.042,0.243-0.092,0.338s-0.123,0.164-0.219,0.205s-0.223,0.037-0.383-0.014L226.766,160.045z"/>
			<path d="M238.442,161.569c-0.237,0-0.443,0-0.619,0c-0.175,0-0.346-0.001-0.513-0.003c-0.167-0.002-0.337-0.003-0.513-0.003
				c-0.175,0-0.382,0-0.619,0c-0.037,0-0.074-0.002-0.113-0.007c-0.039-0.004-0.075-0.014-0.109-0.027
				c-0.034-0.014-0.062-0.034-0.082-0.062c-0.021-0.027-0.031-0.066-0.031-0.116c0.228-0.292,0.451-0.585,0.67-0.882
				c0.219-0.296,0.43-0.575,0.632-0.837c0.203-0.262,0.396-0.496,0.578-0.701c0.182-0.205,0.351-0.36,0.506-0.465
				c0.155-0.105,0.293-0.149,0.414-0.133c0.121,0.016,0.222,0.113,0.304,0.29c0.082,0.178,0.14,0.447,0.174,0.807
				c0.034,0.36,0.042,0.834,0.024,1.422l1.887-0.027c0,0.023-0.002,0.058-0.007,0.106c-0.004,0.048-0.014,0.096-0.027,0.143
				c-0.014,0.048-0.03,0.09-0.048,0.126c-0.018,0.037-0.041,0.057-0.068,0.062l-1.586,0.13c-0.041,0.109-0.073,0.244-0.096,0.403
				c-0.023,0.16-0.041,0.327-0.055,0.502c-0.014,0.175-0.023,0.35-0.027,0.523c-0.004,0.173-0.007,0.331-0.007,0.472
				c-0.037,0-0.091,0.008-0.164,0.024c-0.073,0.016-0.147,0.03-0.222,0.041c-0.075,0.011-0.144,0.013-0.205,0.003
				c-0.061-0.009-0.099-0.041-0.113-0.096L238.442,161.569z M238.442,159.122c-0.123,0.168-0.274,0.334-0.455,0.496
				c-0.18,0.162-0.355,0.324-0.526,0.485c-0.171,0.162-0.325,0.326-0.461,0.492s-0.223,0.338-0.26,0.516
				c0.273,0.004,0.55-0.01,0.831-0.044c0.28-0.034,0.571-0.067,0.872-0.099V159.122z"/>
		</g>
		<g>
			<path d="M259.038,162.669c-0.064-0.091-0.144-0.23-0.239-0.417c-0.096-0.187-0.198-0.395-0.308-0.625
				c-0.109-0.23-0.225-0.468-0.346-0.714c-0.12-0.246-0.241-0.475-0.362-0.687c-0.12-0.212-0.236-0.393-0.349-0.544
				c-0.111-0.15-0.213-0.244-0.304-0.28c-0.068,0.105-0.147,0.254-0.236,0.448c-0.089,0.194-0.182,0.41-0.28,0.649
				c-0.098,0.239-0.195,0.491-0.294,0.755c-0.098,0.264-0.192,0.521-0.283,0.769c-0.092,0.249-0.175,0.479-0.25,0.694
				c-0.075,0.214-0.138,0.387-0.188,0.52l-0.533-0.027l-2.133-4.936c-0.027-0.059-0.026-0.109,0.003-0.15
				c0.03-0.041,0.069-0.072,0.12-0.092c0.05-0.021,0.104-0.035,0.164-0.044c0.059-0.009,0.105-0.014,0.137-0.014
				c0.086,0,0.151,0.018,0.194,0.055c0.044,0.037,0.078,0.083,0.103,0.14c0.025,0.057,0.047,0.12,0.065,0.188
				c0.018,0.068,0.041,0.134,0.068,0.198c0.068,0.15,0.15,0.333,0.246,0.547c0.096,0.214,0.195,0.438,0.301,0.67
				c0.104,0.232,0.212,0.465,0.321,0.697c0.109,0.232,0.211,0.444,0.304,0.636c0.094,0.191,0.176,0.351,0.246,0.479
				c0.071,0.128,0.12,0.205,0.147,0.232c0.236-0.592,0.44-1.094,0.611-1.504c0.171-0.41,0.317-0.749,0.437-1.015
				c0.121-0.267,0.218-0.473,0.291-0.619c0.072-0.146,0.131-0.253,0.174-0.321c0.044-0.068,0.075-0.109,0.096-0.123
				s0.035-0.02,0.045-0.02c0.072,0,0.158,0.045,0.256,0.137c0.099,0.091,0.201,0.213,0.308,0.366
				c0.107,0.153,0.219,0.327,0.335,0.523c0.116,0.196,0.232,0.4,0.349,0.612c0.116,0.212,0.229,0.423,0.335,0.632
				c0.108,0.21,0.208,0.404,0.301,0.585c0.094,0.18,0.177,0.336,0.25,0.468c0.072,0.132,0.132,0.226,0.178,0.28
				c0.072-0.232,0.143-0.488,0.212-0.766c0.068-0.278,0.133-0.567,0.194-0.868c0.062-0.301,0.12-0.607,0.175-0.919
				c0.055-0.312,0.107-0.616,0.157-0.913c0.05-0.296,0.096-0.58,0.137-0.851c0.041-0.271,0.079-0.518,0.116-0.742
				c0.141,0,0.25,0.014,0.328,0.041c0.077,0.027,0.133,0.066,0.167,0.116c0.034,0.05,0.055,0.109,0.061,0.178
				c0.007,0.068,0.011,0.141,0.011,0.219c0.004-0.018-0.004,0.057-0.025,0.225c-0.021,0.169-0.052,0.403-0.096,0.704
				c-0.043,0.301-0.097,0.65-0.16,1.049c-0.064,0.399-0.137,0.817-0.219,1.254c-0.082,0.438-0.174,0.878-0.273,1.323
				c-0.101,0.444-0.208,0.862-0.321,1.254c-0.114,0.078-0.209,0.119-0.284,0.123c-0.075,0.004-0.139-0.017-0.191-0.065
				c-0.052-0.048-0.099-0.117-0.14-0.208C259.127,162.879,259.083,162.779,259.038,162.669z"/>
			<path d="M261.212,162.116c-0.041-0.369-0.006-0.729,0.105-1.08c0.112-0.351,0.28-0.661,0.506-0.93
				c0.226-0.269,0.498-0.482,0.817-0.639c0.318-0.157,0.667-0.231,1.046-0.222c0.064,0,0.149,0.009,0.256,0.027
				c0.107,0.018,0.222,0.047,0.342,0.085c0.121,0.039,0.239,0.088,0.355,0.147c0.116,0.059,0.219,0.13,0.308,0.212
				c0.089,0.082,0.156,0.174,0.202,0.277c0.045,0.103,0.057,0.218,0.034,0.345c-0.188,0.132-0.402,0.223-0.647,0.273
				c-0.243,0.05-0.492,0.085-0.745,0.106c-0.253,0.02-0.5,0.038-0.741,0.055c-0.242,0.016-0.452,0.058-0.633,0.126
				c-0.18,0.068-0.318,0.177-0.417,0.325c-0.098,0.148-0.129,0.361-0.092,0.639c0.068,0.251,0.181,0.435,0.338,0.554
				c0.157,0.119,0.34,0.19,0.547,0.215c0.208,0.025,0.429,0.014,0.663-0.034c0.235-0.048,0.465-0.11,0.69-0.188
				c0.225-0.078,0.437-0.16,0.633-0.246c0.195-0.087,0.357-0.157,0.485-0.212c0.059,0,0.109,0.021,0.15,0.065
				c0.041,0.044,0.062,0.095,0.062,0.154c-0.114,0.196-0.287,0.372-0.52,0.526c-0.232,0.155-0.495,0.28-0.786,0.376
				c-0.292,0.096-0.596,0.155-0.913,0.178c-0.316,0.023-0.614,0-0.892-0.068c-0.278-0.068-0.522-0.189-0.732-0.362
				C261.426,162.646,261.284,162.412,261.212,162.116z M263.625,159.757c-0.082,0-0.183,0.009-0.301,0.027
				c-0.119,0.018-0.232,0.05-0.342,0.096s-0.204,0.105-0.284,0.178c-0.079,0.073-0.119,0.166-0.119,0.28l1.695-0.28
				c-0.073-0.109-0.168-0.187-0.284-0.232C263.874,159.78,263.752,159.757,263.625,159.757z"/>
			<path d="M265.942,162.116c-0.041-0.369-0.006-0.729,0.105-1.08c0.112-0.351,0.28-0.661,0.506-0.93
				c0.226-0.269,0.498-0.482,0.817-0.639c0.318-0.157,0.667-0.231,1.046-0.222c0.064,0,0.149,0.009,0.256,0.027
				c0.107,0.018,0.222,0.047,0.342,0.085c0.121,0.039,0.239,0.088,0.355,0.147c0.116,0.059,0.219,0.13,0.308,0.212
				c0.089,0.082,0.156,0.174,0.202,0.277c0.045,0.103,0.057,0.218,0.034,0.345c-0.188,0.132-0.402,0.223-0.647,0.273
				c-0.243,0.05-0.492,0.085-0.745,0.106c-0.253,0.02-0.5,0.038-0.741,0.055c-0.242,0.016-0.452,0.058-0.633,0.126
				c-0.18,0.068-0.318,0.177-0.417,0.325c-0.098,0.148-0.129,0.361-0.092,0.639c0.068,0.251,0.181,0.435,0.338,0.554
				c0.157,0.119,0.34,0.19,0.547,0.215c0.208,0.025,0.429,0.014,0.663-0.034c0.235-0.048,0.465-0.11,0.69-0.188
				c0.226-0.078,0.437-0.16,0.633-0.246c0.195-0.087,0.358-0.157,0.485-0.212c0.059,0,0.109,0.021,0.15,0.065
				c0.041,0.044,0.062,0.095,0.062,0.154c-0.114,0.196-0.287,0.372-0.52,0.526c-0.232,0.155-0.495,0.28-0.786,0.376
				c-0.292,0.096-0.596,0.155-0.913,0.178c-0.316,0.023-0.614,0-0.892-0.068c-0.278-0.068-0.522-0.189-0.732-0.362
				C266.156,162.646,266.015,162.412,265.942,162.116z M268.355,159.757c-0.082,0-0.183,0.009-0.301,0.027
				c-0.119,0.018-0.232,0.05-0.342,0.096s-0.204,0.105-0.284,0.178c-0.079,0.073-0.119,0.166-0.119,0.28l1.695-0.28
				c-0.073-0.109-0.168-0.187-0.284-0.232C268.604,159.78,268.482,159.757,268.355,159.757z"/>
			<path d="M270.905,160.044c0-0.232-0.008-0.465-0.024-0.697c-0.016-0.232-0.034-0.465-0.055-0.697
				c-0.021-0.232-0.038-0.464-0.055-0.694c-0.016-0.23-0.023-0.462-0.023-0.694c0-0.1,0.025-0.171,0.075-0.212
				c0.05-0.041,0.12-0.061,0.212-0.061c0.009,0,0.033,0,0.071,0c0.039,0,0.063,0.002,0.072,0.007
				c0.059,0.242,0.102,0.495,0.126,0.759c0.025,0.264,0.047,0.544,0.065,0.837c0.018,0.294,0.036,0.602,0.055,0.923
				c0.018,0.321,0.05,0.657,0.096,1.008c0.082-0.041,0.2-0.115,0.355-0.222c0.154-0.107,0.327-0.229,0.516-0.366
				c0.189-0.137,0.387-0.279,0.592-0.427c0.205-0.148,0.399-0.283,0.584-0.403c0.185-0.121,0.349-0.221,0.492-0.301
				c0.143-0.08,0.247-0.12,0.311-0.12c0.05,0,0.09,0.011,0.119,0.034c0.03,0.023,0.061,0.064,0.093,0.123
				c-0.188,0.237-0.4,0.452-0.64,0.646c-0.239,0.194-0.486,0.379-0.741,0.557c-0.256,0.178-0.51,0.352-0.763,0.523
				c-0.253,0.171-0.484,0.352-0.693,0.543c0.378,0.105,0.739,0.212,1.083,0.321c0.345,0.109,0.677,0.211,0.998,0.304
				c0.321,0.093,0.639,0.173,0.95,0.239c0.313,0.066,0.626,0.108,0.941,0.126c0,0.068-0.003,0.127-0.007,0.178
				c-0.005,0.05-0.019,0.093-0.041,0.13c-0.023,0.037-0.059,0.065-0.106,0.085c-0.048,0.02-0.115,0.033-0.201,0.038h-0.068
				c-0.205-0.059-0.459-0.122-0.763-0.188c-0.303-0.066-0.626-0.134-0.971-0.205c-0.344-0.071-0.69-0.145-1.039-0.222
				c-0.349-0.078-0.669-0.155-0.96-0.232c0,0.059,0.006,0.146,0.017,0.26c0.012,0.114,0.02,0.237,0.024,0.369
				c0.004,0.132,0.001,0.263-0.011,0.393c-0.011,0.13-0.042,0.243-0.092,0.338c-0.051,0.096-0.123,0.164-0.219,0.205
				c-0.096,0.041-0.224,0.037-0.383-0.014L270.905,160.044z"/>
			<path d="M280.428,162.963c0-0.119,0.044-0.228,0.133-0.328c0.089-0.1,0.192-0.15,0.312-0.15v0.15
				c0.137,0,0.291-0.003,0.465-0.007c0.173-0.004,0.35-0.02,0.529-0.044c0.181-0.025,0.355-0.063,0.526-0.113
				c0.171-0.05,0.322-0.121,0.455-0.212c0.132-0.091,0.239-0.206,0.321-0.345c0.082-0.139,0.123-0.311,0.123-0.516
				c0-0.196-0.052-0.352-0.154-0.468s-0.229-0.203-0.379-0.26c-0.15-0.057-0.314-0.093-0.489-0.109
				c-0.175-0.016-0.338-0.024-0.488-0.024c-0.16,0-0.313,0.023-0.458,0.068c-0.146,0.045-0.291,0.096-0.434,0.15
				c-0.144,0.055-0.287,0.105-0.431,0.15c-0.144,0.045-0.29,0.068-0.44,0.068c-0.041,0-0.086,0-0.134,0
				c-0.048,0-0.093-0.006-0.137-0.017c-0.043-0.011-0.079-0.031-0.109-0.058c-0.029-0.027-0.044-0.071-0.044-0.13
				c0-0.009,0.001-0.025,0.003-0.048c0.003-0.023,0.004-0.037,0.004-0.041c0.009-0.064,0.021-0.162,0.034-0.294
				c0.014-0.132,0.029-0.283,0.048-0.451c0.018-0.169,0.037-0.345,0.058-0.53c0.02-0.185,0.041-0.361,0.062-0.53
				c0.021-0.169,0.038-0.32,0.052-0.455c0.014-0.134,0.024-0.233,0.034-0.297c0.022-0.073,0.059-0.115,0.109-0.126
				c0.05-0.011,0.106-0.017,0.171-0.017c0.109,0,0.182,0.021,0.219,0.062c0.036,0.041,0.056,0.095,0.058,0.161
				c0.003,0.066-0.004,0.139-0.021,0.219c-0.016,0.08-0.023,0.156-0.023,0.229c0.4,0,0.8-0.042,1.196-0.126
				c0.397-0.084,0.79-0.178,1.183-0.28c0.392-0.103,0.783-0.197,1.176-0.284c0.392-0.087,0.788-0.13,1.189-0.13
				c0.059,0,0.113,0.007,0.164,0.02c0.05,0.014,0.086,0.059,0.109,0.137c-0.019,0.068-0.058,0.126-0.116,0.174
				c-0.06,0.048-0.155,0.093-0.287,0.137c-0.133,0.043-0.313,0.09-0.54,0.14c-0.228,0.05-0.522,0.113-0.882,0.188
				c-0.36,0.075-0.798,0.167-1.313,0.277c-0.516,0.109-1.124,0.244-1.825,0.403v1.094c0.187-0.018,0.397-0.045,0.629-0.082
				c0.232-0.037,0.471-0.066,0.714-0.089c0.244-0.023,0.483-0.03,0.718-0.021c0.235,0.009,0.448,0.051,0.64,0.127
				c0.191,0.075,0.35,0.19,0.475,0.345c0.126,0.155,0.202,0.367,0.23,0.636c0,0.242-0.046,0.456-0.137,0.643
				c-0.092,0.187-0.213,0.352-0.366,0.496c-0.152,0.144-0.33,0.264-0.533,0.362c-0.202,0.098-0.414,0.179-0.636,0.243
				c-0.221,0.064-0.444,0.109-0.67,0.137c-0.226,0.027-0.44,0.041-0.645,0.041c-0.16,0-0.273-0.016-0.342-0.048
				C280.462,163.157,280.428,163.082,280.428,162.963z"/>
		</g>
		<g>
			<path d="M303.648,161.669c-0.064-0.091-0.144-0.23-0.239-0.417c-0.096-0.187-0.198-0.395-0.308-0.625
				c-0.109-0.23-0.225-0.468-0.346-0.714c-0.12-0.246-0.241-0.475-0.362-0.687c-0.12-0.212-0.236-0.393-0.349-0.544
				c-0.111-0.15-0.213-0.244-0.304-0.28c-0.068,0.105-0.147,0.254-0.236,0.448c-0.089,0.194-0.182,0.41-0.28,0.649
				c-0.098,0.239-0.195,0.491-0.294,0.755c-0.098,0.264-0.192,0.521-0.283,0.769c-0.092,0.249-0.175,0.479-0.25,0.694
				c-0.075,0.214-0.138,0.387-0.188,0.52l-0.533-0.027l-2.133-4.936c-0.027-0.059-0.026-0.109,0.003-0.15
				c0.03-0.041,0.069-0.072,0.12-0.092c0.05-0.021,0.104-0.035,0.164-0.044c0.059-0.009,0.104-0.014,0.137-0.014
				c0.086,0,0.151,0.018,0.194,0.055c0.044,0.037,0.078,0.083,0.103,0.14c0.025,0.057,0.047,0.12,0.065,0.188
				c0.018,0.068,0.041,0.134,0.068,0.198c0.068,0.15,0.15,0.333,0.246,0.547c0.096,0.214,0.195,0.438,0.301,0.67
				c0.105,0.232,0.212,0.465,0.321,0.697c0.109,0.232,0.211,0.444,0.304,0.636c0.094,0.191,0.176,0.351,0.246,0.479
				c0.071,0.128,0.12,0.205,0.147,0.232c0.236-0.592,0.44-1.094,0.611-1.504c0.171-0.41,0.317-0.749,0.438-1.015
				c0.121-0.267,0.218-0.473,0.291-0.619c0.072-0.146,0.131-0.253,0.174-0.321c0.044-0.068,0.075-0.109,0.096-0.123
				c0.021-0.014,0.035-0.02,0.045-0.02c0.072,0,0.158,0.045,0.256,0.137c0.099,0.091,0.201,0.213,0.308,0.366
				c0.108,0.153,0.219,0.327,0.335,0.523c0.116,0.196,0.232,0.4,0.349,0.612c0.116,0.212,0.229,0.423,0.335,0.632
				c0.107,0.21,0.208,0.404,0.301,0.585c0.094,0.18,0.177,0.336,0.25,0.468c0.072,0.132,0.132,0.226,0.178,0.28
				c0.072-0.232,0.144-0.488,0.212-0.766c0.068-0.278,0.133-0.567,0.194-0.868c0.061-0.301,0.12-0.607,0.175-0.919
				c0.055-0.312,0.106-0.616,0.157-0.913c0.05-0.296,0.096-0.58,0.137-0.851c0.041-0.271,0.079-0.518,0.116-0.742
				c0.141,0,0.25,0.014,0.328,0.041c0.077,0.027,0.133,0.066,0.167,0.116c0.034,0.05,0.055,0.109,0.062,0.178
				c0.007,0.068,0.011,0.141,0.011,0.219c0.004-0.018-0.004,0.057-0.024,0.225c-0.021,0.169-0.052,0.403-0.096,0.704
				c-0.043,0.301-0.097,0.65-0.16,1.049c-0.064,0.399-0.137,0.817-0.219,1.254s-0.174,0.878-0.273,1.323
				c-0.1,0.444-0.208,0.862-0.321,1.254c-0.114,0.078-0.209,0.119-0.284,0.123c-0.075,0.004-0.139-0.017-0.191-0.065
				c-0.052-0.048-0.099-0.117-0.14-0.208C303.737,161.879,303.693,161.779,303.648,161.669z"/>
			<path d="M305.822,161.116c-0.041-0.369-0.006-0.729,0.105-1.08c0.112-0.351,0.28-0.661,0.506-0.93
				c0.226-0.269,0.498-0.482,0.817-0.639c0.318-0.157,0.667-0.231,1.046-0.222c0.063,0,0.149,0.009,0.256,0.027
				c0.107,0.018,0.222,0.047,0.342,0.085c0.121,0.039,0.239,0.088,0.355,0.147c0.116,0.059,0.219,0.13,0.308,0.212
				c0.089,0.082,0.156,0.174,0.202,0.277c0.045,0.103,0.057,0.218,0.034,0.345c-0.188,0.132-0.402,0.223-0.646,0.273
				c-0.243,0.05-0.492,0.085-0.745,0.106c-0.253,0.02-0.5,0.038-0.741,0.055c-0.242,0.016-0.452,0.058-0.633,0.126
				c-0.18,0.068-0.318,0.177-0.417,0.325c-0.098,0.148-0.129,0.361-0.092,0.639c0.068,0.251,0.181,0.435,0.338,0.554
				c0.157,0.119,0.34,0.19,0.547,0.215c0.208,0.025,0.429,0.014,0.663-0.034c0.235-0.048,0.465-0.11,0.69-0.188
				c0.226-0.078,0.437-0.16,0.633-0.246c0.195-0.087,0.357-0.157,0.485-0.212c0.059,0,0.109,0.021,0.15,0.065
				c0.041,0.044,0.061,0.095,0.061,0.154c-0.114,0.196-0.287,0.372-0.52,0.526c-0.232,0.155-0.495,0.28-0.786,0.376
				c-0.292,0.096-0.596,0.155-0.913,0.178c-0.316,0.023-0.614,0-0.892-0.068c-0.278-0.068-0.522-0.189-0.731-0.362
				C306.036,161.646,305.895,161.412,305.822,161.116z M308.235,158.757c-0.082,0-0.183,0.009-0.301,0.027
				c-0.119,0.018-0.233,0.05-0.342,0.096c-0.109,0.045-0.204,0.105-0.284,0.178c-0.079,0.073-0.119,0.166-0.119,0.28l1.695-0.28
				c-0.073-0.109-0.168-0.187-0.284-0.232C308.484,158.78,308.362,158.757,308.235,158.757z"/>
			<path d="M310.553,161.116c-0.041-0.369-0.006-0.729,0.105-1.08c0.112-0.351,0.28-0.661,0.506-0.93
				c0.225-0.269,0.498-0.482,0.817-0.639c0.318-0.157,0.667-0.231,1.046-0.222c0.064,0,0.15,0.009,0.256,0.027
				c0.107,0.018,0.222,0.047,0.342,0.085c0.121,0.039,0.239,0.088,0.355,0.147c0.116,0.059,0.219,0.13,0.308,0.212
				c0.089,0.082,0.156,0.174,0.202,0.277c0.045,0.103,0.057,0.218,0.034,0.345c-0.188,0.132-0.402,0.223-0.646,0.273
				c-0.243,0.05-0.492,0.085-0.745,0.106c-0.253,0.02-0.5,0.038-0.741,0.055c-0.242,0.016-0.452,0.058-0.633,0.126
				c-0.18,0.068-0.318,0.177-0.417,0.325c-0.098,0.148-0.129,0.361-0.092,0.639c0.068,0.251,0.181,0.435,0.338,0.554
				c0.157,0.119,0.34,0.19,0.547,0.215c0.208,0.025,0.429,0.014,0.663-0.034c0.235-0.048,0.465-0.11,0.69-0.188
				c0.226-0.078,0.437-0.16,0.633-0.246c0.195-0.087,0.357-0.157,0.485-0.212c0.059,0,0.109,0.021,0.15,0.065
				c0.041,0.044,0.062,0.095,0.062,0.154c-0.114,0.196-0.287,0.372-0.52,0.526c-0.232,0.155-0.495,0.28-0.786,0.376
				c-0.292,0.096-0.596,0.155-0.913,0.178c-0.316,0.023-0.614,0-0.892-0.068c-0.278-0.068-0.523-0.189-0.731-0.362
				C310.767,161.646,310.625,161.412,310.553,161.116z M312.966,158.757c-0.082,0-0.183,0.009-0.301,0.027
				c-0.119,0.018-0.232,0.05-0.342,0.096c-0.109,0.045-0.204,0.105-0.284,0.178c-0.079,0.073-0.119,0.166-0.119,0.28l1.695-0.28
				c-0.073-0.109-0.168-0.187-0.284-0.232C313.215,158.78,313.093,158.757,312.966,158.757z"/>
			<path d="M315.516,159.044c0-0.232-0.008-0.465-0.024-0.697c-0.016-0.232-0.034-0.465-0.055-0.697
				c-0.021-0.232-0.038-0.464-0.055-0.694c-0.016-0.23-0.023-0.462-0.023-0.694c0-0.1,0.024-0.171,0.075-0.212
				c0.05-0.041,0.12-0.061,0.212-0.061c0.009,0,0.033,0,0.071,0c0.039,0,0.063,0.002,0.072,0.007
				c0.059,0.242,0.102,0.495,0.126,0.759c0.025,0.264,0.047,0.544,0.065,0.837c0.017,0.294,0.036,0.602,0.055,0.923
				c0.018,0.321,0.05,0.657,0.096,1.008c0.082-0.041,0.2-0.115,0.355-0.222c0.154-0.107,0.327-0.229,0.516-0.366
				c0.189-0.137,0.387-0.279,0.592-0.427c0.205-0.148,0.399-0.283,0.584-0.403c0.185-0.121,0.349-0.221,0.492-0.301
				c0.144-0.08,0.247-0.12,0.311-0.12c0.05,0,0.09,0.011,0.119,0.034c0.03,0.023,0.061,0.064,0.093,0.123
				c-0.188,0.237-0.4,0.452-0.64,0.646c-0.239,0.194-0.486,0.379-0.741,0.557c-0.256,0.178-0.51,0.352-0.763,0.523
				s-0.484,0.352-0.693,0.543c0.378,0.105,0.739,0.212,1.083,0.321c0.345,0.109,0.677,0.211,0.998,0.304
				c0.321,0.093,0.639,0.173,0.95,0.239c0.313,0.066,0.626,0.108,0.94,0.126c0,0.068-0.003,0.127-0.007,0.178
				c-0.005,0.05-0.019,0.093-0.041,0.13c-0.023,0.037-0.059,0.065-0.107,0.085c-0.048,0.02-0.115,0.033-0.201,0.038h-0.068
				c-0.205-0.059-0.459-0.122-0.763-0.188c-0.303-0.066-0.626-0.134-0.971-0.205c-0.344-0.071-0.69-0.145-1.039-0.222
				c-0.349-0.078-0.669-0.155-0.96-0.232c0,0.059,0.006,0.146,0.017,0.26c0.012,0.114,0.02,0.237,0.024,0.369
				c0.004,0.132,0.001,0.263-0.011,0.393c-0.011,0.13-0.042,0.243-0.092,0.338c-0.051,0.096-0.123,0.164-0.219,0.205
				s-0.224,0.037-0.383-0.014L315.516,159.044z"/>
			<path d="M324.156,159.735c0-0.223,0.037-0.458,0.112-0.704c0.075-0.246,0.179-0.486,0.311-0.721
				c0.132-0.235,0.288-0.458,0.468-0.67c0.181-0.212,0.376-0.399,0.588-0.561c0.212-0.162,0.435-0.29,0.667-0.383
				c0.232-0.093,0.467-0.14,0.704-0.14c0.082,0,0.15,0.015,0.205,0.044c0.055,0.03,0.077,0.113,0.068,0.249
				c-0.342,0.064-0.66,0.189-0.954,0.376c-0.294,0.187-0.549,0.416-0.766,0.687c-0.216,0.271-0.386,0.572-0.509,0.902
				c-0.123,0.331-0.185,0.669-0.185,1.015c0,0.086,0.021,0.209,0.061,0.369c0.041,0.16,0.097,0.317,0.167,0.472
				c0.071,0.155,0.154,0.29,0.25,0.407c0.096,0.116,0.198,0.174,0.308,0.174c0.091-0.073,0.195-0.17,0.315-0.29
				c0.118-0.121,0.25-0.249,0.396-0.386c0.146-0.137,0.304-0.276,0.475-0.417c0.171-0.141,0.353-0.269,0.544-0.383
				c0.191-0.114,0.393-0.206,0.605-0.277c0.212-0.071,0.432-0.108,0.66-0.113c0.1,0,0.188,0.024,0.267,0.072
				c0.077,0.048,0.142,0.11,0.194,0.188c0.053,0.078,0.093,0.164,0.12,0.26c0.027,0.096,0.041,0.189,0.041,0.28
				c-0.051,0.365-0.162,0.68-0.335,0.947c-0.174,0.267-0.386,0.486-0.636,0.66c-0.251,0.173-0.529,0.3-0.834,0.379
				c-0.306,0.08-0.614,0.11-0.927,0.092c-0.311-0.018-0.612-0.085-0.902-0.198c-0.289-0.114-0.546-0.276-0.768-0.485
				c-0.224-0.21-0.4-0.468-0.53-0.776C324.207,160.497,324.146,160.141,324.156,159.735z M328.422,159.954
				c-0.114,0-0.242,0.032-0.383,0.096c-0.142,0.064-0.284,0.146-0.428,0.246c-0.143,0.1-0.287,0.213-0.431,0.338
				c-0.144,0.125-0.277,0.248-0.403,0.369c-0.125,0.121-0.236,0.233-0.335,0.338c-0.098,0.105-0.174,0.187-0.228,0.246
				c0.209,0.037,0.453,0.035,0.731-0.003c0.277-0.039,0.544-0.115,0.8-0.229c0.255-0.114,0.475-0.263,0.659-0.448
				c0.185-0.184,0.286-0.404,0.305-0.66C328.709,160.052,328.613,159.954,328.422,159.954z"/>
		</g>
		<g>
			<path d="M347.957,160.669c-0.063-0.091-0.144-0.23-0.239-0.417c-0.096-0.187-0.198-0.395-0.308-0.625
				c-0.109-0.23-0.225-0.468-0.345-0.714c-0.121-0.246-0.242-0.475-0.362-0.687c-0.121-0.212-0.237-0.393-0.349-0.544
				c-0.112-0.15-0.213-0.244-0.305-0.28c-0.068,0.105-0.147,0.254-0.235,0.448c-0.089,0.194-0.183,0.41-0.28,0.649
				c-0.099,0.239-0.196,0.491-0.294,0.755c-0.099,0.264-0.192,0.521-0.284,0.769c-0.091,0.249-0.174,0.479-0.249,0.694
				c-0.075,0.214-0.138,0.387-0.188,0.52l-0.533-0.027l-2.133-4.936c-0.027-0.059-0.026-0.109,0.004-0.15
				c0.029-0.041,0.069-0.072,0.119-0.092c0.051-0.021,0.105-0.035,0.164-0.044c0.06-0.009,0.105-0.014,0.137-0.014
				c0.087,0,0.151,0.018,0.195,0.055c0.043,0.037,0.077,0.083,0.103,0.14c0.024,0.057,0.047,0.12,0.065,0.188
				c0.018,0.068,0.041,0.134,0.068,0.198c0.068,0.15,0.15,0.333,0.246,0.547c0.096,0.214,0.196,0.438,0.301,0.67
				c0.105,0.232,0.212,0.465,0.321,0.697c0.109,0.232,0.211,0.444,0.305,0.636c0.093,0.191,0.175,0.351,0.246,0.479
				c0.07,0.128,0.119,0.205,0.146,0.232c0.237-0.592,0.441-1.094,0.612-1.504c0.171-0.41,0.316-0.749,0.438-1.015
				c0.12-0.267,0.218-0.473,0.29-0.619c0.073-0.146,0.131-0.253,0.175-0.321c0.043-0.068,0.075-0.109,0.096-0.123
				c0.021-0.014,0.035-0.02,0.044-0.02c0.073,0,0.158,0.045,0.257,0.137c0.098,0.091,0.2,0.213,0.308,0.366
				c0.107,0.153,0.219,0.327,0.335,0.523c0.116,0.196,0.232,0.4,0.349,0.612c0.116,0.212,0.227,0.423,0.335,0.632
				c0.106,0.21,0.207,0.404,0.301,0.585c0.093,0.18,0.177,0.336,0.249,0.468c0.073,0.132,0.133,0.226,0.178,0.28
				c0.073-0.232,0.144-0.488,0.212-0.766c0.068-0.278,0.134-0.567,0.195-0.868c0.062-0.301,0.119-0.607,0.174-0.919
				c0.055-0.312,0.107-0.616,0.157-0.913c0.051-0.296,0.096-0.58,0.137-0.851c0.041-0.271,0.08-0.518,0.116-0.742
				c0.142,0,0.251,0.014,0.328,0.041c0.078,0.027,0.134,0.066,0.168,0.116c0.034,0.05,0.055,0.109,0.062,0.178
				c0.007,0.068,0.01,0.141,0.01,0.219c0.005-0.018-0.003,0.057-0.023,0.225c-0.02,0.169-0.053,0.403-0.096,0.704
				c-0.044,0.301-0.097,0.65-0.161,1.049c-0.064,0.399-0.137,0.817-0.219,1.254c-0.082,0.438-0.173,0.878-0.274,1.323
				c-0.1,0.444-0.207,0.862-0.321,1.254c-0.113,0.078-0.208,0.119-0.283,0.123c-0.075,0.004-0.14-0.017-0.191-0.065
				c-0.053-0.048-0.1-0.117-0.141-0.208C348.046,160.879,348.003,160.779,347.957,160.669z"/>
			<path d="M350.131,160.116c-0.041-0.369-0.006-0.729,0.106-1.08c0.111-0.351,0.28-0.661,0.506-0.93
				c0.226-0.269,0.498-0.482,0.816-0.639c0.319-0.157,0.668-0.231,1.046-0.222c0.064,0,0.149,0.009,0.257,0.027
				c0.106,0.018,0.221,0.047,0.342,0.085c0.12,0.039,0.239,0.088,0.355,0.147c0.116,0.059,0.219,0.13,0.308,0.212
				s0.156,0.174,0.201,0.277c0.046,0.103,0.058,0.218,0.034,0.345c-0.186,0.132-0.402,0.223-0.645,0.273
				c-0.244,0.05-0.492,0.085-0.745,0.106c-0.253,0.02-0.5,0.038-0.742,0.055c-0.241,0.016-0.452,0.058-0.632,0.126
				c-0.181,0.068-0.319,0.177-0.417,0.325c-0.099,0.148-0.129,0.361-0.093,0.639c0.068,0.251,0.182,0.435,0.339,0.554
				c0.157,0.119,0.339,0.19,0.547,0.215c0.207,0.025,0.428,0.014,0.663-0.034c0.234-0.048,0.465-0.11,0.69-0.188
				c0.226-0.078,0.437-0.16,0.632-0.246c0.196-0.087,0.358-0.157,0.485-0.212c0.059,0,0.109,0.021,0.15,0.065
				c0.041,0.044,0.061,0.095,0.061,0.154c-0.113,0.196-0.287,0.372-0.519,0.526c-0.233,0.155-0.494,0.28-0.786,0.376
				c-0.291,0.096-0.596,0.155-0.912,0.178c-0.317,0.023-0.614,0-0.893-0.068c-0.277-0.068-0.522-0.189-0.731-0.362
				C350.346,160.646,350.204,160.412,350.131,160.116z M352.544,157.757c-0.082,0-0.182,0.009-0.301,0.027
				c-0.118,0.018-0.233,0.05-0.342,0.096c-0.109,0.045-0.204,0.105-0.283,0.178c-0.08,0.073-0.12,0.166-0.12,0.28l1.695-0.28
				c-0.072-0.109-0.167-0.187-0.283-0.232C352.794,157.78,352.672,157.757,352.544,157.757z"/>
			<path d="M354.861,160.116c-0.041-0.369-0.006-0.729,0.107-1.08c0.111-0.351,0.28-0.661,0.506-0.93
				c0.226-0.269,0.498-0.482,0.816-0.639c0.319-0.157,0.668-0.231,1.046-0.222c0.065,0,0.15,0.009,0.257,0.027
				c0.106,0.018,0.221,0.047,0.342,0.085c0.12,0.039,0.239,0.088,0.355,0.147c0.116,0.059,0.219,0.13,0.308,0.212
				c0.089,0.082,0.156,0.174,0.201,0.277c0.046,0.103,0.058,0.218,0.034,0.345c-0.187,0.132-0.402,0.223-0.646,0.273
				c-0.244,0.05-0.492,0.085-0.745,0.106c-0.253,0.02-0.5,0.038-0.742,0.055c-0.241,0.016-0.452,0.058-0.632,0.126
				c-0.181,0.068-0.319,0.177-0.417,0.325c-0.099,0.148-0.129,0.361-0.093,0.639c0.068,0.251,0.182,0.435,0.339,0.554
				c0.157,0.119,0.339,0.19,0.547,0.215c0.207,0.025,0.428,0.014,0.663-0.034c0.234-0.048,0.465-0.11,0.69-0.188
				c0.225-0.078,0.437-0.16,0.632-0.246c0.196-0.087,0.358-0.157,0.485-0.212c0.06,0,0.109,0.021,0.15,0.065
				c0.041,0.044,0.062,0.095,0.062,0.154c-0.113,0.196-0.287,0.372-0.52,0.526c-0.232,0.155-0.494,0.28-0.786,0.376
				c-0.291,0.096-0.596,0.155-0.912,0.178c-0.317,0.023-0.614,0-0.893-0.068c-0.277-0.068-0.522-0.189-0.731-0.362
				C355.076,160.646,354.935,160.412,354.861,160.116z M357.274,157.757c-0.082,0-0.182,0.009-0.301,0.027
				c-0.118,0.018-0.232,0.05-0.342,0.096c-0.109,0.045-0.204,0.105-0.283,0.178c-0.08,0.073-0.12,0.166-0.12,0.28l1.695-0.28
				c-0.072-0.109-0.167-0.187-0.283-0.232S357.402,157.757,357.274,157.757z"/>
			<path d="M359.824,158.044c0-0.232-0.008-0.465-0.023-0.697c-0.017-0.232-0.034-0.465-0.055-0.697
				c-0.021-0.232-0.039-0.464-0.055-0.694c-0.017-0.23-0.024-0.462-0.024-0.694c0-0.1,0.025-0.171,0.075-0.212
				c0.051-0.041,0.121-0.061,0.212-0.061c0.01,0,0.033,0,0.072,0c0.038,0,0.063,0.002,0.071,0.007
				c0.06,0.242,0.102,0.495,0.127,0.759c0.024,0.264,0.047,0.544,0.065,0.837c0.018,0.294,0.037,0.602,0.055,0.923
				c0.019,0.321,0.051,0.657,0.096,1.008c0.082-0.041,0.201-0.115,0.355-0.222c0.155-0.107,0.327-0.229,0.517-0.366
				c0.189-0.137,0.386-0.279,0.591-0.427c0.205-0.148,0.4-0.283,0.585-0.403c0.185-0.121,0.349-0.221,0.492-0.301
				c0.143-0.08,0.247-0.12,0.311-0.12c0.051,0,0.09,0.011,0.12,0.034c0.029,0.023,0.061,0.064,0.092,0.123
				c-0.187,0.237-0.4,0.452-0.639,0.646c-0.239,0.194-0.486,0.379-0.742,0.557c-0.255,0.178-0.509,0.352-0.762,0.523
				c-0.253,0.171-0.484,0.352-0.694,0.543c0.379,0.105,0.739,0.212,1.084,0.321c0.344,0.109,0.677,0.211,0.998,0.304
				c0.321,0.093,0.638,0.173,0.95,0.239c0.311,0.066,0.625,0.108,0.939,0.126c0,0.068-0.002,0.127-0.007,0.178
				c-0.004,0.05-0.018,0.093-0.041,0.13c-0.023,0.037-0.058,0.065-0.105,0.085c-0.048,0.02-0.115,0.033-0.202,0.038h-0.068
				c-0.205-0.059-0.459-0.122-0.762-0.188c-0.304-0.066-0.627-0.134-0.971-0.205c-0.345-0.071-0.69-0.145-1.039-0.222
				c-0.349-0.078-0.669-0.155-0.961-0.232c0,0.059,0.006,0.146,0.017,0.26c0.011,0.114,0.02,0.237,0.023,0.369
				c0.005,0.132,0.001,0.263-0.01,0.393c-0.012,0.13-0.042,0.243-0.093,0.338c-0.05,0.096-0.123,0.164-0.219,0.205
				s-0.223,0.037-0.383-0.014L359.824,158.044z"/>
			<path d="M372.177,157.149c-0.305,0-0.609,0.009-0.912,0.027c-0.304,0.018-0.606,0.037-0.909,0.055
				c-0.304,0.018-0.608,0.032-0.913,0.041c-0.305,0.009-0.612,0.004-0.923-0.014c-0.059-0.027-0.099-0.056-0.119-0.085
				c-0.021-0.03-0.031-0.069-0.031-0.12c0-0.05,0.011-0.091,0.031-0.123c0.021-0.032,0.06-0.062,0.119-0.089
				c0.401,0.014,0.799-0.001,1.193-0.044c0.393-0.044,0.786-0.095,1.176-0.154c0.39-0.059,0.778-0.115,1.165-0.167
				c0.388-0.052,0.775-0.079,1.162-0.079c0.092,0,0.162,0.026,0.212,0.079c0.051,0.052,0.071,0.124,0.062,0.215
				c-0.255,0.283-0.508,0.596-0.759,0.94c-0.25,0.344-0.468,0.706-0.652,1.087c-0.185,0.38-0.321,0.772-0.41,1.176
				c-0.089,0.403-0.097,0.806-0.024,1.206l-0.711,0.137c0-0.018-0.002-0.051-0.007-0.099c-0.004-0.048-0.008-0.098-0.01-0.15
				c-0.003-0.052-0.005-0.102-0.007-0.147c-0.003-0.045-0.004-0.08-0.004-0.103c-0.009-0.228,0.012-0.455,0.061-0.68
				c0.051-0.226,0.117-0.447,0.202-0.663c0.084-0.216,0.178-0.427,0.28-0.632c0.103-0.205,0.201-0.402,0.297-0.591
				s0.183-0.369,0.26-0.54C372.084,157.46,372.141,157.299,372.177,157.149z"/>
		</g>
		<g>
			<path d="M392.072,159.669c-0.064-0.091-0.144-0.23-0.239-0.417c-0.096-0.187-0.198-0.395-0.308-0.625
				c-0.109-0.23-0.225-0.468-0.345-0.714c-0.121-0.246-0.242-0.475-0.362-0.687c-0.121-0.212-0.237-0.393-0.349-0.544
				c-0.112-0.15-0.213-0.244-0.305-0.28c-0.068,0.105-0.146,0.254-0.235,0.448c-0.089,0.194-0.183,0.41-0.28,0.649
				c-0.099,0.239-0.196,0.491-0.294,0.755c-0.099,0.264-0.192,0.521-0.284,0.769c-0.091,0.249-0.174,0.479-0.249,0.694
				c-0.075,0.214-0.138,0.387-0.189,0.52l-0.533-0.027l-2.133-4.936c-0.027-0.059-0.026-0.109,0.004-0.15
				c0.029-0.041,0.069-0.072,0.119-0.092c0.051-0.021,0.105-0.035,0.164-0.044c0.06-0.009,0.105-0.014,0.137-0.014
				c0.087,0,0.151,0.018,0.195,0.055c0.043,0.037,0.077,0.083,0.103,0.14c0.024,0.057,0.047,0.12,0.064,0.188
				c0.019,0.068,0.041,0.134,0.068,0.198c0.068,0.15,0.15,0.333,0.246,0.547c0.096,0.214,0.196,0.438,0.301,0.67
				c0.105,0.232,0.212,0.465,0.321,0.697c0.109,0.232,0.211,0.444,0.305,0.636c0.093,0.191,0.175,0.351,0.246,0.479
				c0.07,0.128,0.119,0.205,0.147,0.232c0.237-0.592,0.441-1.094,0.612-1.504c0.171-0.41,0.316-0.749,0.438-1.015
				c0.12-0.267,0.218-0.473,0.29-0.619c0.073-0.146,0.131-0.253,0.175-0.321c0.043-0.068,0.075-0.109,0.096-0.123
				c0.021-0.014,0.035-0.02,0.044-0.02c0.073,0,0.158,0.045,0.257,0.137c0.098,0.091,0.2,0.213,0.308,0.366
				c0.107,0.153,0.219,0.327,0.335,0.523c0.116,0.196,0.232,0.4,0.349,0.612c0.116,0.212,0.228,0.423,0.335,0.632
				c0.106,0.21,0.207,0.404,0.301,0.585c0.093,0.18,0.177,0.336,0.249,0.468c0.073,0.132,0.133,0.226,0.178,0.28
				c0.073-0.232,0.144-0.488,0.212-0.766c0.068-0.278,0.134-0.567,0.195-0.868c0.061-0.301,0.119-0.607,0.174-0.919
				c0.055-0.312,0.107-0.616,0.157-0.913c0.051-0.296,0.096-0.58,0.137-0.851c0.041-0.271,0.08-0.518,0.116-0.742
				c0.142,0,0.251,0.014,0.328,0.041c0.078,0.027,0.134,0.066,0.168,0.116c0.034,0.05,0.055,0.109,0.062,0.178
				c0.007,0.068,0.01,0.141,0.01,0.219c0.005-0.018-0.003,0.057-0.023,0.225c-0.021,0.169-0.053,0.403-0.096,0.704
				c-0.044,0.301-0.097,0.65-0.161,1.049c-0.064,0.399-0.137,0.817-0.219,1.254s-0.173,0.878-0.273,1.323
				c-0.1,0.444-0.207,0.862-0.321,1.254c-0.113,0.078-0.208,0.119-0.283,0.123c-0.075,0.004-0.14-0.017-0.191-0.065
				c-0.053-0.048-0.1-0.117-0.141-0.208C392.161,159.879,392.118,159.779,392.072,159.669z"/>
			<path d="M394.246,159.116c-0.041-0.369-0.006-0.729,0.106-1.08c0.111-0.351,0.28-0.661,0.506-0.93
				c0.226-0.269,0.498-0.482,0.816-0.639c0.319-0.157,0.668-0.231,1.046-0.222c0.064,0,0.149,0.009,0.257,0.027
				c0.107,0.018,0.221,0.047,0.342,0.085c0.12,0.039,0.239,0.088,0.356,0.147c0.116,0.059,0.219,0.13,0.308,0.212
				c0.089,0.082,0.156,0.174,0.201,0.277c0.046,0.103,0.058,0.218,0.034,0.345c-0.187,0.132-0.402,0.223-0.646,0.273
				c-0.244,0.05-0.492,0.085-0.745,0.106c-0.253,0.02-0.5,0.038-0.742,0.055c-0.241,0.016-0.452,0.058-0.632,0.126
				c-0.181,0.068-0.319,0.177-0.417,0.325c-0.099,0.148-0.129,0.361-0.093,0.639c0.068,0.251,0.182,0.435,0.339,0.554
				c0.157,0.119,0.339,0.19,0.547,0.215c0.207,0.025,0.428,0.014,0.663-0.034c0.234-0.048,0.465-0.11,0.69-0.188
				c0.226-0.078,0.436-0.16,0.632-0.246c0.196-0.087,0.358-0.157,0.485-0.212c0.06,0,0.109,0.021,0.15,0.065
				c0.041,0.044,0.061,0.095,0.061,0.154c-0.113,0.196-0.287,0.372-0.52,0.526c-0.232,0.155-0.494,0.28-0.786,0.376
				c-0.291,0.096-0.596,0.155-0.912,0.178c-0.317,0.023-0.614,0-0.892-0.068c-0.277-0.068-0.522-0.189-0.732-0.362
				C394.461,159.646,394.319,159.412,394.246,159.116z M396.659,156.757c-0.082,0-0.182,0.009-0.301,0.027
				c-0.118,0.018-0.232,0.05-0.342,0.096s-0.204,0.105-0.283,0.178c-0.08,0.073-0.12,0.166-0.12,0.28l1.695-0.28
				c-0.072-0.109-0.167-0.187-0.283-0.232S396.787,156.757,396.659,156.757z"/>
			<path d="M398.977,159.116c-0.041-0.369-0.006-0.729,0.106-1.08c0.111-0.351,0.28-0.661,0.506-0.93
				c0.226-0.269,0.498-0.482,0.816-0.639c0.319-0.157,0.668-0.231,1.046-0.222c0.064,0,0.149,0.009,0.257,0.027
				c0.106,0.018,0.221,0.047,0.342,0.085c0.12,0.039,0.239,0.088,0.355,0.147c0.116,0.059,0.219,0.13,0.308,0.212
				s0.156,0.174,0.201,0.277c0.046,0.103,0.058,0.218,0.034,0.345c-0.186,0.132-0.402,0.223-0.645,0.273
				c-0.244,0.05-0.492,0.085-0.745,0.106c-0.253,0.02-0.5,0.038-0.742,0.055c-0.241,0.016-0.452,0.058-0.632,0.126
				c-0.181,0.068-0.319,0.177-0.417,0.325c-0.099,0.148-0.129,0.361-0.093,0.639c0.068,0.251,0.182,0.435,0.339,0.554
				c0.157,0.119,0.339,0.19,0.547,0.215c0.207,0.025,0.428,0.014,0.663-0.034c0.234-0.048,0.465-0.11,0.69-0.188
				c0.226-0.078,0.436-0.16,0.632-0.246c0.196-0.087,0.358-0.157,0.485-0.212c0.059,0,0.109,0.021,0.15,0.065
				c0.041,0.044,0.061,0.095,0.061,0.154c-0.113,0.196-0.287,0.372-0.52,0.526c-0.232,0.155-0.494,0.28-0.786,0.376
				c-0.291,0.096-0.596,0.155-0.912,0.178c-0.317,0.023-0.614,0-0.893-0.068c-0.277-0.068-0.521-0.189-0.731-0.362
				C399.191,159.646,399.05,159.412,398.977,159.116z M401.39,156.757c-0.082,0-0.182,0.009-0.301,0.027
				c-0.118,0.018-0.233,0.05-0.342,0.096c-0.109,0.045-0.204,0.105-0.283,0.178c-0.08,0.073-0.12,0.166-0.12,0.28l1.695-0.28
				c-0.072-0.109-0.167-0.187-0.283-0.232C401.64,156.78,401.518,156.757,401.39,156.757z"/>
			<path d="M403.939,157.044c0-0.232-0.008-0.465-0.023-0.697c-0.017-0.232-0.034-0.465-0.055-0.697
				c-0.021-0.232-0.039-0.464-0.055-0.694c-0.017-0.23-0.024-0.462-0.024-0.694c0-0.1,0.025-0.171,0.075-0.212
				c0.051-0.041,0.121-0.061,0.212-0.061c0.01,0,0.033,0,0.072,0c0.038,0,0.063,0.002,0.071,0.007
				c0.06,0.242,0.102,0.495,0.127,0.759c0.025,0.264,0.047,0.544,0.065,0.837c0.019,0.294,0.037,0.602,0.055,0.923
				c0.018,0.321,0.051,0.657,0.096,1.008c0.082-0.041,0.201-0.115,0.355-0.222c0.155-0.107,0.327-0.229,0.517-0.366
				c0.188-0.137,0.386-0.279,0.591-0.427c0.205-0.148,0.4-0.283,0.585-0.403c0.185-0.121,0.349-0.221,0.492-0.301
				c0.144-0.08,0.247-0.12,0.311-0.12c0.051,0,0.09,0.011,0.12,0.034c0.029,0.023,0.06,0.064,0.092,0.123
				c-0.186,0.237-0.399,0.452-0.639,0.646c-0.239,0.194-0.486,0.379-0.742,0.557c-0.255,0.178-0.509,0.352-0.762,0.523
				s-0.484,0.352-0.694,0.543c0.379,0.105,0.739,0.212,1.084,0.321c0.344,0.109,0.677,0.211,0.998,0.304
				c0.321,0.093,0.638,0.173,0.95,0.239c0.311,0.066,0.625,0.108,0.94,0.126c0,0.068-0.002,0.127-0.007,0.178
				c-0.004,0.05-0.018,0.093-0.041,0.13c-0.023,0.037-0.058,0.065-0.105,0.085c-0.048,0.02-0.115,0.033-0.202,0.038h-0.068
				c-0.205-0.059-0.459-0.122-0.762-0.188c-0.304-0.066-0.627-0.134-0.971-0.205c-0.345-0.071-0.69-0.145-1.039-0.222
				c-0.349-0.078-0.669-0.155-0.961-0.232c0,0.059,0.006,0.146,0.018,0.26c0.011,0.114,0.02,0.237,0.023,0.369
				c0.005,0.132,0.001,0.263-0.01,0.393c-0.012,0.13-0.042,0.243-0.093,0.338c-0.05,0.096-0.123,0.164-0.219,0.205
				s-0.223,0.037-0.383-0.014L403.939,157.044z"/>
			<path d="M412.587,158.965c0-0.146,0.045-0.287,0.134-0.424c0.089-0.137,0.188-0.268,0.297-0.393
				c0.109-0.126,0.209-0.245,0.298-0.359c0.089-0.114,0.133-0.219,0.133-0.314c0-0.068-0.016-0.13-0.048-0.185
				c-0.031-0.055-0.067-0.107-0.105-0.157c-0.039-0.05-0.074-0.104-0.106-0.161c-0.031-0.057-0.048-0.124-0.048-0.202
				c0-0.205,0.046-0.389,0.137-0.55c0.092-0.162,0.212-0.304,0.362-0.427c0.15-0.123,0.322-0.228,0.517-0.314
				c0.193-0.086,0.391-0.157,0.591-0.212c0.201-0.055,0.397-0.095,0.592-0.12c0.193-0.025,0.365-0.038,0.516-0.038
				c0.155,0,0.324,0.003,0.506,0.01c0.183,0.007,0.353,0.035,0.51,0.085c0.157,0.05,0.288,0.131,0.393,0.243
				c0.105,0.112,0.157,0.27,0.157,0.475c-0.004,0.187-0.051,0.355-0.14,0.506c-0.089,0.15-0.189,0.285-0.298,0.403
				c0.155,0.064,0.287,0.126,0.396,0.188c0.109,0.062,0.198,0.133,0.267,0.215c0.068,0.082,0.119,0.182,0.15,0.301
				c0.032,0.119,0.048,0.262,0.048,0.431c0,0.26-0.047,0.496-0.14,0.708c-0.094,0.212-0.219,0.402-0.376,0.571
				c-0.157,0.168-0.34,0.315-0.547,0.441c-0.208,0.126-0.428,0.229-0.66,0.311c-0.232,0.082-0.469,0.143-0.711,0.184
				c-0.241,0.041-0.474,0.062-0.697,0.062c-0.137,0-0.283-0.008-0.44-0.024c-0.157-0.016-0.314-0.042-0.472-0.079
				c-0.157-0.037-0.309-0.086-0.455-0.15c-0.146-0.064-0.274-0.144-0.386-0.239c-0.112-0.096-0.202-0.208-0.271-0.335
				C412.621,159.289,412.587,159.139,412.587,158.965z M413.277,158.87c0,0.214,0.056,0.385,0.168,0.513
				c0.111,0.128,0.25,0.225,0.417,0.291c0.166,0.066,0.346,0.108,0.54,0.126c0.193,0.018,0.375,0.027,0.543,0.027
				c0.297,0,0.586-0.039,0.868-0.116c0.283-0.078,0.533-0.195,0.752-0.352c0.219-0.157,0.395-0.353,0.526-0.588
				c0.133-0.235,0.198-0.509,0.198-0.824c-0.068-0.228-0.211-0.396-0.427-0.506c-0.217-0.109-0.47-0.17-0.759-0.181
				c-0.29-0.011-0.595,0.023-0.916,0.103c-0.321,0.08-0.619,0.191-0.893,0.335c-0.273,0.144-0.506,0.315-0.697,0.516
				S413.301,158.633,413.277,158.87z M413.845,156.6c0,0.169,0.055,0.297,0.164,0.386c0.109,0.089,0.251,0.133,0.424,0.133
				c0.101,0.009,0.23,0,0.39-0.027c0.16-0.027,0.331-0.067,0.513-0.12c0.183-0.052,0.366-0.114,0.551-0.185
				c0.185-0.071,0.355-0.147,0.513-0.229c0.157-0.082,0.289-0.165,0.397-0.249c0.107-0.085,0.174-0.167,0.201-0.249
				c0-0.1-0.022-0.189-0.068-0.267c-0.045-0.078-0.118-0.116-0.219-0.116c-0.113-0.055-0.26-0.097-0.438-0.126
				s-0.368-0.042-0.57-0.038c-0.203,0.004-0.409,0.027-0.619,0.068c-0.209,0.041-0.4,0.105-0.574,0.191
				c-0.173,0.087-0.32,0.198-0.44,0.335C413.946,156.245,413.872,156.409,413.845,156.6z"/>
		</g>
		<path style="fill:none;stroke:#263238;stroke-linecap:round;stroke-linejoin:round;stroke-miterlimit:10;" d="M74.341,143.571
			c0,0,43.121-1.582,92.571,0c49.451,1.582,124.652,0.572,164.787-0.703c40.136-1.275,88.689-1.67,88.689-1.67"/>
		<path style="fill:none;stroke:#263238;stroke-linecap:round;stroke-linejoin:round;stroke-miterlimit:10;" d="M74.341,172.451
			c0,0,313.106-3.165,346.048-3.165"/>
		<path style="fill:none;stroke:#263238;stroke-linecap:round;stroke-linejoin:round;stroke-miterlimit:10;" d="M114.297,141.198
			c0,0,4.352,175.253,0,209.67"/>
		<path style="fill:none;stroke:#263238;stroke-linecap:round;stroke-linejoin:round;stroke-miterlimit:10;" d="M157.418,141.198
			c0,0-1.582,192.917,0,206.437"/>
		<path style="fill:none;stroke:#263238;stroke-linecap:round;stroke-linejoin:round;stroke-miterlimit:10;" d="M202.516,141.198
			c0,0,1.582,37.978,1.978,71.604s-1.978,133.242,0,144.357"/>
		<path style="fill:none;stroke:#263238;stroke-linecap:round;stroke-linejoin:round;stroke-miterlimit:10;" d="M250,142.789
			c0,0-2.414,115.507-1.41,155.068c1.004,39.561,1.41,60.923,1.41,60.923"/>
		<path style="fill:none;stroke:#263238;stroke-linecap:round;stroke-linejoin:round;stroke-miterlimit:10;" d="M291.527,141.198
			c0,0,3.956,137.318,3.56,166.769c-0.396,29.451,0.028,45.89,0.028,45.89"/>
		<path style="fill:none;stroke:#263238;stroke-linecap:round;stroke-linejoin:round;stroke-miterlimit:10;" d="M336.626,139.158
			c0,0-0.25,80.95,2.305,103.51c2.554,22.56-1.156,116.111-1.156,116.111"/>
		<path style="fill:none;stroke:#263238;stroke-linecap:round;stroke-linejoin:round;stroke-miterlimit:10;" d="M380.951,139.158
			c0,0,1.696,41.423,1.961,64.569s-0.788,141.249,1.98,150.129"/>
	</g>
	<path style="fill:#FFFFFF;stroke:#263238;stroke-width:2;stroke-linecap:round;stroke-linejoin:round;stroke-miterlimit:10;" d="
		M74.341,196.978c0,0,65.076-1.187,106.318,0c0,0-0.099,11.077,0,15.429c0,0-95.957-0.791-106.318,0
		C74.341,212.407,75.132,199.747,74.341,196.978z"/>
	<path style="fill:#FFFFFF;stroke:#263238;stroke-width:2;stroke-linecap:round;stroke-linejoin:round;stroke-miterlimit:10;" d="
		M293.025,196.451v15.956c0,0,81.203-0.791,89.897-2.374l-0.164-15.434C382.758,194.599,321.819,193.945,293.025,196.451z"/>
	<path style="fill:#92E3A9;stroke:#263238;stroke-width:2;stroke-linecap:round;stroke-linejoin:round;stroke-miterlimit:10;" d="
		M156.714,216.758h92.458l-0.579,14.74c0,0-38.957,0.89-59.924,1.383c-20.967,0.493-31.253,1.179-31.253,1.179L156.714,216.758z"/>
	<path style="fill:#92E3A9;stroke:#263238;stroke-width:2;stroke-linecap:round;stroke-linejoin:round;stroke-miterlimit:10;" d="
		M384.892,212.407l0.379,11.077c0,0,28.765-1.978,32.983-1.582v-11.077C418.254,210.824,392.806,210.429,384.892,212.407z"/>
	<path style="fill:#FFFFFF;stroke:#263238;stroke-width:2;stroke-linecap:round;stroke-linejoin:round;stroke-miterlimit:10;" d="
		M249.173,251.988c0,0,79.008-1.841,89.758-5.48v22.037c0,0-77.196,0.309-90.585,2.744
		C248.346,271.289,247.565,256.36,249.173,251.988z"/>
	<path style="fill:none;stroke:#92E3A9;stroke-width:2;stroke-linecap:round;stroke-linejoin:round;stroke-miterlimit:10;" d="
		M254.608,251.847c0,0-7.549,11.651-6.018,13.138c1.531,1.487,9.206-12.628,11.553-12.997c2.347-0.369-8.176,19.419-7.121,20.117
		c1.055,0.698,14.258-20.927,17.407-20.889c3.149,0.038-6.975,18.819-4.955,18.732c2.019-0.087,11.318-18.396,14.714-18.732
		c3.396-0.336-7.878,18.452-5.268,18.37c2.61-0.083,13.077-20.076,15.238-18.979c2.161,1.097-10.749,17.405-7.327,18.746
		c3.422,1.34,12.161-17.493,16.345-18.436s-9.685,17.15-5.632,17.629c4.053,0.479,10.116-18.871,13.28-17.329
		c3.165,1.542-5.802,12.279-4.483,12.977c1.319,0.698,5.542-12.937,9.76-12.977c4.218-0.04-5.013,12.282-3.958,13.769
		c1.055,1.487,5.291-3.643,5.291-3.643"/>
	<path style="fill:none;stroke:#92E3A9;stroke-width:2;stroke-linecap:round;stroke-linejoin:round;stroke-miterlimit:10;" d="
		M78.293,196.912c0,0-3.358,7.978-2.567,8.374c0.791,0.396,3.956-7.912,7.121-7.517c3.165,0.396-5.656,14.495-3.621,14.458
		c2.035-0.037,8.961-16.172,11.137-15.315c2.176,0.857-5.147,13.415-3.758,14.308c1.389,0.893,8.308-15.231,10.483-14.341
		c2.176,0.89-6.132,13.747-3.956,13.747c2.176,0,9.302-14.016,11.473-14.035c2.171-0.019-6.726,12.208-4.55,13.837
		c2.177,1.629,7.516-15.41,10.681-13.837c3.165,1.573-4.747,13-2.374,14.232c2.373,1.233,8.501-15.213,10.481-14.332
		c1.98,0.881-5.905,15.567-4.547,15.569c1.358,0.002,10.085-16.905,12.064-15.599c1.979,1.307-7.32,15.608-5.539,15.613
		c1.781,0.005,11.078-17.34,13.452-16.482c2.374,0.858-6.132,13.451-3.956,14.242s7.319-8.901,8.308-8.901
		c0.989,0-3.462,8.901-2.226,8.901c1.237,0,5.989-14.863,8.36-13.366c2.371,1.498-2.772,9.805-1.585,10.201
		s8.703-10.681,10.879-9.099c2.176,1.582-8.507,14.603-5.145,14.622c3.362,0.019,9.101-14.424,11.87-14.226
		c2.769,0.198-5.538,12.857-3.363,13.055c2.176,0.198,6.527-14.242,8.901-13.451s-3.363,10.879-1.78,11.473
		c1.582,0.593,4.945-10.088,7.714-9.89c2.769,0.198-5.143,10.286-1.78,10.681c3.363,0.396,4.55-11.275,7.912-10.879
		c3.363,0.396-4.252,10.704-2.425,12.066c1.827,1.362,4.656-5.143,4.656-5.143"/>
	<path style="fill:none;stroke:#263238;stroke-width:2;stroke-linecap:round;stroke-linejoin:round;stroke-miterlimit:10;" d="
		M75.557,221.304c1.539-0.653,3.078-1.305,4.616-1.958c-0.047,1.513-0.361,3.017-0.924,4.422c1.335-0.275,2.434-1.451,2.62-2.801
		c-0.17,0.54-0.34,1.08-0.509,1.62c1.437-0.012,2.874-0.024,4.311-0.036c-0.147-0.468,0.068-1.024,0.492-1.271
		c-0.462,0.412-0.18,1.252,0.371,1.534c0.552,0.281,1.215,0.169,1.816,0.019c1.519-0.379,2.988-0.96,4.355-1.721
		c-0.321,0.947,0.366,1.998,1.266,2.433c0.9,0.435,1.945,0.413,2.944,0.381c4.309-0.137,8.618-0.275,12.927-0.412"/>
	<path style="fill:none;stroke:#263238;stroke-width:2;stroke-linecap:round;stroke-linejoin:round;stroke-miterlimit:10;" d="
		M74.443,230.315c0,0,1.78-2.299,3.363-2.04c1.582,0.26,0.593,2.831,1.187,3.227s1.582-5.267,2.571-3.227
		c0.989,2.04,2.571,3.247,2.571,3.247s2.176-2.287,2.769-1.846c0.593,0.441,1.78,0,1.78,0h3.165h1.78h13.451"/>
	<path style="fill:none;stroke:#263238;stroke-width:2;stroke-linecap:round;stroke-linejoin:round;stroke-miterlimit:10;" d="
		M132.494,219.347c0,0-14.871,48.523,109.582,43.268"/>
	
		<polyline style="fill:none;stroke:#263238;stroke-width:2;stroke-linecap:round;stroke-linejoin:round;stroke-miterlimit:10;" points="
		242.077,259.131 245.242,263.012 242.077,264.985 	"/>
	<g>
		<path style="fill:#FFFFFF;stroke:#92E3A9;stroke-width:2;stroke-linecap:round;stroke-linejoin:round;stroke-miterlimit:10;" d="
			M167.703,264.193c-10.286-4.752-28.931-1.534-42.778,7.166c-13.846,8.7-16.681,37.184,33.989,28.876s18.629-31.69,0.876-31.69"/>
		<path style="fill:none;stroke:#92E3A9;stroke-width:2;stroke-linecap:round;stroke-linejoin:round;stroke-miterlimit:10;" d="
			M127.5,279.621c0,0,3.097-2.807,4.442-2.967c1.344-0.16-2.531,2.59,0,2.996c2.531,0.405,2.036-1.034,4.459-1.501
			c2.424-0.467,3.215,2.24,3.215,2.24s3.956-1.357,6.33-2.032c2.374-0.675,0.791,3.156,3.956,2.032
			c3.165-1.125,1.758-2.939,6.813-2.032c5.055,0.907,14.842,0.339,19.245,0.03"/>
		<path style="fill:none;stroke:#92E3A9;stroke-width:2;stroke-linecap:round;stroke-linejoin:round;stroke-miterlimit:10;" d="
			M131.941,288.01c0.949-2.417-0.238-2.883,2.531-1.661c2.769,1.222,4.352,2.891,5.538,1.661c1.187-1.23,2.769-1.442,3.956-0.941
			c1.187,0.502-1.582,1.293,1.187,0.502c2.769-0.791,4.352-2.317,4.352-2.317s-0.694,1.684,2.224,3.187
			c2.919,1.504,4.985-1.594,4.985-1.594s8.22-0.312,13.363,0.206"/>
	</g>
	<g>
		<path d="M159.334,407.862l10.58-11.587v-3.023l8.104-7.358c0,0,9.865,3.412,14.567,15.419l-8.564,7.221l-3.275,0.42l-12.629,8.983
			C168.117,417.938,159.334,414.916,159.334,407.862z"/>
		<path style="opacity:0.3;fill:none;stroke:#FFFFFF;stroke-linecap:round;stroke-linejoin:round;stroke-miterlimit:10;" d="
			M178.311,388.131c0,0,3.611,10.748,12.931,12.931"/>
		<path style="opacity:0.3;fill:none;stroke:#FFFFFF;stroke-linecap:round;stroke-linejoin:round;stroke-miterlimit:10;" d="
			M171.593,396.443c0,0,3.275,8.648,10.244,11.419"/>
	</g>
</g>
<g id="Marker">
	<path style="opacity:0.2;fill-opacity:0.7;" d="M295.116,94.319l4.21-4.814h9.784c0,0,3.836-0.724,7.368-3.197
		c0,0-3.72-3.791-8.204-3.923h-8.443l-22.546-4.088L151.73,89.504c0,0-3.158,7.787,2.254,15.298L295.116,94.319z"/>
	<path style="opacity:0.2;fill-opacity:0.7;" d="M351.602,104.802l3.356-2.89l10.943-0.118c1.187-5.382,0.235-10.735,0.235-10.735
		l-29.879-10.383c-7.673,4.793-4.557,24.127-4.557,24.127H351.602z"/>
	<g>
		<g>
			<path style="fill:#92E3A9;stroke:#263238;stroke-linecap:round;stroke-linejoin:round;stroke-miterlimit:10;" d="M307.725,71.242
				c0,0,5.275-0.659,8.308,1.78c0,0-0.396,3.099-8.308,3.89V71.242z"/>
			<path style="fill:#263238;" d="M298.033,69.857l-6.871-4.663L151.593,76.423c-6.132,9.918,1.517,19.734,1.517,19.734
				l140.449-11.653l4.927-4.828L308.227,78c0,0,0.883-1.549,0.883-3.923c0-2.769-1.311-4.133-1.311-4.133L298.033,69.857z"/>
		</g>
		<path style="fill:#92E3A9;" d="M197.681,74.036l62.242-5.102l0,0c0.522,1.263-0.333,2.67-1.696,2.787l-58.352,5.003
			c-1.18,0.101-2.195-0.83-2.195-2.014V74.036z"/>
		<path style="opacity:0.3;fill:none;stroke:#FFFFFF;stroke-linecap:round;stroke-linejoin:round;stroke-miterlimit:10;" d="
			M291.044,67.352c0,0,4.483,5.011,1.319,15.033"/>
		<path style="opacity:0.3;fill:none;stroke:#FFFFFF;stroke-linecap:round;stroke-linejoin:round;stroke-miterlimit:10;" d="
			M298.527,71.161c0,0,1.286,2.883,0.593,6.345"/>
		<path style="opacity:0.3;fill:none;stroke:#FFFFFF;stroke-linecap:round;stroke-linejoin:round;stroke-miterlimit:10;" d="
			M152.648,78.297c0,0,4.747,4.154,1.582,16.022"/>
		<path style="opacity:0.3;fill:#FFFFFF;" d="M155.319,77.506c0,0,1.506,0.198,2.099,7.714l133.626-12.387
			c0,0-0.171-3.082-2.743-6.576L155.319,77.506z"/>
		<path style="opacity:0.3;fill:#FFFFFF;" d="M299.832,70.697c0,0,0.992,1.387,1.058,3.636l7.385-0.718c0,0-0.329-2.156-0.923-2.918
			H299.832z"/>
	</g>
	<g>
		<g>
			<defs>
				<path id="XMLID_206_" d="M363.317,96.915l-15.21-3.855l-2.664,1.427l-10.313-3.669c0,0-1.65-10.307,6.714-20.121l10.409,4.14
					l1.916,2.688l13.882,6.891C368.052,84.416,369.534,93.585,363.317,96.915z"/>
			</defs>
			<use xlink:href="#XMLID_206_"  style="overflow:visible;fill:#92E3A9;"/>
			<clipPath id="XMLID_00000175304985453016978730000010163793668915636384_">
				<use xlink:href="#XMLID_206_"  style="overflow:visible;"/>
			</clipPath>
			<path style="opacity:0.3;clip-path:url(#XMLID_00000175304985453016978730000010163793668915636384_);fill-opacity:0.7;" d="
				M363.32,96.91l-15.21-3.85l-2.67,1.43l-10.31-3.67c0,0-1.65-10.31,6.71-20.12c1.54,0.61,4.75,7.99-2.01,17.75l6.16,2.37
				c0,0,2.55-1.09,4.29-3.53c0.59-0.83,1.09-1.82,1.36-2.98c0.01,0,0.01-0.01,0.01-0.01c0.03,0.2,0.36,2.55-0.52,5.2l12.4,3.96
				c0,0,2.98,0.37,4.52-9.04C368.05,84.42,369.53,93.58,363.32,96.91z"/>
			
				<use xlink:href="#XMLID_206_"  style="overflow:visible;fill:none;stroke:#263238;stroke-linecap:round;stroke-linejoin:round;stroke-miterlimit:10;"/>
		</g>
		<path style="fill:none;stroke:#263238;stroke-linecap:round;stroke-linejoin:round;stroke-miterlimit:10;" d="M336.963,89.504
			c0,0,7.769-8.257,5.293-17.504"/>
		<path style="fill:none;stroke:#263238;stroke-linecap:round;stroke-linejoin:round;stroke-miterlimit:10;" d="M347.463,91.501
			c0,0,6.077-6.97,5.229-14.422"/>
	</g>
</g>
<g id="Hand">
	<g>
		<path style="opacity:0.3;fill-opacity:0.7;" d="M414.69,308.93l-3.27,66.52c-17.47-0.27-42.44-0.61-68.92-0.76c0,0,0,0-0.01,0
			c-6.26-5.48-12.46-34.37-14.84-43.34s2.52-36.39,2.52-36.39s-3.83-3.7-4.62-6.24c-0.79-2.54,2.1-6.33,2.1-6.33l-1.57-8.7
			l-3.17-2.4l-2.9-3.57c-6.58-2.73-7.91-6.4-7.91-6.4l27.83-6.35L414.69,308.93z"/>
		<g>
			<g>
				<defs>
					<path id="XMLID_204_" d="M375.195,469.835c0,0-10.721-89.607-16.259-104.764c-5.539-15.157-12.813-65.275-12.813-65.275
						s16.84-1.349,21.936-1.4c5.097-0.051,11.69-4.93,11.69-4.93c-0.558,1.008-1.828,0.388-2.769-5.736
						c-0.629-4.093-6.857-5.341-6.857-5.341s-14.95,1.119-27.56-0.572c0,0-4.797,1.67-9.387,0c-4.591-1.67-5.522-3.462-3.008-5.89
						c0,0-3.563-4.667,8.636-11.301c0,0-8.109-7.293-4.153-12.04c3.956-4.747,13.319-9.364,13.319-9.364s0.396-3.559,2.11-4.483
						c1.714-0.923,11.077-4.747,16.22-8.308c5.143-3.56,7.385-3.297,16.879-3.56c9.495-0.264,21.099-2.637,25.451-0.659
						c3.38,1.536,4.955,7.574,4.955,7.574c3.153,1.035,3.474,6.165,3.68,7.431c0.923,5.67,7.452,29.17,10.353,33.258
						c2.901,4.088,4.615,11.209,4.088,14.901c-0.527,3.692-1.846,8.044-3.165,15.56c-1.319,7.517-5.802,33.626-8.044,41.143
						c-2.242,7.516-3.429,20.572-2.242,26.901l33.332,79.324"/>
				</defs>
				<use xlink:href="#XMLID_204_"  style="overflow:visible;fill:#FFFFFF;"/>
				<clipPath id="XMLID_00000152265620527692697460000005215263807522251678_">
					<use xlink:href="#XMLID_204_"  style="overflow:visible;"/>
				</clipPath>
				<path style="opacity:0.4;clip-path:url(#XMLID_00000152265620527692697460000005215263807522251678_);fill:#92E3A9;" d="
					M410.72,258.36c0,0-6.31,3.81-6.31,6.23c0,0-11.99,9.13-13.38,19.88c0,0-6.65,6.74-8.11,9.8c-1.46,3.06-7.8,6.65-7.8,6.65
					s-2.09-0.24-5.39-0.2c-0.95,0.01-4.47-0.8-9.02-1.97c3.01-0.19,5.76-0.34,7.35-0.35c4.23-0.04,9.48-3.4,11.15-4.55
					c-0.64-0.04-1.53-1.54-2.23-6.12c-0.63-4.09-6.86-5.34-6.86-5.34s-14.95,1.12-27.56-0.57c0,0-2.92,1.02-6.39,0.66
					c0.08-1.47-0.31-2.98-1.52-4.37c0,0,5.79-3.85,4.28-6.82c-0.72-1.42-3.31-2.3-5.84-2.83c1.34-1.18,3.19-2.46,5.71-3.83
					c0,0-8.11-7.29-4.15-12.04s13.32-9.37,13.32-9.37s0.39-3.55,2.11-4.48c0,0-1.05,5.49,6.59,5.01c7.65-0.49,18.52-5.01,18.52-5.01
					s20.6,0.57,24.78-2.6c0,0,4.96,4.27,8.66,5.04C412.32,241.95,410.72,258.36,410.72,258.36z"/>
				<path style="opacity:0.4;clip-path:url(#XMLID_00000152265620527692697460000005215263807522251678_);fill:#92E3A9;" d="
					M431.71,289.38c-0.53,3.69-1.85,8.04-3.17,15.56c-1.32,7.52-5.8,33.63-8.04,41.14c-2.25,7.52-3.43,20.57-2.25,26.9l2.8,6.68
					c-6.07-10.76-5.59-24.88-5.1-28.59c0.59-4.55,3.95-21.37,7.01-30.07s3.27-26.9,3.27-27.53s-1.58,3.99-3.19,9.13
					c-1.61,5.15-7.49,19.59-7.49,19.59c-0.2-2.97,2.27-20.55,2.72-22.55c0.45-2,4.07-15.49,4.69-19.25
					c0.61-3.76-2.36-7.96-3.11-11.05c-0.75-3.08-3.71-16.38-4.5-25.59c-0.72-8.53-3.3-13.74-3.67-14.46c1.29,2.14,1.9,4.5,1.9,4.5
					c3.16,1.03,3.48,6.16,3.68,7.43c0.93,5.67,7.46,29.17,10.36,33.26S432.23,285.69,431.71,289.38z"/>
				<path style="opacity:0.4;clip-path:url(#XMLID_00000152265620527692697460000005215263807522251678_);fill:#92E3A9;" d="
					M373.22,453.92c-3.25-25.56-9.75-74.21-13.85-87.55c2.83,3.44,6.05,9.02,8.31,19.71c4.55,21.56,5.94,31.05,6.13,40.94
					C373.94,433.34,373.85,444.99,373.22,453.92z"/>
				
					<use xlink:href="#XMLID_204_"  style="overflow:visible;fill:none;stroke:#263238;stroke-linecap:round;stroke-linejoin:round;stroke-miterlimit:10;"/>
			</g>
			<path style="fill:none;stroke:#263238;stroke-linecap:round;stroke-linejoin:round;stroke-miterlimit:10;" d="M330.167,275.929
				c0,0,2.637,3.56,11.736,2.11c9.099-1.451,19.977-10.552,19.977-10.552l6.528-2.767c0,0,8.308,0.923,11.341-0.527"/>
			<path style="fill:none;stroke:#263238;stroke-linecap:round;stroke-linejoin:round;stroke-miterlimit:10;" d="M375.123,264.985
				c0,0,5.417,5.801,9.769,7.119"/>
			<path style="fill:none;stroke:#263238;stroke-linecap:round;stroke-linejoin:round;stroke-miterlimit:10;" d="M379.749,293.467
				c3.692-2.374,8.572-8.967,13.055-9.494"/>
			<path style="fill:none;stroke:#263238;stroke-linecap:round;stroke-linejoin:round;stroke-miterlimit:10;" d="M378.958,285.423
				c1.983-6.609,8.044-13.319,8.044-13.319s0.923-2.374,3.692-6.198s6.33-4.352,6.33-4.352s-5.24-14.831-3.692-17.807"/>
			<path style="fill:none;stroke:#263238;stroke-linecap:round;stroke-linejoin:round;stroke-miterlimit:10;" d="M370.123,282.39
				c0,0,4.067-1.283,5.001-4.004"/>
			<path style="fill:none;stroke:#263238;stroke-linecap:round;stroke-linejoin:round;stroke-miterlimit:10;" d="M369.2,276.852
				c0,0-0.249,4.22-6.586,5.538"/>
			<path style="fill:none;stroke:#263238;stroke-linecap:round;stroke-linejoin:round;stroke-miterlimit:10;" d="M368.408,264.72
				c0,0,3.155-2.093,4.215-4.211"/>
			<path style="fill:none;stroke:#263238;stroke-linecap:round;stroke-linejoin:round;stroke-miterlimit:10;" d="M347.969,243.225
				c0,0-1.129,3.166,3.589,4.484c4.718,1.319,17.378-0.134,22.653-4.484c0,0,1.298-3.691,0.913-6.065"/>
			<path style="fill:none;stroke:#263238;stroke-linecap:round;stroke-linejoin:round;stroke-miterlimit:10;" d="M373.519,243.749
				c0,0,15.461-0.525,16.648-0.524c1.187,0.001,5.934-2.505,6.857-5.142"/>
			<path style="fill:none;stroke:#263238;stroke-linecap:round;stroke-linejoin:round;stroke-miterlimit:10;" d="M397.024,261.555
				c0,0,3.48,1.194,5.888,0.676"/>
			<path style="fill:none;stroke:#263238;stroke-linecap:round;stroke-linejoin:round;stroke-miterlimit:10;" d="M389.275,285.423
				c0,0-0.559-5.85,3.529-14.134"/>
			<path style="fill:none;stroke:#263238;stroke-linecap:round;stroke-linejoin:round;stroke-miterlimit:10;" d="M413.584,233.789
				c2.098,8.156,5.329,34.98,7.505,40.076c2.176,5.096,2.44,6.811,0.858,11.558c-1.582,4.747-4.129,16.22-4.129,16.22"/>
			<path style="fill:none;stroke:#263238;stroke-linecap:round;stroke-linejoin:round;stroke-miterlimit:10;" d="M418.254,372.984
				c-1.714-5.406-2.769-12.527-2.11-15.824"/>
		</g>
		<g>
			<path style="fill:#263238;" d="M317.957,258.131c0,0-4.372,0.82-5.856,3.193c0,0,1.287,2.032,6.578,1.461
				C323.969,262.215,317.957,258.131,317.957,258.131z"/>
			<g>
				<defs>
					<path id="XMLID_201_" d="M333.595,249.866l123.692-18.352l1.582,22.07l-124.22,12.323l-5.8-2.617l-9.497,0.243
						c0,0-3.048-2.505-0.938-6.462l9.784-2.1L333.595,249.866z"/>
				</defs>
				<use xlink:href="#XMLID_201_"  style="overflow:visible;fill:#92E3A9;"/>
				<clipPath id="XMLID_00000114753725970891461610000001779860690989618575_">
					<use xlink:href="#XMLID_201_"  style="overflow:visible;"/>
				</clipPath>
				<path style="clip-path:url(#XMLID_00000114753725970891461610000001779860690989618575_);fill:#263238;" d="M354.868,251.02
					l50.981-7.233c2.165-0.307,4.151,1.248,4.371,3.423l0.104,1.022c0.212,2.086-1.284,3.958-3.366,4.211l-51.084,6.211
					c-2.148,0.261-4.089-1.298-4.297-3.452l0,0C351.378,253.152,352.828,251.309,354.868,251.02z"/>
				<path style="opacity:0.3;clip-path:url(#XMLID_00000114753725970891461610000001779860690989618575_);fill-opacity:0.7;" d="
					M458.87,253.58l-124.22,12.33l-5.8-2.62l-9.5,0.24c0,0-0.71-0.58-1.2-1.63l9.97-0.34l4.4,0.4l17.29-1.45l5.06-9.49
					c0,0,4.44-0.56,8,3.95c3.56,4.51,5.54,3.93,5.54,3.93l85.09-8.9l1.02-1.03c0,0-3.43-7.78,0-14.13c0.86-1.59,1.85-2.23,2.85-2.22
					L458.87,253.58z"/>
				
					<use xlink:href="#XMLID_201_"  style="overflow:visible;fill:none;stroke:#263238;stroke-linecap:round;stroke-linejoin:round;stroke-miterlimit:10;"/>
			</g>
			<g>
				<defs>
					<path id="XMLID_202_" d="M457.287,231.514c8.571-0.684,10.416,21.194,1.582,22.07
						C450.416,254.423,448.594,232.208,457.287,231.514z"/>
				</defs>
				<use xlink:href="#XMLID_202_"  style="overflow:visible;fill:#92E3A9;"/>
				<clipPath id="XMLID_00000021834452434916497490000002200448828198146197_">
					<use xlink:href="#XMLID_202_"  style="overflow:visible;"/>
				</clipPath>
				<path style="opacity:0.3;clip-path:url(#XMLID_00000021834452434916497490000002200448828198146197_);fill-opacity:0.7;" d="
					M458.87,253.58c-2.31,0.23-4.13-1.27-5.37-3.58l1.02-1.03c0,0-3.43-7.78,0-14.13c0.86-1.59,1.85-2.23,2.85-2.22
					c2.99,0.03,6.06,5.8,5.93,8.93l1.3,0.32C465.05,247.39,463.31,253.14,458.87,253.58z"/>
				
					<use xlink:href="#XMLID_202_"  style="overflow:visible;fill:none;stroke:#263238;stroke-linecap:round;stroke-linejoin:round;stroke-miterlimit:10;"/>
			</g>
			<path style="fill:none;stroke:#263238;stroke-linecap:round;stroke-linejoin:round;stroke-miterlimit:10;" d="M333.595,249.866
				c0,0-2.448,3.077-1.78,8.92c0.527,4.615,2.835,7.121,2.835,7.121"/>
			<path style="fill:none;stroke:#263238;stroke-linecap:round;stroke-linejoin:round;stroke-miterlimit:10;" d="M328.2,254.972
				c0,0-1.59,4.184,0.65,8.318"/>
			<path style="fill:none;stroke:#263238;stroke-linecap:round;stroke-linejoin:round;stroke-miterlimit:10;" d="M453.445,254.122
				c-8.454,0.839-10.083-20.413-1.476-21.819"/>
			<path style="fill:none;stroke:#263238;stroke-linecap:round;stroke-linejoin:round;stroke-miterlimit:10;" d="M457.463,232.895
				c6.782-0.591,8.242,18.316,1.252,19.073C452.026,252.692,450.583,233.494,457.463,232.895z"/>
			<path style="fill:none;stroke:#263238;stroke-linecap:round;stroke-linejoin:round;stroke-miterlimit:10;" d="M457.483,234.241
				c0,0,3.54,1.309,4.166,7.743c0.626,6.433-3.008,8.415-3.008,8.415"/>
		</g>
		<g>
			<g>
				<defs>
					<path id="XMLID_203_" d="M379.749,300.72c0,0-8.967,0.527-10.022,0c-1.055-0.527-6.593-11.077-6.857-14.371
						c-0.264-3.294-0.791-13.849-1.055-20.443c-0.264-6.593-0.256-16.878-12.659-14.691c-5.538,0.977-6.461,6.223-8.308,17.988
						c-1.846,11.764-0.132,14.901-1.451,29.934s0.264,21.01,3.429,28.571c3.165,7.561,4.341,26.814,12.78,33.935
						c8.439,7.121,11.758,20.835,11.758,20.835"/>
				</defs>
				<use xlink:href="#XMLID_203_"  style="overflow:visible;fill:#FFFFFF;"/>
				<clipPath id="XMLID_00000095332465534022313590000010798082724842613137_">
					<use xlink:href="#XMLID_203_"  style="overflow:visible;"/>
				</clipPath>
				<path style="opacity:0.4;clip-path:url(#XMLID_00000095332465534022313590000010798082724842613137_);fill:#92E3A9;" d="
					M357.69,262.89c-2.27,0.55-10.98,0.95-11.57,3.91c-0.59,2.97,4.61,4.28,6.76,6.89c-0.08,0-9.01,0.01-10.98,4.35
					c-1.98,4.36,1.65,13.69,1.65,18.83c0,5.14-4.48,15.43-1.05,20.77c2.98,4.66,5.78,15.39,4.33,25.58c-1.51-6.1-2.55-12.04-4-15.51
					c-3.17-7.56-4.75-13.54-3.43-28.57c1.32-15.04-0.4-18.17,1.45-29.94c1.32-8.45,2.17-13.54,4.61-16.1c0,0,0-0.01,0.01-0.01
					c2.85-0.62,6.07-0.86,8.02,0.52C357.59,256.52,359.97,262.33,357.69,262.89z"/>
				
					<use xlink:href="#XMLID_203_"  style="overflow:visible;fill:none;stroke:#263238;stroke-linecap:round;stroke-linejoin:round;stroke-miterlimit:10;"/>
			</g>
			<path style="fill:none;stroke:#263238;stroke-linecap:round;stroke-linejoin:round;stroke-miterlimit:10;" d="M362.87,286.349
				c0,0-0.849-0.267-1.347-5.41c-0.499-5.143-4.85-7.253-4.85-7.253"/>
			<path style="fill:none;stroke:#263238;stroke-linecap:round;stroke-linejoin:round;stroke-miterlimit:10;" d="M345.068,273.687
				c0,0-3.682,0.791-5.137,5.934"/>
		</g>
	</g>
</g>
</svg>
