<?xml version="1.0" encoding="utf-8"?>
<!-- Generator: Adobe Illustrator 27.5.0, SVG Export Plug-In . SVG Version: 6.00 Build 0)  -->
<svg version="1.1" xmlns="http://www.w3.org/2000/svg" xmlns:xlink="http://www.w3.org/1999/xlink" x="0px" y="0px"
	 viewBox="0 0 500 500" style="enable-background:new 0 0 500 500;" xml:space="preserve">
<g id="Background_Simple">
	<g>
		<path style="fill:#92E3A9;" d="M468.076,203.453c-11.686-24.133-25.001-48.08-38.817-70.477
			c-21.401-34.692-49.42-67.213-86.089-87.727C258.104-2.337,160.117,16.283,95.511,71.111S83.666,196.284,71.822,249.043
			c-11.844,52.759-49.532,50.69-59.223,127.242c-9.691,76.552,100.14,122.069,185.205,102.414
			c85.065-19.655,86.142-54.828,158.286-56.897s115.215-23.793,130.29-104.485c5.297-28.352,5.856-59.17-5.71-86.254
			C476.75,221.883,472.531,212.654,468.076,203.453z"/>
		<path style="opacity:0.7;fill:#FFFFFF;" d="M468.076,203.453c-11.686-24.133-25.001-48.08-38.817-70.477
			c-21.401-34.692-49.42-67.213-86.089-87.727C258.104-2.337,160.117,16.283,95.511,71.111S83.666,196.284,71.822,249.043
			c-11.844,52.759-49.532,50.69-59.223,127.242c-9.691,76.552,100.14,122.069,185.205,102.414
			c85.065-19.655,86.142-54.828,158.286-56.897s115.215-23.793,130.29-104.485c5.297-28.352,5.856-59.17-5.71-86.254
			C476.75,221.883,472.531,212.654,468.076,203.453z"/>
	</g>
</g>
<g id="Grass">
	<polygon style="fill:#92E3A9;" points="478.362,443.054 478.362,435.736 472.274,431.994 465.889,435.918 459.504,431.994 
		453.122,435.918 446.74,431.994 440.358,435.918 433.975,431.994 427.592,435.918 421.207,431.994 414.822,435.918 
		408.439,431.994 402.056,435.918 395.673,431.994 389.29,435.918 382.904,431.994 376.519,435.918 370.136,431.994 
		363.753,435.918 357.369,431.994 350.984,435.918 344.598,431.994 338.214,435.918 331.83,431.994 325.446,435.918 
		319.059,431.994 312.674,435.918 306.29,431.994 299.905,435.918 293.519,431.994 287.133,435.918 280.749,431.994 
		274.363,435.918 267.977,431.994 261.592,435.918 255.207,431.994 248.82,435.918 242.435,431.994 236.049,435.918 
		229.663,431.994 223.277,435.918 216.897,431.994 210.514,435.918 204.127,431.994 197.744,435.918 191.362,431.994 
		184.978,435.918 178.591,431.994 172.208,435.918 165.824,431.994 159.436,435.918 153.052,431.994 146.665,435.918 
		140.279,431.994 133.892,435.918 127.506,431.994 121.117,435.918 114.731,431.994 108.342,435.918 101.953,431.994 
		95.564,435.918 89.175,431.994 82.786,435.918 76.402,431.994 70.016,435.918 63.626,431.994 57.236,435.918 50.847,431.994 
		44.455,435.918 38.067,431.994 32.732,435.269 32.732,443.054 	"/>
</g>
<g id="Plants">
	<g>
		<path style="fill:#828282;" d="M372.255,398.867c1.379,0.602,4.753,0.526,4.755,0.526c0.035-0.001-0.725-2.208-0.789-2.342
			c-0.74-1.548-3.081-4.105-4.985-3.848c-1.372,0.185-2.135,1.559-1.825,2.85C369.727,397.373,371.08,398.353,372.255,398.867z"/>
		<path style="fill:#828282;" d="M373.419,408.638c1.431,0.209,4.441-0.664,4.681-0.735c0.475,1.685,1.1,3.376,1.826,5.052
			c0.414,0.959,0.861,1.912,1.321,2.861c-0.275-0.402-0.523-0.76-0.563-0.806c-1.123-1.298-4.056-3.146-5.824-2.394
			c-1.275,0.541-1.648,2.067-1.008,3.231c0.653,1.189,2.218,1.777,3.486,1.962c1.287,0.188,3.869-0.505,4.55-0.698
			c0.18,0.363,0.356,0.726,0.538,1.088c0.872,1.736,1.749,3.464,2.558,5.186c0.285,0.607,0.544,1.214,0.805,1.822
			c-0.244-0.357-0.453-0.656-0.49-0.698c-1.123-1.298-4.055-3.145-5.824-2.394c-1.275,0.541-1.648,2.067-1.008,3.231
			c0.654,1.189,2.218,1.777,3.487,1.962c1.228,0.179,3.617-0.439,4.427-0.664c0.249,0.63,0.499,1.26,0.711,1.882
			c0.136,0.428,0.296,0.83,0.408,1.267c0.12,0.43,0.239,0.857,0.357,1.279c0.197,0.821,0.405,1.667,0.577,2.473
			c0.124,0.56,0.232,1.095,0.342,1.634c-0.277-0.607-0.844-1.784-0.903-1.877c-0.913-1.453-3.532-3.723-5.394-3.249
			c-1.342,0.342-1.942,1.794-1.485,3.041c0.466,1.274,1.923,2.092,3.149,2.467c1.35,0.412,4.338,0.036,4.711-0.014
			c0.179,0.893,0.345,1.763,0.488,2.586c0.32,1.817,0.562,3.447,0.746,4.825h1.26c-0.22-1.427-0.507-3.126-0.887-5.035
			c-0.178-0.907-0.387-1.873-0.61-2.863c0.225-0.089,1.499-0.605,2.628-1.236c0.984,1.065,3.504,2.312,3.83,2.47
			c-0.343,0.844-0.685,1.661-1.02,2.426c-0.697,1.604-1.359,3.027-1.943,4.237h1.362c0.503-1.115,1.055-2.386,1.63-3.794
			c0.352-0.855,0.711-1.776,1.071-2.725c0.361,0.076,3.319,0.676,4.698,0.365c1.25-0.283,2.764-0.99,3.324-2.226
			c0.548-1.21,0.058-2.702-1.255-3.143c-1.821-0.612-4.602,1.457-5.621,2.838c-0.06,0.081-0.614,1.038-0.953,1.647
			c0.145-0.388,0.29-0.764,0.434-1.166c0.291-0.792,0.558-1.592,0.848-2.451c0.126-0.42,0.252-0.844,0.381-1.272
			c0.136-0.422,0.226-0.885,0.342-1.331c0.248-1.04,0.448-2.107,0.626-3.185c0.695,0.253,3.174,1.115,4.459,1.025
			c1.279-0.09,2.882-0.56,3.623-1.697c0.725-1.113,0.466-2.663-0.764-3.297c-1.708-0.881-4.771,0.743-5.987,1.954
			c-0.076,0.075-0.851,1.042-1.267,1.581c0.102-0.649,0.207-1.297,0.289-1.957c0.237-1.905,0.416-3.842,0.605-5.772
			c0.057-0.592,0.121-1.18,0.184-1.77c0.246,0.093,3.171,1.182,4.61,1.081c1.279-0.09,2.883-0.56,3.623-1.697
			c0.725-1.113,0.466-2.663-0.764-3.297c-1.708-0.881-4.77,0.743-5.986,1.954c-0.092,0.091-1.205,1.484-1.471,1.852
			c0.137-1.298,0.286-2.591,0.484-3.859c0.271-1.75,0.634-3.452,1.108-5.075c0.114,0.043,3.162,1.194,4.636,1.09
			c1.279-0.09,2.883-0.56,3.623-1.697c0.725-1.113,0.466-2.662-0.764-3.297c-1.708-0.881-4.77,0.743-5.987,1.954
			c-0.095,0.095-1.292,1.594-1.49,1.881c0.029-0.096,0.047-0.199,0.077-0.295c0.527-1.726,1.256-3.332,2.01-4.803
			c0.437-0.855,0.903-1.648,1.373-2.41c0.546,0.272,3.053,1.49,4.39,1.544c1.281,0.051,2.927-0.24,3.787-1.288
			c0.843-1.027,0.756-2.595-0.397-3.361c-1.601-1.063-4.823,0.215-6.165,1.284c-0.073,0.058-0.749,0.732-1.235,1.229
			c0.217-0.34,0.435-0.696,0.65-1.017c0.804-1.211,1.615-2.27,2.34-3.202c0.417-0.527,0.804-0.995,1.171-1.429
			c0.675-0.012,3.394-0.094,4.583-0.652c1.16-0.545,2.487-1.561,2.768-2.889c0.274-1.3-0.525-2.652-1.902-2.8
			c-1.911-0.206-4.182,2.413-4.88,3.981c-0.06,0.136-0.76,2.363-0.725,2.363c0,0,0.033,0,0.041,0
			c-0.362,0.41-0.745,0.855-1.153,1.349c-0.748,0.918-1.584,1.962-2.417,3.161c-0.836,1.195-1.711,2.517-2.506,3.992
			c-0.799,1.478-1.565,3.073-2.141,4.819c-0.007,0.02-0.011,0.041-0.017,0.061c0.01-0.563-0.015-2.138-0.031-2.259
			c-0.221-1.702-1.647-4.861-3.537-5.21c-1.362-0.251-2.515,0.815-2.623,2.139c-0.11,1.352,0.87,2.706,1.826,3.56
			c1.078,0.963,4.071,1.896,4.309,1.969c-0.533,1.668-0.945,3.422-1.264,5.221c-0.183,1.028-0.336,2.07-0.476,3.116
			c-0.007-0.487-0.017-0.923-0.025-0.983c-0.221-1.702-1.647-4.861-3.537-5.21c-1.362-0.252-2.515,0.815-2.623,2.139
			c-0.111,1.352,0.87,2.705,1.825,3.559c0.97,0.866,3.506,1.713,4.179,1.928c-0.049,0.402-0.104,0.803-0.151,1.205
			c-0.231,1.929-0.452,3.854-0.727,5.736c-0.096,0.663-0.216,1.313-0.334,1.963c-0.007-0.432-0.016-0.797-0.023-0.852
			c-0.221-1.702-1.647-4.861-3.537-5.21c-1.362-0.251-2.515,0.815-2.624,2.139c-0.111,1.352,0.87,2.706,1.826,3.559
			c0.925,0.827,3.259,1.629,4.059,1.888c-0.14,0.663-0.28,1.326-0.445,1.962c-0.123,0.431-0.212,0.855-0.359,1.282
			c-0.137,0.425-0.273,0.846-0.408,1.263c-0.289,0.794-0.582,1.614-0.883,2.381c-0.206,0.535-0.411,1.041-0.617,1.551
			c0.104-0.659,0.28-1.954,0.283-2.063c0.026-1.14-0.379-2.993-1.184-4.296c0.005-0.168-0.005-0.336-0.031-0.503
			c-0.211-1.312-1.443-2.286-2.781-1.929c-1.857,0.494-3.035,3.754-3.123,5.468c-0.005,0.101,0.061,1.204,0.114,1.9
			c-0.094-0.404-0.18-0.797-0.281-1.212c-0.195-0.821-0.414-1.635-0.645-2.512c-0.127-0.419-0.255-0.843-0.385-1.271
			c-0.119-0.427-0.299-0.863-0.449-1.299c-0.367-1.004-0.788-2.004-1.235-3.002c0.719-0.172,3.263-0.821,4.284-1.605
			c1.017-0.78,2.096-2.057,2.086-3.413c-0.01-1.329-1.079-2.478-2.456-2.329c-1.911,0.207-3.569,3.251-3.916,4.932
			c-0.021,0.105-0.135,1.339-0.184,2.018c-0.273-0.598-0.543-1.196-0.839-1.792c-0.854-1.72-1.771-3.434-2.68-5.148
			c-0.279-0.525-0.55-1.051-0.823-1.577c0.257-0.059,3.297-0.764,4.441-1.642c1.017-0.78,2.095-2.057,2.086-3.414
			c-0.01-1.328-1.08-2.478-2.456-2.328c-1.911,0.207-3.569,3.251-3.916,4.932c-0.026,0.127-0.186,1.902-0.205,2.356
			c-0.602-1.158-1.191-2.318-1.725-3.486c-0.739-1.609-1.376-3.229-1.876-4.844c0.12-0.027,3.296-0.749,4.468-1.648
			c1.017-0.78,2.096-2.057,2.086-3.414c-0.009-1.328-1.08-2.478-2.456-2.328c-1.911,0.207-3.569,3.251-3.915,4.932
			c-0.027,0.132-0.199,2.043-0.205,2.391c-0.03-0.096-0.071-0.192-0.099-0.288c-0.512-1.731-0.791-3.472-0.972-5.115
			c-0.107-0.954-0.156-1.872-0.184-2.767c0.605-0.074,3.369-0.442,4.513-1.134c1.097-0.664,2.309-1.814,2.448-3.164
			c0.136-1.322-0.801-2.582-2.186-2.584c-1.922-0.004-3.904,2.84-4.434,4.472c-0.029,0.089-0.222,1.024-0.352,1.707
			c-0.006-0.404-0.021-0.821-0.019-1.208c0.003-1.453,0.095-2.784,0.185-3.962c0.057-0.669,0.122-1.274,0.189-1.838
			c0.556-0.383,2.779-1.951,3.462-3.073c0.667-1.095,1.213-2.674,0.715-3.936c-0.488-1.236-1.901-1.922-3.131-1.286
			c-1.707,0.883-2.156,4.319-1.874,6.012c0.025,0.146,0.67,2.39,0.699,2.371c0,0,0.027-0.019,0.033-0.023
			c-0.075,0.542-0.149,1.124-0.217,1.762c-0.117,1.178-0.238,2.51-0.272,3.969c-0.038,1.458-0.038,3.043,0.112,4.712
			c0.149,1.673,0.39,3.427,0.873,5.2c0.006,0.02,0.014,0.04,0.019,0.06c-0.302-0.475-1.192-1.775-1.272-1.867
			c-1.123-1.298-4.055-3.146-5.824-2.395c-1.274,0.542-1.648,2.067-1.008,3.231C370.587,407.865,372.151,408.453,373.419,408.638z"
			/>
		<path style="fill:#828282;" d="M406.376,399.609c0.03,0.019,0.613-2.242,0.634-2.389c0.236-1.7-0.305-5.123-2.036-5.959
			c-1.247-0.602-2.64,0.122-3.094,1.371c-0.464,1.275,0.124,2.839,0.821,3.915C403.518,397.81,406.373,399.607,406.376,399.609z"/>
	</g>
	<g>
		<path style="fill:#828282;" d="M414.344,414.974c0.875,0.382,3.016,0.334,3.018,0.334c0.022,0-0.46-1.402-0.501-1.486
			c-0.47-0.983-1.955-2.605-3.164-2.442c-0.871,0.118-1.355,0.989-1.159,1.809C412.74,414.026,413.599,414.648,414.344,414.974z"/>
		<path style="fill:#828282;" d="M415.083,421.176c0.908,0.132,2.819-0.422,2.971-0.466c0.302,1.07,0.698,2.143,1.159,3.207
			c0.263,0.608,0.547,1.213,0.839,1.816c-0.174-0.255-0.332-0.482-0.358-0.512c-0.713-0.824-2.574-1.996-3.697-1.52
			c-0.809,0.343-1.046,1.312-0.64,2.051c0.414,0.755,1.408,1.128,2.213,1.245c0.817,0.119,2.455-0.321,2.888-0.443
			c0.114,0.23,0.226,0.461,0.341,0.69c0.553,1.102,1.11,2.199,1.624,3.292c0.181,0.385,0.345,0.771,0.511,1.156
			c-0.155-0.227-0.288-0.416-0.311-0.443c-0.713-0.823-2.574-1.996-3.697-1.52c-0.809,0.344-1.046,1.312-0.64,2.051
			c0.415,0.755,1.408,1.128,2.213,1.245c0.78,0.114,2.296-0.279,2.81-0.421c0.158,0.4,0.316,0.8,0.451,1.194
			c0.086,0.272,0.188,0.527,0.259,0.804c0.076,0.273,0.152,0.544,0.226,0.812c0.125,0.521,0.257,1.058,0.366,1.57
			c0.079,0.355,0.147,0.695,0.217,1.037c-0.176-0.385-0.536-1.132-0.573-1.191c-0.579-0.922-2.242-2.363-3.424-2.062
			c-0.852,0.217-1.232,1.138-0.943,1.93c0.296,0.809,1.22,1.328,1.998,1.566c0.857,0.262,2.753,0.022,2.99-0.009
			c0.114,0.566,0.219,1.119,0.31,1.642c0.203,1.154,0.357,2.188,0.473,3.063h0.8c-0.139-0.905-0.322-1.984-0.563-3.195
			c-0.113-0.576-0.245-1.189-0.387-1.817c0.142-0.057,0.951-0.384,1.668-0.784c0.624,0.676,2.224,1.467,2.431,1.568
			c-0.218,0.536-0.435,1.054-0.647,1.54c-0.442,1.018-0.862,1.921-1.233,2.689h0.865c0.319-0.708,0.669-1.514,1.035-2.408
			c0.223-0.543,0.451-1.127,0.68-1.729c0.229,0.048,2.107,0.429,2.982,0.232c0.793-0.179,1.755-0.628,2.11-1.413
			c0.348-0.768,0.036-1.715-0.797-1.995c-1.156-0.389-2.921,0.925-3.568,1.801c-0.038,0.052-0.389,0.659-0.605,1.046
			c0.092-0.247,0.184-0.485,0.276-0.74c0.185-0.503,0.354-1.01,0.538-1.556c0.08-0.267,0.16-0.536,0.242-0.807
			c0.086-0.268,0.143-0.562,0.217-0.845c0.157-0.66,0.284-1.337,0.398-2.022c0.441,0.16,2.014,0.708,2.83,0.651
			c0.812-0.057,1.829-0.355,2.299-1.077c0.46-0.706,0.296-1.69-0.485-2.093c-1.084-0.559-3.028,0.472-3.8,1.24
			c-0.048,0.048-0.54,0.661-0.804,1.004c0.065-0.412,0.131-0.823,0.183-1.242c0.15-1.209,0.264-2.438,0.384-3.664
			c0.036-0.375,0.077-0.749,0.116-1.123c0.156,0.059,2.013,0.75,2.926,0.686c0.811-0.057,1.829-0.355,2.299-1.077
			c0.46-0.706,0.296-1.69-0.485-2.093c-1.084-0.559-3.027,0.472-3.799,1.24c-0.058,0.058-0.765,0.942-0.934,1.176
			c0.087-0.824,0.181-1.644,0.307-2.449c0.172-1.111,0.403-2.191,0.703-3.221c0.073,0.028,2.007,0.758,2.942,0.692
			c0.812-0.057,1.83-0.355,2.3-1.077c0.46-0.706,0.296-1.69-0.485-2.093c-1.084-0.559-3.027,0.472-3.8,1.24
			c-0.06,0.06-0.82,1.012-0.946,1.194c0.018-0.061,0.03-0.127,0.049-0.187c0.335-1.096,0.797-2.115,1.276-3.048
			c0.277-0.543,0.573-1.046,0.871-1.529c0.346,0.173,1.938,0.946,2.786,0.98c0.813,0.033,1.858-0.152,2.404-0.818
			c0.535-0.652,0.48-1.647-0.252-2.133c-1.016-0.675-3.061,0.136-3.913,0.815c-0.046,0.037-0.475,0.464-0.784,0.78
			c0.138-0.216,0.276-0.442,0.413-0.646c0.51-0.768,1.025-1.441,1.486-2.032c0.265-0.334,0.51-0.632,0.743-0.907
			c0.428-0.008,2.154-0.06,2.909-0.414c0.736-0.346,1.579-0.991,1.757-1.833c0.174-0.825-0.333-1.683-1.207-1.777
			c-1.213-0.131-2.654,1.531-3.097,2.526c-0.038,0.086-0.483,1.5-0.46,1.5c0,0,0.021,0,0.026,0c-0.23,0.261-0.473,0.543-0.732,0.856
			c-0.474,0.583-1.005,1.246-1.534,2.006c-0.531,0.758-1.086,1.597-1.591,2.534c-0.507,0.938-0.993,1.951-1.359,3.059
			c-0.004,0.012-0.007,0.026-0.011,0.039c0.006-0.357-0.009-1.357-0.02-1.434c-0.14-1.08-1.045-3.085-2.245-3.307
			c-0.864-0.16-1.596,0.517-1.665,1.358c-0.07,0.858,0.552,1.717,1.159,2.259c0.684,0.611,2.584,1.203,2.735,1.25
			c-0.339,1.058-0.6,2.172-0.802,3.314c-0.117,0.653-0.214,1.314-0.302,1.978c-0.004-0.309-0.011-0.586-0.016-0.624
			c-0.14-1.08-1.045-3.085-2.245-3.307c-0.864-0.16-1.596,0.517-1.665,1.358c-0.07,0.858,0.552,1.717,1.159,2.259
			c0.616,0.55,2.225,1.087,2.653,1.224c-0.031,0.255-0.066,0.509-0.096,0.765c-0.146,1.224-0.287,2.446-0.462,3.641
			c-0.061,0.421-0.137,0.833-0.212,1.246c-0.004-0.275-0.01-0.506-0.015-0.541c-0.14-1.08-1.045-3.085-2.245-3.307
			c-0.864-0.16-1.596,0.517-1.665,1.358c-0.07,0.858,0.552,1.717,1.159,2.259c0.587,0.525,2.068,1.034,2.576,1.199
			c-0.089,0.42-0.177,0.842-0.283,1.245c-0.078,0.274-0.134,0.543-0.228,0.814c-0.087,0.27-0.173,0.537-0.259,0.802
			c-0.183,0.504-0.369,1.025-0.56,1.511c-0.13,0.34-0.261,0.661-0.391,0.985c0.066-0.418,0.178-1.24,0.179-1.31
			c0.017-0.723-0.24-1.9-0.752-2.727c0.003-0.107-0.003-0.213-0.02-0.319c-0.134-0.832-0.916-1.451-1.765-1.225
			c-1.179,0.314-1.926,2.383-1.982,3.471c-0.003,0.064,0.039,0.764,0.073,1.206c-0.06-0.256-0.114-0.506-0.178-0.769
			c-0.124-0.521-0.262-1.038-0.409-1.595c-0.081-0.266-0.162-0.535-0.244-0.807c-0.076-0.271-0.19-0.547-0.285-0.824
			c-0.233-0.637-0.5-1.272-0.784-1.905c0.456-0.109,2.071-0.521,2.719-1.018c0.646-0.495,1.33-1.306,1.324-2.167
			c-0.006-0.843-0.685-1.573-1.559-1.478c-1.213,0.132-2.265,2.064-2.485,3.13c-0.014,0.067-0.086,0.85-0.117,1.281
			c-0.173-0.379-0.344-0.759-0.532-1.137c-0.542-1.092-1.124-2.18-1.701-3.268c-0.177-0.333-0.349-0.667-0.523-1.001
			c0.163-0.037,2.093-0.485,2.819-1.042c0.645-0.495,1.33-1.305,1.324-2.167c-0.006-0.843-0.685-1.573-1.559-1.478
			c-1.213,0.132-2.265,2.063-2.485,3.13c-0.017,0.08-0.118,1.207-0.13,1.495c-0.382-0.735-0.756-1.471-1.095-2.212
			c-0.469-1.022-0.873-2.05-1.191-3.075c0.076-0.017,2.092-0.475,2.836-1.046c0.646-0.495,1.33-1.306,1.324-2.167
			c-0.006-0.843-0.685-1.573-1.559-1.478c-1.213,0.132-2.265,2.064-2.485,3.13c-0.017,0.084-0.126,1.296-0.13,1.517
			c-0.019-0.061-0.045-0.122-0.063-0.183c-0.325-1.099-0.502-2.204-0.617-3.247c-0.068-0.606-0.099-1.189-0.117-1.756
			c0.384-0.047,2.138-0.28,2.864-0.72c0.696-0.422,1.466-1.152,1.554-2.008c0.087-0.839-0.509-1.639-1.387-1.64
			c-1.22-0.002-2.478,1.802-2.814,2.839c-0.018,0.056-0.141,0.65-0.223,1.083c-0.004-0.256-0.013-0.521-0.012-0.766
			c0.002-0.922,0.06-1.767,0.118-2.514c0.036-0.425,0.077-0.808,0.12-1.167c0.353-0.243,1.764-1.239,2.198-1.95
			c0.423-0.695,0.77-1.697,0.454-2.498c-0.31-0.784-1.206-1.22-1.987-0.816c-1.084,0.56-1.369,2.742-1.19,3.816
			c0.016,0.093,0.425,1.517,0.443,1.505c0,0,0.017-0.012,0.021-0.015c-0.048,0.344-0.095,0.714-0.138,1.118
			c-0.074,0.748-0.151,1.593-0.173,2.519c-0.024,0.925-0.024,1.931,0.071,2.991c0.094,1.062,0.248,2.175,0.554,3.301
			c0.003,0.013,0.009,0.026,0.012,0.038c-0.192-0.301-0.757-1.126-0.807-1.185c-0.713-0.824-2.574-1.996-3.697-1.52
			c-0.809,0.344-1.046,1.312-0.64,2.051C413.285,420.685,414.278,421.058,415.083,421.176z"/>
		<path style="fill:#828282;" d="M436,415.445c0.019,0.012,0.389-1.423,0.403-1.516c0.15-1.079-0.194-3.252-1.292-3.782
			c-0.791-0.382-1.676,0.077-1.964,0.87c-0.294,0.809,0.079,1.802,0.521,2.485C434.187,414.303,435.999,415.444,436,415.445z"/>
	</g>
	<g>
		<path style="fill:#828282;" d="M73.448,413.467c0.875,0.382,3.016,0.334,3.018,0.334c0.022,0-0.46-1.402-0.501-1.487
			c-0.47-0.983-1.955-2.605-3.164-2.442c-0.871,0.118-1.355,0.989-1.159,1.809C71.843,412.519,72.702,413.141,73.448,413.467z"/>
		<path style="fill:#828282;" d="M74.187,419.669c0.908,0.132,2.819-0.422,2.971-0.467c0.302,1.07,0.698,2.143,1.159,3.207
			c0.263,0.609,0.547,1.213,0.839,1.816c-0.174-0.255-0.332-0.482-0.357-0.512c-0.713-0.824-2.574-1.996-3.697-1.52
			c-0.809,0.343-1.046,1.312-0.64,2.051c0.415,0.755,1.408,1.128,2.213,1.245c0.817,0.119,2.455-0.32,2.888-0.443
			c0.114,0.23,0.226,0.461,0.341,0.69c0.553,1.102,1.11,2.199,1.623,3.292c0.181,0.385,0.345,0.771,0.511,1.156
			c-0.155-0.227-0.287-0.416-0.311-0.443c-0.713-0.823-2.574-1.996-3.697-1.52c-0.809,0.343-1.046,1.312-0.64,2.051
			c0.415,0.755,1.408,1.128,2.213,1.245c0.78,0.114,2.296-0.279,2.81-0.421c0.158,0.4,0.317,0.8,0.451,1.194
			c0.086,0.272,0.188,0.527,0.259,0.804c0.076,0.273,0.152,0.544,0.226,0.812c0.125,0.521,0.257,1.058,0.366,1.57
			c0.079,0.355,0.147,0.695,0.217,1.037c-0.176-0.385-0.536-1.132-0.573-1.192c-0.579-0.922-2.242-2.363-3.424-2.062
			c-0.852,0.217-1.232,1.138-0.943,1.93c0.296,0.809,1.22,1.328,1.998,1.566c0.857,0.262,2.753,0.023,2.99-0.009
			c0.114,0.567,0.219,1.119,0.31,1.642c0.203,1.154,0.357,2.188,0.473,3.063h0.8c-0.139-0.905-0.322-1.984-0.563-3.195
			c-0.113-0.576-0.245-1.189-0.387-1.817c0.143-0.057,0.951-0.384,1.668-0.784c0.624,0.676,2.224,1.467,2.431,1.568
			c-0.218,0.536-0.435,1.054-0.647,1.54c-0.442,1.018-0.863,1.921-1.233,2.689h0.864c0.319-0.708,0.67-1.514,1.035-2.408
			c0.223-0.543,0.451-1.127,0.68-1.729c0.229,0.048,2.107,0.429,2.982,0.232c0.793-0.179,1.755-0.628,2.11-1.413
			c0.348-0.768,0.036-1.715-0.797-1.995c-1.156-0.388-2.921,0.925-3.568,1.801c-0.038,0.052-0.39,0.659-0.605,1.046
			c0.092-0.247,0.184-0.485,0.276-0.74c0.185-0.503,0.354-1.01,0.538-1.556c0.08-0.266,0.16-0.536,0.242-0.807
			c0.086-0.268,0.143-0.562,0.217-0.845c0.157-0.66,0.285-1.337,0.398-2.021c0.441,0.16,2.015,0.708,2.83,0.651
			c0.812-0.057,1.829-0.355,2.299-1.077c0.46-0.706,0.296-1.69-0.485-2.093c-1.084-0.559-3.028,0.472-3.8,1.24
			c-0.048,0.048-0.54,0.661-0.804,1.004c0.065-0.412,0.131-0.823,0.183-1.242c0.15-1.209,0.264-2.438,0.384-3.664
			c0.036-0.375,0.077-0.749,0.117-1.123c0.156,0.059,2.013,0.75,2.926,0.686c0.812-0.057,1.829-0.355,2.299-1.077
			c0.46-0.706,0.296-1.69-0.485-2.093c-1.084-0.559-3.028,0.471-3.8,1.24c-0.058,0.058-0.765,0.942-0.934,1.175
			c0.087-0.824,0.181-1.644,0.307-2.449c0.172-1.111,0.403-2.191,0.703-3.221c0.073,0.028,2.007,0.758,2.942,0.692
			c0.812-0.057,1.83-0.355,2.299-1.077c0.46-0.707,0.296-1.69-0.485-2.093c-1.084-0.559-3.027,0.472-3.8,1.24
			c-0.06,0.06-0.82,1.012-0.946,1.194c0.018-0.061,0.03-0.127,0.049-0.188c0.335-1.096,0.797-2.115,1.276-3.048
			c0.278-0.543,0.573-1.046,0.871-1.529c0.346,0.173,1.938,0.946,2.786,0.98c0.813,0.032,1.857-0.152,2.404-0.818
			c0.535-0.652,0.48-1.647-0.252-2.133c-1.016-0.675-3.061,0.136-3.913,0.815c-0.046,0.037-0.476,0.464-0.784,0.78
			c0.138-0.216,0.276-0.442,0.413-0.646c0.51-0.768,1.025-1.441,1.485-2.033c0.265-0.334,0.51-0.631,0.744-0.907
			c0.428-0.008,2.154-0.06,2.909-0.414c0.736-0.346,1.578-0.991,1.757-1.833c0.174-0.825-0.334-1.683-1.207-1.777
			c-1.213-0.131-2.654,1.531-3.097,2.527c-0.038,0.086-0.482,1.5-0.46,1.499c0,0,0.021,0,0.026,0
			c-0.23,0.261-0.473,0.543-0.732,0.856c-0.475,0.583-1.005,1.246-1.534,2.006c-0.531,0.759-1.086,1.598-1.591,2.534
			c-0.507,0.938-0.993,1.951-1.359,3.059c-0.004,0.012-0.007,0.026-0.011,0.039c0.006-0.357-0.009-1.357-0.02-1.434
			c-0.14-1.08-1.045-3.085-2.245-3.307c-0.864-0.16-1.596,0.517-1.665,1.358c-0.07,0.858,0.552,1.717,1.159,2.259
			c0.684,0.611,2.584,1.203,2.735,1.25c-0.339,1.058-0.6,2.172-0.803,3.314c-0.116,0.653-0.213,1.314-0.302,1.978
			c-0.004-0.309-0.011-0.586-0.016-0.624c-0.14-1.08-1.045-3.085-2.245-3.307c-0.864-0.16-1.596,0.517-1.665,1.358
			c-0.07,0.858,0.552,1.717,1.159,2.259c0.616,0.55,2.225,1.087,2.653,1.224c-0.031,0.255-0.066,0.509-0.096,0.765
			c-0.146,1.224-0.287,2.446-0.462,3.641c-0.061,0.421-0.137,0.833-0.212,1.246c-0.004-0.274-0.01-0.506-0.015-0.541
			c-0.14-1.08-1.045-3.085-2.245-3.307c-0.864-0.16-1.596,0.517-1.665,1.358c-0.07,0.858,0.552,1.717,1.159,2.259
			c0.587,0.525,2.068,1.034,2.576,1.199c-0.089,0.421-0.177,0.842-0.283,1.245c-0.078,0.274-0.134,0.543-0.228,0.814
			c-0.087,0.27-0.173,0.537-0.259,0.802c-0.183,0.504-0.369,1.024-0.56,1.511c-0.13,0.34-0.261,0.661-0.391,0.985
			c0.066-0.418,0.178-1.24,0.179-1.31c0.017-0.724-0.24-1.9-0.752-2.727c0.003-0.107-0.003-0.213-0.02-0.319
			c-0.134-0.832-0.916-1.451-1.765-1.225c-1.179,0.314-1.926,2.383-1.982,3.471c-0.003,0.064,0.039,0.764,0.072,1.206
			c-0.059-0.257-0.114-0.506-0.178-0.769c-0.124-0.521-0.262-1.038-0.409-1.594c-0.08-0.266-0.162-0.535-0.244-0.807
			c-0.076-0.271-0.19-0.547-0.285-0.824c-0.233-0.637-0.5-1.272-0.784-1.905c0.456-0.109,2.071-0.521,2.719-1.019
			c0.646-0.495,1.33-1.306,1.324-2.166c-0.006-0.843-0.685-1.573-1.559-1.478c-1.213,0.132-2.265,2.064-2.485,3.13
			c-0.014,0.067-0.086,0.85-0.117,1.281c-0.173-0.379-0.345-0.759-0.532-1.137c-0.542-1.092-1.124-2.18-1.701-3.268
			c-0.177-0.333-0.349-0.667-0.522-1.001c0.163-0.037,2.093-0.485,2.819-1.042c0.645-0.495,1.33-1.305,1.324-2.167
			c-0.006-0.843-0.685-1.573-1.559-1.478c-1.213,0.132-2.265,2.063-2.485,3.13c-0.017,0.081-0.118,1.207-0.13,1.495
			c-0.382-0.735-0.756-1.471-1.095-2.212c-0.469-1.022-0.873-2.05-1.191-3.075c0.076-0.017,2.092-0.476,2.836-1.046
			c0.646-0.495,1.33-1.306,1.324-2.167c-0.006-0.843-0.685-1.573-1.559-1.478c-1.213,0.132-2.265,2.064-2.485,3.13
			c-0.017,0.084-0.126,1.297-0.13,1.518c-0.019-0.061-0.045-0.122-0.063-0.183c-0.325-1.099-0.502-2.204-0.617-3.247
			c-0.068-0.606-0.099-1.188-0.117-1.756c0.384-0.047,2.138-0.28,2.864-0.72c0.696-0.422,1.465-1.152,1.554-2.008
			c0.087-0.839-0.509-1.639-1.387-1.64c-1.22-0.002-2.478,1.802-2.814,2.838c-0.018,0.056-0.141,0.65-0.224,1.083
			c-0.004-0.256-0.013-0.521-0.012-0.766c0.002-0.922,0.06-1.767,0.118-2.515c0.036-0.425,0.078-0.808,0.12-1.167
			c0.353-0.243,1.764-1.239,2.198-1.95c0.424-0.695,0.77-1.697,0.454-2.498c-0.31-0.784-1.206-1.22-1.987-0.816
			c-1.084,0.56-1.369,2.741-1.19,3.816c0.016,0.093,0.425,1.517,0.443,1.505c0,0,0.017-0.012,0.021-0.015
			c-0.048,0.344-0.095,0.714-0.138,1.118c-0.074,0.748-0.151,1.593-0.173,2.519c-0.024,0.925-0.024,1.931,0.071,2.991
			c0.094,1.062,0.248,2.175,0.554,3.301c0.004,0.013,0.009,0.026,0.012,0.038c-0.192-0.302-0.757-1.126-0.807-1.185
			c-0.713-0.824-2.574-1.996-3.697-1.52c-0.809,0.344-1.046,1.312-0.64,2.051C72.389,419.178,73.382,419.551,74.187,419.669z"/>
		<path style="fill:#828282;" d="M95.104,413.938c0.019,0.012,0.389-1.423,0.403-1.516c0.15-1.079-0.194-3.252-1.292-3.782
			c-0.791-0.382-1.676,0.077-1.964,0.87c-0.294,0.809,0.079,1.802,0.521,2.485C93.29,412.796,95.103,413.937,95.104,413.938z"/>
	</g>
</g>
<g id="Clouds">
	<g>
		<path style="fill:none;stroke:#263238;stroke-linecap:round;stroke-linejoin:round;stroke-miterlimit:10;" d="M111.691,132.117
			c-1.937-2.01-5.3-3.859-11.128-4.001c-13.104-0.319-9.588,8.949-13.104,11.187c-3.516,2.237-4.475-1.279-7.99,0.959
			c-3.516,2.237-1.918,6.712-4.794,7.351c-2.877,0.639-6.712-2.876-10.228-0.639c-3.516,2.237-3.516,4.155-5.114,4.155
			c-1.598,0-4.794-1.279-6.712,0c-1.918,1.279-4.155,2.877-4.155,2.877h34.317"/>
		<path style="fill:none;stroke:#263238;stroke-linecap:round;stroke-linejoin:round;stroke-miterlimit:10;" d="M115.3,137.84
			c-0.313-0.151-0.643-0.303-0.993-0.455c0,0-0.11-1.543-1.177-3.37"/>
		<path style="fill:none;stroke:#263238;stroke-linecap:round;stroke-linejoin:round;stroke-miterlimit:10;" d="M87.179,154.005
			h42.149c0,0,0.959-2.877-2.557-4.794c-3.516-1.917-5.114-0.32-6.392-1.917c-1.138-1.423,2.539-4.874-3.413-8.547"/>
	</g>
	<g>
		<path style="fill:none;stroke:#263238;stroke-linecap:round;stroke-linejoin:round;stroke-miterlimit:10;" d="M401.19,325.294
			c-1.937-2.01-5.3-3.859-11.128-4.001c-13.104-0.319-9.588,8.95-13.104,11.187c-3.516,2.237-4.475-1.279-7.99,0.959
			c-3.516,2.237-1.918,6.712-4.794,7.351c-2.877,0.639-6.712-2.876-10.228-0.639c-3.516,2.237-3.516,4.155-5.114,4.155
			c-1.598,0-4.794-1.279-6.712,0c-1.918,1.279-4.155,2.876-4.155,2.876h34.317"/>
		<path style="fill:none;stroke:#263238;stroke-linecap:round;stroke-linejoin:round;stroke-miterlimit:10;" d="M404.799,331.016
			c-0.313-0.151-0.643-0.303-0.993-0.455c0,0-0.11-1.543-1.177-3.37"/>
		<path style="fill:none;stroke:#263238;stroke-linecap:round;stroke-linejoin:round;stroke-miterlimit:10;" d="M376.678,347.181
			h42.149c0,0,0.959-2.876-2.557-4.794c-3.516-1.918-5.114-0.32-6.392-1.918c-1.138-1.423,2.539-4.874-3.413-8.547"/>
	</g>
	<g>
		<path style="fill:none;stroke:#263238;stroke-linecap:round;stroke-linejoin:round;stroke-miterlimit:10;" d="M178.502,73.827
			h44.874c0,0,1.529-4.587-4.078-7.645c-5.607-3.058-8.155-0.509-10.194-3.058c-2.039-2.549,5.607-9.175-9.684-15.801
			c0,0-1.019-14.271-21.916-14.781c-9.018-0.22-13.1,2.408-15.278,5.753"/>
		
			<line style="fill:none;stroke:#263238;stroke-linecap:round;stroke-linejoin:round;stroke-miterlimit:10;" x1="164.809" y1="73.827" x2="172.278" y2="73.827"/>
		<path style="fill:none;stroke:#263238;stroke-linecap:round;stroke-linejoin:round;stroke-miterlimit:10;" d="M159.506,45.335
			c-0.639,2.173-1.33,4.049-2.899,5.047c-5.607,3.568-7.135-2.039-12.742,1.529c-5.607,3.568-3.058,10.703-7.645,11.723
			c-4.587,1.019-10.703-4.587-16.31-1.019c-5.606,3.568-5.606,6.626-8.155,6.626c-2.548,0-7.646-2.039-10.703,0
			c-3.058,2.039-6.626,4.587-6.626,4.587h57.311"/>
	</g>
</g>
<g id="Trees">
	<g>
		<g>
			<path style="fill:#92E3A9;" d="M34.743,309.295c0,0,33.643,3.329,50.695,24.185c0,0,18.015-24.161,50.373-23.666
				c9.389-11.317,15.038-25.851,15.043-41.705c0.012-36.116-29.255-65.404-65.371-65.416c-36.116-0.013-65.404,29.255-65.416,65.371
				c-0.005,15.655,5.494,30.026,14.666,41.288L34.743,309.295z"/>
			<path style="fill:#92E3A9;" d="M34.743,309.295c0,0,33.643,3.329,50.695,24.185c0,0,18.015-24.161,50.373-23.666
				c9.389-11.317,15.038-25.851,15.043-41.705c0.012-36.116-29.255-65.404-65.371-65.416c-36.116-0.013-65.404,29.255-65.416,65.371
				c-0.005,15.655,5.494,30.026,14.666,41.288L34.743,309.295z"/>
			<path style="opacity:0.3;fill:#FFFFFF;" d="M34.743,309.295c0,0,33.643,3.329,50.695,24.185c0,0,18.015-24.161,50.373-23.666
				c9.389-11.317,15.038-25.851,15.043-41.705c0.012-36.116-29.255-65.404-65.371-65.416c-36.116-0.013-65.404,29.255-65.416,65.371
				c-0.005,15.655,5.494,30.026,14.666,41.288L34.743,309.295z"/>
			<g>
				<polygon style="fill:#828282;" points="87.469,443.509 84.325,207.303 83.539,443.509 				"/>
				<path style="fill:#828282;" d="M86.029,327.122c0,0,11.357-20.443,31.8-26.69c0,0-21.579,5.111-32.368,22.714L86.029,327.122z"
					/>
				<path style="fill:#828282;" d="M84.791,269.753c0,0,12.595-20.996,33.039-27.243c0,0-22.249,6.403-33.039,24.007V269.753z"/>
				<path style="fill:#828282;" d="M85.232,299.617c0,0,12.154-21.899,32.597-28.146c0,0-22.102,6.128-32.892,23.732L85.232,299.617
					z"/>
				<path style="fill:#828282;" d="M84.345,283.965c0,0-10.959-20.443-30.685-26.69c0,0,20.822,5.111,31.233,22.715L84.345,283.965z
					"/>
				<path style="fill:#828282;" d="M84.345,312.358c0,0-10.959-20.443-30.685-26.69c0,0,20.822,5.111,31.233,22.714L84.345,312.358z
					"/>
			</g>
		</g>
		<g>
			<path style="fill:#92E3A9;" d="M362.666,309.295c0,0,33.643,3.329,50.696,24.185c0,0,18.015-24.161,50.373-23.666
				c9.389-11.317,15.038-25.851,15.044-41.705c0.012-36.116-29.255-65.404-65.371-65.416c-36.116-0.013-65.404,29.255-65.416,65.371
				c-0.005,15.655,5.494,30.026,14.666,41.288L362.666,309.295z"/>
			<path style="opacity:0.3;fill:#FFFFFF;" d="M362.666,309.295c0,0,33.643,3.329,50.696,24.185c0,0,18.015-24.161,50.373-23.666
				c9.389-11.317,15.038-25.851,15.044-41.705c0.012-36.116-29.255-65.404-65.371-65.416c-36.116-0.013-65.404,29.255-65.416,65.371
				c-0.005,15.655,5.494,30.026,14.666,41.288L362.666,309.295z"/>
			<g>
				<polygon style="fill:#828282;" points="415.392,443.509 412.248,207.303 411.462,443.509 				"/>
				<path style="fill:#828282;" d="M413.952,327.122c0,0,11.357-20.443,31.8-26.69c0,0-21.579,5.111-32.368,22.714L413.952,327.122z
					"/>
				<path style="fill:#828282;" d="M412.714,269.753c0,0,12.595-20.996,33.039-27.243c0,0-22.249,6.403-33.039,24.007V269.753z"/>
				<path style="fill:#828282;" d="M413.155,299.617c0,0,12.154-21.899,32.597-28.146c0,0-22.102,6.128-32.892,23.732
					L413.155,299.617z"/>
				<path style="fill:#828282;" d="M412.268,283.965c0,0-10.959-20.443-30.685-26.69c0,0,20.822,5.111,31.233,22.715
					L412.268,283.965z"/>
				<path style="fill:#828282;" d="M412.268,312.358c0,0-10.959-20.443-30.685-26.69c0,0,20.822,5.111,31.233,22.714
					L412.268,312.358z"/>
			</g>
		</g>
		<g>
			<path style="fill:#92E3A9;" d="M245.948,192.229c0,0,57.147,5.654,86.112,41.08c0,0,30.601-41.04,85.563-40.199
				c15.949-19.223,25.543-43.91,25.553-70.841c0.021-61.346-49.693-111.095-111.04-111.116
				c-61.346-0.021-111.095,49.693-111.116,111.04c-0.009,26.592,9.332,51.003,24.911,70.131L245.948,192.229z"/>
			<path style="opacity:0.3;fill:#FFFFFF;" d="M245.948,192.229c0,0,57.147,5.654,86.112,41.08c0,0,30.601-41.04,85.563-40.199
				c15.949-19.223,25.543-43.91,25.553-70.841c0.021-61.346-49.693-111.095-111.04-111.116
				c-61.346-0.021-111.095,49.693-111.116,111.04c-0.009,26.592,9.332,51.003,24.911,70.131L245.948,192.229z"/>
			<g>
				<polygon style="fill:#828282;" points="335.819,443.509 330.168,18.985 328.755,443.509 				"/>
				<path style="fill:#828282;" d="M333.062,222.511c0,0,19.291-34.725,54.016-45.335c0,0-36.654,8.681-54.981,38.583
					L333.062,222.511z"/>
				<path style="fill:#828282;" d="M330.959,125.063c0,0,21.395-35.664,56.12-46.275c0,0-37.792,10.876-56.12,40.777V125.063z"/>
				<path style="fill:#828282;" d="M331.708,175.79c0,0,20.645-37.197,55.37-47.808c0,0-37.543,10.409-55.87,40.312L331.708,175.79z
					"/>
				<path style="fill:#828282;" d="M330.202,149.203c0,0-18.615-34.725-52.121-45.336c0,0,35.367,8.681,53.052,38.583
					L330.202,149.203z"/>
				<path style="fill:#828282;" d="M330.202,197.432c0,0-18.615-34.725-52.121-45.335c0,0,35.367,8.681,53.052,38.583
					L330.202,197.432z"/>
			</g>
		</g>
	</g>
</g>
<g id="Floor">
	<g>
		
			<line style="fill:none;stroke:#263238;stroke-linecap:round;stroke-linejoin:round;stroke-miterlimit:10;" x1="468.076" y1="443.208" x2="478.914" y2="443.208"/>
		
			<line style="fill:none;stroke:#263238;stroke-linecap:round;stroke-linejoin:round;stroke-miterlimit:10;" x1="33.157" y1="443.208" x2="458.141" y2="443.208"/>
	</g>
</g>
<g id="Character">
	<g>
		<ellipse style="fill:#263238;" cx="246.982" cy="478.626" rx="25.732" ry="2.313"/>
		<g>
			<path style="fill:none;stroke:#263238;stroke-miterlimit:10;" d="M151.81,287.835c0,0-5.507,2.478-4.13,11.289
				c1.377,8.811,42.679,66.084,53.143,104.633c10.463,38.549,2.203,70.49,45.984,66.91c43.781-3.58,49.563-52.867,59.201-91.692
				c9.637-38.825,33.593-63.606,34.97-81.229c1.377-17.622-9.913-14.594-9.913-14.594"/>
			<g>
				<path style="fill:#FFFFFF;stroke:#263238;stroke-miterlimit:10;" d="M211.415,339.644c0,0,3.929,25.931,4.125,27.306
					c0.196,1.375-3.929,16.305-1.179,24.555c2.75,8.251,6.876,21.019,8.643,24.752c1.768,3.732,1.964,4.125,2.161,10.019
					c0.196,5.893-1.375,17.876,0.786,21.805c2.161,3.929,6.483,6.09,10.804,5.304c4.322-0.786,6.483-3.929,5.893-8.84
					c-0.589-4.911-2.554-11.394-3.732-16.894c-1.179-5.5-2.357-10.019-3.143-13.358c-0.786-3.34-0.589-1.179-0.786-13.947
					c-0.197-12.769-0.982-18.859-1.572-25.145c-0.589-6.286-0.393-7.268-0.589-9.036c-0.197-1.768,7.072-26.323,7.072-26.323
					l-28.681-2.161L211.415,339.644z"/>
				<path style="fill:#263238;stroke:#263238;stroke-miterlimit:10;" d="M238.917,427.65c-1.179-5.5-2.357-10.019-3.143-13.358
					c-0.786-3.34-0.589-1.179-0.786-13.947c-0.197-12.769-0.982-18.859-1.572-25.145c0,0-2.711,28.689-8.271,50.496
					c0.007,0.192,0.014,0.375,0.021,0.579c0.196,5.893-1.375,17.876,0.786,21.805c2.161,3.929,6.483,6.09,10.804,5.304
					c4.322-0.786,6.483-3.929,5.893-8.84C242.06,439.633,240.096,433.151,238.917,427.65z"/>
				<path style="fill:#FFFFFF;stroke:#263238;stroke-miterlimit:10;" d="M242.65,444.544c-0.589-4.911-2.554-11.394-3.732-16.894
					c-1.179-5.5-2.357-10.019-3.143-13.358c0,0,0.982,3.732-3.536,6.483c-3.004,1.828-5.483,1.222-7.503-0.023
					c0.247,1.248,0.34,2.794,0.431,5.523c0.196,5.893-1.375,17.876,0.786,21.805c2.161,3.929,6.483,6.09,10.804,5.304
					C241.078,452.599,243.239,449.456,242.65,444.544z"/>
				<path style="fill:#FFFFFF;stroke:#263238;stroke-miterlimit:10;" d="M236.756,453.384c4.322-0.786,6.483-3.929,5.893-8.84
					c-0.048-0.398-0.118-0.821-0.182-1.237c-1.109,5.487-4.169,8.767-9.444,7.917c-4.207-0.678-6.913-5.949-8.184-9.144
					c0.099,2.534,0.401,4.708,1.113,6.001C228.113,452.009,232.434,454.17,236.756,453.384z"/>
			</g>
			<path style="fill:#263238;stroke:#263238;stroke-miterlimit:10;" d="M254.24,371.664c0,0,0.393,6.875,1.768,9.626
				c1.375,2.75,4.322,3.143,6.09,6.679c1.768,3.536,2.357,4.518,0.196,11.983c-1.146,3.958-3.361,10.595,0.184,13.96
				c5.479,5.2,10.121-2.037,12.026-6.689c1.793-4.378,1.874-8.917,1.344-13.558c-0.786-6.875-0.786-7.465-0.786-8.643
				c0-1.179,4.715-7.858,2.161-14.537c-2.554-6.679-7.072-6.09-7.072-6.09S256.401,361.842,254.24,371.664z"/>
			<path style="fill:#FFFFFF;stroke:#263238;stroke-miterlimit:10;" d="M248.739,341.805c0,0,1.375,25.538,4.125,30.645
				c2.75,5.108,11.787,7.661,15.126,5.5c3.34-2.161,5.893-13.358,6.875-19.841c0.982-6.483,2.161-15.323,2.161-15.323
				L248.739,341.805z"/>
			<path style="fill:#263238;stroke:#263238;stroke-miterlimit:10;" d="M212.986,270.496c0,0-5.893,24.555-6.286,34.378
				c-0.393,9.822-2.357,25.931-3.143,30.056c-0.786,4.125-0.589,7.661-0.589,7.661s3.732-1.375,17.876,0.589
				c14.144,1.965,15.519,2.357,18.073,2.357s2.554,0,2.554,0l2.554-2.357l-0.393,2.357c0,0-4.125,1.964,9.626,0.393
				s18.073-0.589,22.395-0.786c4.322-0.197,7.661-0.59,7.661-0.59s1.572-12.965-1.964-30.449
				c-3.536-17.484-3.34-27.502-6.876-33.985c-3.536-6.483-3.536-6.483-3.536-6.483s-27.306,1.375-37.324,1.178
				s-19.251-3.732-19.251-3.732"/>
			<g>
				<g>
					<path style="fill:#FFFFFF;stroke:#263238;stroke-miterlimit:10;" d="M164.741,269.31l-4.423,3.82c0,0-6.634,2.412-7.84,4.423
						c-1.206,2.01-2.211,6.232-3.216,6.634c-1.005,0.402-3.618,0.603-2.613,1.809c1.005,1.206,3.016,0.804,3.016,0.804
						s0.804,4.021,1.407,4.825c0.603,0.804,2.814-0.804,6.835-2.412c4.021-1.608,4.624-1.005,5.428-3.82
						c0.804-2.815,2.211-7.84,2.211-7.84l2.814-2.613L164.741,269.31z"/>
					<path style="fill:#92E3A9;stroke:#263238;stroke-miterlimit:10;" d="M164.741,269.31l-3.182,2.748l3.956,5.604
						c0.018-0.064,0.031-0.11,0.031-0.11l2.814-2.613L164.741,269.31z"/>
					<path style="fill:none;stroke:#263238;stroke-miterlimit:10;" d="M149.663,286.8l9.041-4.521
						c0.579-0.289,1.282-0.079,1.601,0.484c0.566,1.001,1.37,2.576,1.622,3.835"/>
					<path style="fill:#263238;stroke:#263238;stroke-miterlimit:10;" d="M160.293,281.88l1.473-0.737
						c0.953-0.476,2.109-0.025,2.486,0.972l0.129,0.34c0.37,0.978-0.169,2.063-1.171,2.36l-1.073,0.318L160.293,281.88z"/>
					<path style="fill:none;stroke:#263238;stroke-miterlimit:10;" d="M158.704,282.279c0,0,1.155-0.616,1.155-2.894"/>
				</g>
				<g>
					<path style="fill:#FFFFFF;stroke:#263238;stroke-miterlimit:10;" d="M318.783,267.663l4.998,3.029c0,0,6.943,1.273,8.468,3.054
						c1.524,1.781,3.219,5.776,4.277,6.005c1.058,0.229,3.668-0.008,2.879,1.348c-0.79,1.357-2.839,1.296-2.839,1.296
						s-0.123,4.098-0.583,4.992c-0.461,0.893-2.909-0.324-7.142-1.239c-4.232-0.916-4.727-0.22-5.989-2.861
						c-1.262-2.641-3.487-7.362-3.487-7.362l-3.211-2.108L318.783,267.663z"/>
					<path style="fill:#92E3A9;stroke:#263238;stroke-miterlimit:10;" d="M318.783,267.663l3.596,2.18l-2.966,6.185
						c-0.029-0.06-0.049-0.103-0.049-0.103l-3.211-2.108L318.783,267.663z"/>
					<path style="fill:none;stroke:#263238;stroke-miterlimit:10;" d="M336.565,282.395l-9.668-2.95
						c-0.619-0.189-1.278,0.136-1.498,0.744c-0.391,1.081-0.921,2.768-0.96,4.052"/>
					<path style="fill:#263238;stroke:#263238;stroke-miterlimit:10;" d="M325.264,279.316l-1.575-0.481
						c-1.019-0.311-2.083,0.327-2.289,1.372l-0.07,0.357c-0.202,1.026,0.51,2.006,1.548,2.132l1.111,0.135L325.264,279.316z"/>
					<path style="fill:none;stroke:#263238;stroke-miterlimit:10;" d="M326.897,279.445c0,0-1.241-0.415-1.621-2.661"/>
				</g>
				<g>
					<path style="fill:#92E3A9;stroke:#263238;stroke-miterlimit:10;" d="M222.981,192.737c0,0-19.642,5.407-20.446,9.83
						c-0.804,4.423-6.232,18.897-6.232,19.902c0,1.005-6.634,23.923-6.634,23.923s-2.613,2.01-2.814,2.814
						c0,0-9.851,5.629-13.67,9.851c-3.82,4.222-10.253,7.639-9.851,9.046c0.402,1.407,2.412,9.65,8.845,9.449
						c6.433-0.201,26.335-10.052,30.356-14.072c4.021-4.021,9.851-16.485,9.851-16.485s-4.021,13.067-3.015,16.083
						c1.005,3.016,2.01,8.443,5.227,9.851c3.217,1.407,13.469,5.026,31.964,4.624c18.495-0.402,23.521-1.005,26.134-4.825
						c2.613-3.82,4.021-8.041,4.624-12.866c0.603-4.825,0.603-6.634,0.603-8.443c0-1.809,4.423,8.041,15.279,14.675
						c10.856,6.634,17.49,13.067,19.5,10.856c2.01-2.211,9.046-5.428,7.84-11.258c-1.206-5.83-5.629-6.835-11.057-12.263
						c-5.428-5.428-7.84-11.057-7.84-11.057s0.603-2.815-0.603-4.222c-1.206-1.407-1.206-1.407-1.206-1.407
						s4.021-8.041-1.206-16.083c-5.227-8.041-7.036-10.454-11.459-15.882c-4.423-5.428-3.418-6.835-7.84-9.449
						c-4.423-2.613-2.613-2.412-12.665-4.423c-10.052-2.01-12.71-0.364-25.855-0.483
						C227.664,190.304,222.981,192.737,222.981,192.737z"/>
					<path style="fill:none;stroke:#263238;stroke-miterlimit:10;" d="M277.922,251.418c0,0,1.809-12.062,3.016-22.114
						c1.206-10.052-1.608-18.093-3.417-21.109"/>
					<path style="fill:none;stroke:#263238;stroke-miterlimit:10;" d="M211.983,212.618c0,0-2.211,7.237-0.402,13.268
						c1.809,6.031,1.809,9.047,1.608,12.263c-0.201,3.217-0.804,8.845-0.804,8.845"/>
					<path style="fill:none;stroke:#263238;stroke-miterlimit:10;" d="M214.396,258.253c0.603-0.402,12.062-16.083,12.062-16.083
						l2.01,1.407l-12.665,16.686"/>
					<polyline style="fill:none;stroke:#263238;stroke-miterlimit:10;" points="259.025,244.784 270.283,264.284 272.495,262.676 
						261.438,243.98 					"/>
					<path style="fill:none;stroke:#263238;stroke-miterlimit:10;" d="M229.071,276.145c0,0-0.804-1.407-7.237-7.84"/>
					<path style="fill:none;stroke:#263238;stroke-miterlimit:10;" d="M246.561,277.552c0,0,7.237-3.216,8.846-7.036"/>
					<path style="fill:none;stroke:#263238;stroke-miterlimit:10;" d="M253.195,276.748c0,0,2.413-0.201,4.021-2.613"/>
				</g>
			</g>
			<g>
				<g>
					<g>
						<path style="fill:#92E3A9;stroke:#263238;stroke-miterlimit:10;" d="M231.419,174.036c0,0-6.805,1.633-7.213,3.403
							c-0.408,1.769-0.272,3.13-0.408,3.675c-0.136,0.544-3.402,2.45-4.491,4.355c-1.089,1.905,0.68,2.314,0.68,2.858
							c0,0.544-2.45,2.314-1.769,3.266c0.68,0.953,1.497,2.586,4.763,2.722c3.266,0.136,17.421-0.68,17.965-0.544
							c0.544,0.136,9.799-2.041,16.604-1.769c6.805,0.272,12.929,2.45,13.338,0.68c0.408-1.769-2.994-6.261-2.994-6.261
							s2.45-0.544,0.681-3.674c-1.769-3.13-3.811-3.539-3.811-4.219c0-0.681,2.178-1.633-2.994-3.403
							c-5.172-1.769-10.071-2.041-12.793-2.177c-2.722-0.136-14.562-0.408-14.562-0.408L231.419,174.036z"/>
						<path style="fill:none;stroke:#263238;stroke-miterlimit:10;" d="M264.763,178.527c0,0-6.656,3.232-10.839,6.654
							c-4.182,3.422-5.893,6.083-9.125,6.844"/>
						<path style="fill:none;stroke:#263238;stroke-miterlimit:10;" d="M267.893,186.421c0,0-2.943-0.859-8.836,1.422
							c-5.893,2.281-4.752,3.042-9.505,3.612"/>
						<path style="fill:none;stroke:#263238;stroke-miterlimit:10;" d="M223.797,181.113c0,0,2.182,1.027,7.125,6.349
							c4.943,5.323,7.794,4.562,7.794,4.562"/>
						<path style="fill:none;stroke:#263238;stroke-miterlimit:10;" d="M219.986,188.327c1.051,0.277,2.952,3.508,9.415,4.269"/>
					</g>
					<g>
						<path style="fill:#FFFFFF;stroke:#263238;stroke-miterlimit:10;" d="M232.916,174.227c0,0-0.68,4.764,1.497,8.71
							c2.177,3.947,4.355,7.894,6.397,7.486c2.042-0.408,9.391-8.166,10.888-10.207c1.497-2.041,2.586-6.124,2.586-6.124
							S241.762,180.216,232.916,174.227z"/>
						<path style="fill:#263238;stroke:#263238;stroke-miterlimit:10;" d="M254.283,174.091c0,0-12.521,6.124-21.367,0.136
							c0,0-0.177,1.263-0.056,3.023c1.964,3.156,5.903,7.786,11.612,10.558c2.845-2.568,6.257-6.272,7.225-7.592
							C253.195,178.174,254.283,174.091,254.283,174.091z"/>
					</g>
				</g>
				<g>
					<path style="fill:#FFFFFF;stroke:#263238;stroke-miterlimit:10;" d="M228.984,158.22c0,0-3.032-2.669-3.808-0.31
						c-0.776,2.359-0.455,4.749,1.428,6.829c1.883,2.08,3.073,2.4,3.073,2.4L228.984,158.22z"/>
					<path style="fill:#FFFFFF;stroke:#263238;stroke-miterlimit:10;" d="M258.094,161.162c0,0,3.402-2.178,3.811,0.272
						c0.408,2.45-0.272,4.763-2.45,6.533c-2.178,1.769-3.402,1.905-3.402,1.905L258.094,161.162z"/>
					<g>
						<path style="fill:#FFFFFF;stroke:#263238;stroke-miterlimit:10;" d="M241.898,133.67c0,0-8.846-2.042-10.616,5.036
							c-1.769,7.077-3.402,17.965-3.266,23.001c0.136,5.036,2.722,12.385,4.083,13.882c1.361,1.497,5.308,5.444,8.166,5.58
							c2.858,0.136,9.663-1.633,12.793-4.764c3.13-3.13,2.586-6.124,4.219-11.16c1.633-5.036,4.083-12.249,2.586-19.462
							c-1.497-7.213-0.408-5.444-6.124-9.935C248.023,131.356,240.265,128.498,241.898,133.67z"/>
						<path style="fill:#263238;stroke:#263238;stroke-miterlimit:10;" d="M259.863,145.783c-1.497-7.213-0.408-5.444-6.124-9.935
							c-5.716-4.491-13.474-7.349-11.841-2.178c0,0-8.846-2.042-10.616,5.036c-1.1,4.401-2.147,10.275-2.749,15.299l0.3-0.056
							c0,0,1.769-0.272,2.041-3.811c0.272-3.539,0.408-8.438,1.905-8.574c1.497-0.136,4.219,3.675,8.71,2.178
							c4.491-1.497,6.941-4.083,10.752-2.45c3.811,1.633,5.172,4.763,4.219,6.125c-0.953,1.361-1.769,3.402-0.817,5.035
							c0.953,1.633,1.769,2.994,2.041,4.219c0.203,0.913,0.33,4.399,0.382,6.113C259.568,157.997,261.132,151.892,259.863,145.783z"
							/>
						<polyline style="fill:none;stroke:#263238;stroke-miterlimit:10;" points="239.993,154.901 240.673,157.079 239.721,159.529 
													"/>
						<path style="fill:none;stroke:#263238;stroke-miterlimit:10;" d="M239.585,163.476c0,0.408,2.178,2.45,5.444,0.817"/>
						<circle style="fill:#263238;" cx="241.898" cy="170.281" r="1.225"/>
						<path style="fill:#263238;" d="M236.727,157.487c0,0.601-0.366,1.089-0.817,1.089c-0.451,0-0.817-0.488-0.817-1.089
							c0-0.601,0.366-1.089,0.817-1.089C236.361,156.398,236.727,156.886,236.727,157.487z"/>
						<path style="fill:#263238;" d="M249.928,157.896c0,0.601-0.365,1.089-0.817,1.089c-0.451,0-0.816-0.487-0.816-1.089
							c0-0.601,0.366-1.089,0.816-1.089C249.563,156.807,249.928,157.294,249.928,157.896z"/>
						<path style="fill:none;stroke:#263238;stroke-miterlimit:10;" d="M232.916,153.268c0,0,2.858-1.089,5.988,0.817"/>
						<path style="fill:#FFFFFF;stroke:#263238;stroke-miterlimit:10;" d="M246.662,154.901c0,0,3.539-1.905,7.621,0.136"/>
					</g>
				</g>
			</g>
		</g>
	</g>
</g>
</svg>
